SplineFontDB: 3.0
FontName: SnowburstOne-Regular
FullName: Snowburst One
FamilyName: Snowburst One
Weight: Book
Copyright: Copyright (c) 2011-2012, Sorkin Type Co (www.sorkintype.com)\nwith Reserved Font Name 'Snowburst'
Version: 1.001
ItalicAngle: 0
UnderlinePosition: -50
UnderlineWidth: 50
Ascent: 1638
Descent: 410
sfntRevision: 0x00010042
LayerCount: 2
Layer: 0 1 "Back"  1
Layer: 1 1 "Fore"  0
XUID: [1021 631 1661839179 8927065]
FSType: 0
OS2Version: 3
OS2_WeightWidthSlopeOnly: 0
OS2_UseTypoMetrics: 1
CreationTime: 1353857040
ModificationTime: 1353848624
PfmFamily: 17
TTFWeight: 400
TTFWidth: 5
LineGap: 0
VLineGap: 0
Panose: 2 0 0 0 0 0 0 0 0 0
OS2TypoAscent: 2120
OS2TypoAOffset: 0
OS2TypoDescent: -440
OS2TypoDOffset: 0
OS2TypoLinegap: 0
OS2WinAscent: 2120
OS2WinAOffset: 0
OS2WinDescent: 440
OS2WinDOffset: 0
HheadAscent: 2120
HheadAOffset: 0
HheadDescent: -440
HheadDOffset: 0
OS2SubXSize: 1434
OS2SubYSize: 1331
OS2SubXOff: 0
OS2SubYOff: 287
OS2SupXSize: 1434
OS2SupYSize: 1331
OS2SupXOff: 0
OS2SupYOff: 977
OS2StrikeYSize: 102
OS2StrikeYPos: 512
OS2Vendor: 'STC '
OS2CodePages: 20000001.00000000
OS2UnicodeRanges: 800000af.5000204a.00000000.00000000
Lookup: 1 0 0 "'aalt' Access All Alternates in Latin lookup 0"  {"'aalt' Access All Alternates in Latin lookup 0 subtable"  } ['aalt' ('latn' <'MOL ' 'ROM ' 'TUR ' 'dflt' > ) ]
Lookup: 6 0 0 "'ordn' Ordinals in Latin lookup 1"  {"'ordn' Ordinals in Latin lookup 1 contextual 0"  "'ordn' Ordinals in Latin lookup 1 contextual 1"  "'ordn' Ordinals in Latin lookup 1 contextual 2"  "'ordn' Ordinals in Latin lookup 1 contextual 3"  } ['ordn' ('latn' <'dflt' > ) ]
Lookup: 1 0 0 "'sups' Superscript in Latin lookup 2"  {"'sups' Superscript in Latin lookup 2 subtable" ("superior" ) } ['sups' ('latn' <'dflt' > ) ]
Lookup: 4 0 1 "'liga' Standard Ligatures in Latin lookup 3"  {"'liga' Standard Ligatures in Latin lookup 3 subtable"  } ['liga' ('latn' <'dflt' > ) ]

StartChar: exclam
Encoding: 33 33 26
Width: 805
GlyphClass: 2
Flags: W
LayerCount: 2
Fore
SplineSet
456 359 m 1,0,-1
 384 365 l 1,1,2
 306 365 306 365 287 376 c 0,3,4
 248 399 248 399 279 437.5 c 128,-1,5
 310 476 310 476 324.5 494.5 c 128,-1,6
 339 513 339 513 346 525 c 0,7,8
 358 543 358 543 362 564 c 1,9,-1
 436 1531 l 1,10,11
 436 1569 436 1569 418 1595 c 128,-1,12
 400 1621 400 1621 382 1644 c 0,13,14
 334 1705 334 1705 334 1749 c 256,15,16
 334 1793 334 1793 388 1784 c 1,17,-1
 449 1766 l 2,18,19
 499 1751 499 1751 582 1751 c 2,20,-1
 610 1751 l 2,21,22
 644 1751 644 1751 660.5 1741.5 c 128,-1,23
 677 1732 677 1732 677 1712 c 0,24,25
 677 1678 677 1678 644 1650.5 c 128,-1,26
 611 1623 611 1623 587.5 1597.5 c 128,-1,27
 564 1572 564 1572 549 1550 c 0,28,29
 520 1506 520 1506 520 1485 c 1,30,31
 460 628 460 628 460 587 c 128,-1,32
 460 546 460 546 459.5 528 c 128,-1,33
 459 510 459 510 462 495 c 0,34,35
 467 461 467 461 480 441 c 0,36,37
 535 359 535 359 456 359 c 1,0,-1
230 -232 m 1,38,39
 193 -232 193 -232 193 -206 c 0,40,41
 193 -183 193 -183 236.5 -133.5 c 128,-1,42
 280 -84 280 -84 297.5 -63 c 128,-1,43
 315 -42 315 -42 326 -28 c 0,44,45
 350 0 350 0 360 0 c 0,46,47
 377 0 377 0 391 -28.5 c 128,-1,48
 405 -57 405 -57 423.5 -79.5 c 128,-1,49
 442 -102 442 -102 460 -124 c 0,50,51
 549 -233 549 -233 450 -233 c 1,52,-1
 314 -227 l 1,53,-1
 230 -232 l 1,38,39
EndSplineSet
EndChar

StartChar: numbersign
Encoding: 35 35 28
Width: 1476
GlyphClass: 2
Flags: W
LayerCount: 2
Fore
SplineSet
133 1013 m 1,0,1
 155 1167 155 1167 155 1207 c 1,2,-1
 143 1307 l 1,3,4
 143 1352 143 1352 168 1352 c 0,5,6
 191 1352 191 1352 224 1305 c 1,7,8
 255 1257 255 1257 315 1213 c 0,9,10
 330 1202 330 1202 337 1202 c 2,11,-1
 530 1204 l 1,12,13
 572 1460 572 1460 572 1520 c 1,14,15
 568 1551 568 1551 512 1590 c 0,16,17
 492 1605 492 1605 475.5 1619.5 c 128,-1,18
 459 1634 459 1634 459 1651 c 0,19,20
 459 1682 459 1682 505 1682 c 1,21,-1
 566 1679 l 1,22,23
 610 1679 610 1679 660 1692 c 0,24,25
 738 1711 738 1711 758 1711 c 0,26,27
 789 1711 789 1711 789 1678 c 0,28,29
 789 1647 789 1647 762 1628 c 128,-1,30
 735 1609 735 1609 717.5 1585 c 128,-1,31
 700 1561 700 1561 686 1536 c 1,32,33
 659 1483 659 1483 656 1459 c 1,34,-1
 607 1205 l 1,35,-1
 1043 1211 l 1,36,37
 1081 1447 1081 1447 1081 1485.5 c 128,-1,38
 1081 1524 1081 1524 1077 1534 c 128,-1,39
 1073 1544 1073 1544 1065.5 1551.5 c 128,-1,40
 1058 1559 1058 1559 1047.5 1567 c 128,-1,41
 1037 1575 1037 1575 1028 1586 c 128,-1,42
 1019 1597 1019 1597 1011.5 1604 c 128,-1,43
 1004 1611 1004 1611 998 1618 c 0,44,45
 982 1635 982 1635 982 1651 c 0,46,47
 982 1683 982 1683 1037 1683 c 1,48,-1
 1085 1681 l 1,49,50
 1121 1681 1121 1681 1170 1693 c 128,-1,51
 1219 1705 1219 1705 1233 1707.5 c 128,-1,52
 1247 1710 1247 1710 1264 1710 c 128,-1,53
 1281 1710 1281 1710 1292 1699.5 c 128,-1,54
 1303 1689 1303 1689 1303 1674 c 0,55,56
 1303 1640 1303 1640 1274 1620 c 128,-1,57
 1245 1600 1245 1600 1227 1579 c 128,-1,58
 1209 1558 1209 1558 1196 1536 c 0,59,60
 1168 1491 1168 1491 1165 1461 c 0,61,62
 1160 1421 1160 1421 1126 1212 c 1,63,-1
 1228 1214 l 1,64,65
 1282 1214 1282 1214 1308 1236 c 1,66,67
 1344 1269 1344 1269 1386 1336 c 1,68,69
 1408 1362 1408 1362 1429 1362 c 0,70,71
 1468 1362 1468 1362 1468 1311 c 1,72,-1
 1461 1199 l 1,73,74
 1461 1135 1461 1135 1468 1105.5 c 128,-1,75
 1475 1076 1475 1076 1475 1065 c 128,-1,76
 1475 1054 1475 1054 1465.5 1042 c 128,-1,77
 1456 1030 1456 1030 1437 1029 c 128,-1,78
 1418 1028 1418 1028 1395 1044 c 128,-1,79
 1372 1060 1372 1060 1348 1079 c 0,80,81
 1282 1130 1282 1130 1248 1130 c 2,82,-1
 1113 1128 l 1,83,-1
 1014 546 l 1,84,-1
 1050 547 l 2,85,86
 1135 549 1135 549 1174 568 c 0,87,88
 1244 602 1244 602 1289 673 c 1,89,90
 1311 699 1311 699 1332 699 c 0,91,92
 1371 699 1371 699 1371 648 c 1,93,-1
 1365 539 l 1,94,95
 1365 467 1365 467 1371.5 440 c 128,-1,96
 1378 413 1378 413 1378 405 c 0,97,98
 1378 370 1378 370 1349.5 368 c 128,-1,99
 1321 366 1321 366 1298 380.5 c 128,-1,100
 1275 395 1275 395 1250 414 c 0,101,102
 1185 463 1185 463 1151 467 c 1,103,-1
 1000 467 l 1,104,-1
 928 89 l 1,105,106
 928 58 928 58 950 38 c 0,107,108
 964 26 964 26 1025 -17 c 0,109,110
 1048 -33 1048 -33 1048 -50 c 128,-1,111
 1048 -67 1048 -67 1029.5 -79 c 128,-1,112
 1011 -91 1011 -91 976 -91 c 1,113,-1
 886 -86 l 1,114,-1
 841 -86 l 2,115,116
 676 -86 676 -86 676 -40 c 0,117,118
 676 -17 676 -17 705.5 -1 c 128,-1,119
 735 15 735 15 752 28.5 c 128,-1,120
 769 42 769 42 782 58 c 0,121,122
 826 109 826 109 841 162.5 c 128,-1,123
 856 216 856 216 866 258 c 0,124,125
 886 339 886 339 912 467 c 1,126,127
 566 464 566 464 463 461 c 1,128,-1
 390 82 l 2,129,130
 384 54 384 54 399 32 c 128,-1,131
 414 10 414 10 430 -7 c 0,132,133
 470 -51 470 -51 470 -78 c 0,134,135
 470 -115 470 -115 400 -115 c 1,136,-1
 315 -109 l 1,137,-1
 206 -114 l 1,138,139
 174 -114 174 -114 155 -101 c 128,-1,140
 136 -88 136 -88 136 -74 c 0,141,142
 136 -48 136 -48 165.5 -32 c 128,-1,143
 195 -16 195 -16 212 -5.5 c 128,-1,144
 229 5 229 5 242 17 c 0,145,146
 283 53 283 53 301 112.5 c 128,-1,147
 319 172 319 172 331 220 c 0,148,149
 348 289 348 289 385 458 c 1,150,151
 308 455 308 455 281 453 c 0,152,153
 246 450 246 450 185 386 c 0,154,155
 162 361 162 361 141 340 c 128,-1,156
 120 319 120 319 102 318 c 1,157,158
 66 318 66 318 66 350 c 1,159,160
 88 504 88 504 88 544 c 1,161,-1
 76 644 l 1,162,163
 76 689 76 689 101 689 c 256,164,165
 126 689 126 689 157 642 c 0,166,167
 188 594 188 594 248 550 c 0,168,169
 263 539 263 539 270 539 c 2,170,-1
 403 540 l 1,171,172
 459 799 459 799 516 1120 c 1,173,174
 456 1119 456 1119 423 1118 c 2,175,-1
 374 1116 l 2,176,177
 357 1116 357 1116 340.5 1113 c 128,-1,178
 324 1110 324 1110 299 1089 c 128,-1,179
 274 1068 274 1068 250 1044 c 0,180,181
 190 982 190 982 169 981 c 1,182,183
 133 981 133 981 133 1013 c 1,0,1
928 546 m 1,184,185
 985 847 985 847 1030 1127 c 1,186,-1
 590 1121 l 1,187,-1
 478 541 l 1,188,-1
 928 546 l 1,184,185
EndSplineSet
EndChar

StartChar: dollar
Encoding: 36 36 29
Width: 1189
GlyphClass: 2
Flags: W
LayerCount: 2
Fore
SplineSet
200 74 m 0,0,1
 170 74 170 74 170 123 c 1,2,3
 189 253 189 253 189 436 c 0,4,5
 189 490 189 490 224 470 c 0,6,7
 253 453 253 453 269.5 426.5 c 128,-1,8
 286 400 286 400 298 377.5 c 128,-1,9
 310 355 310 355 324 334 c 0,10,11
 360 281 360 281 393 274 c 0,12,13
 504 251 504 251 598 251 c 1,14,15
 614 627 614 627 621 943 c 1,16,17
 480 1023 480 1023 423.5 1083 c 128,-1,18
 367 1143 367 1143 339 1204 c 128,-1,19
 311 1265 311 1265 311 1337 c 128,-1,20
 311 1409 311 1409 335 1460 c 128,-1,21
 359 1511 359 1511 402 1549 c 0,22,23
 490 1626 490 1626 630 1645 c 1,24,25
 630 1770 630 1770 625.5 1818.5 c 128,-1,26
 621 1867 621 1867 604 1889.5 c 128,-1,27
 587 1912 587 1912 568 1931 c 2,28,-1
 534 1966 l 1,29,30
 500 1999 500 1999 535 2026 c 0,31,32
 561 2046 561 2046 610 2035.5 c 128,-1,33
 659 2025 659 2025 704 2025 c 1,34,-1
 798 2035 l 1,35,36
 821 2035 821 2035 832 2024 c 0,37,38
 857 1998 857 1998 823 1959 c 1,39,40
 805 1948 805 1948 779 1918 c 0,41,42
 729 1858 729 1858 729 1833.5 c 128,-1,43
 729 1809 729 1809 725 1651 c 1,44,45
 806 1649 806 1649 871 1635 c 1,46,47
 888 1635 888 1635 958 1660.5 c 128,-1,48
 1028 1686 1028 1686 1050 1696 c 0,49,50
 1102 1721 1102 1721 1102 1690 c 0,51,52
 1102 1675 1102 1675 1090 1640 c 1,53,-1
 1062 1541 l 1,54,55
 1051 1513 1051 1513 1047.5 1483 c 128,-1,56
 1044 1453 1044 1453 1040 1428 c 128,-1,57
 1036 1403 1036 1403 1029 1387 c 128,-1,58
 1022 1371 1022 1371 1008.5 1371 c 128,-1,59
 995 1371 995 1371 984 1377.5 c 128,-1,60
 973 1384 973 1384 963 1394 c 0,61,62
 938 1417 938 1417 923.5 1449 c 128,-1,63
 909 1481 909 1481 900 1499 c 0,64,65
 876 1544 876 1544 858 1549 c 0,66,67
 794 1565 794 1565 723 1565 c 1,68,-1
 708 996 l 1,69,70
 768 963 768 963 831 926.5 c 128,-1,71
 894 890 894 890 946 840 c 1,72,73
 1063 724 1063 724 1063 545 c 0,74,75
 1063 385 1063 385 958 284 c 0,76,77
 860 189 860 189 685 164 c 1,78,79
 681 12 681 12 681 -20 c 128,-1,80
 681 -52 681 -52 690.5 -68.5 c 128,-1,81
 700 -85 700 -85 713.5 -100.5 c 128,-1,82
 727 -116 727 -116 737 -127.5 c 128,-1,83
 747 -139 747 -139 756 -151 c 0,84,85
 794 -201 794 -201 763 -224 c 0,86,87
 741 -241 741 -241 718.5 -235.5 c 128,-1,88
 696 -230 696 -230 682 -226 c 0,89,90
 597 -206 597 -206 534 -228 c 0,91,92
 457 -255 457 -255 457 -205 c 0,93,94
 457 -173 457 -173 487.5 -137.5 c 128,-1,95
 518 -102 518 -102 534 -82 c 0,96,97
 575 -31 575 -31 580 -6 c 0,98,99
 587 28 587 28 593 157 c 1,100,101
 481 157 481 157 388 176 c 1,102,103
 336 181 336 181 268 126 c 1,104,105
 245 106 245 106 227 90 c 128,-1,106
 209 74 209 74 200 74 c 0,0,1
623 1047 m 1,107,108
 630 1376 630 1376 630 1556 c 1,109,110
 473 1525 473 1525 422 1424 c 0,111,112
 363 1306 363 1306 470 1177 c 0,113,114
 524 1112 524 1112 623 1047 c 1,107,108
687 257 m 1,115,116
 958 298 958 298 958 584 c 0,117,118
 958 726 958 726 800 833 c 0,119,120
 755 864 755 864 705 894 c 1,121,-1
 687 257 l 1,115,116
EndSplineSet
EndChar

StartChar: percent
Encoding: 37 37 30
Width: 1863
GlyphClass: 3
Flags: W
LayerCount: 2
Fore
SplineSet
556 756 m 0,0,1
 524 752 524 752 509 752 c 128,-1,2
 494 752 494 752 462 756 c 128,-1,3
 430 760 430 760 392.5 773 c 128,-1,4
 355 786 355 786 316.5 810 c 128,-1,5
 278 834 278 834 246 873 c 0,6,7
 175 962 175 962 175 1104 c 0,8,9
 175 1250 175 1250 278 1359 c 0,10,11
 405 1494 405 1494 596 1466 c 0,12,13
 737 1446 737 1446 814 1332 c 0,14,15
 878 1237 878 1237 878 1085 c 0,16,17
 878 947 878 947 794 862 c 0,18,19
 706 772 706 772 556 756 c 0,0,1
524 83 m 1,20,-1
 531 -1 l 1,21,22
 531 -18 531 -18 521 -34 c 128,-1,23
 511 -50 511 -50 498 -50 c 0,24,25
 474 -50 474 -50 458.5 -27.5 c 128,-1,26
 443 -5 443 -5 425 10 c 128,-1,27
 407 25 407 25 387 38 c 2,28,-1
 305 89 l 2,29,30
 287 101 287 101 288 114 c 0,31,32
 289 150 289 150 332 160.5 c 128,-1,33
 375 171 375 171 411 177.5 c 128,-1,34
 447 184 447 184 455.5 193 c 128,-1,35
 464 202 464 202 495.5 242 c 128,-1,36
 527 282 527 282 580 348.5 c 128,-1,37
 633 415 633 415 701 501.5 c 128,-1,38
 769 588 769 588 843 681.5 c 128,-1,39
 917 775 917 775 991.5 869 c 128,-1,40
 1066 963 1066 963 1130 1044 c 2,41,-1
 1316 1280 l 2,42,43
 1346 1318 1346 1318 1346 1360 c 1,44,-1
 1339 1426 l 1,45,46
 1339 1441 1339 1441 1348 1457.5 c 128,-1,47
 1357 1474 1357 1474 1374.5 1474 c 128,-1,48
 1392 1474 1392 1474 1418 1444 c 0,49,50
 1481 1369 1481 1369 1553 1329 c 0,51,52
 1577 1315 1577 1315 1577 1294 c 0,53,54
 1577 1260 1577 1260 1521 1260 c 1,55,-1
 1490 1261 l 1,56,57
 1446 1261 1446 1261 1424 1250 c 128,-1,58
 1402 1239 1402 1239 1392 1226 c 128,-1,59
 1382 1213 1382 1213 1340 1160 c 2,60,-1
 1240 1036 l 1,61,62
 638 284 638 284 543 151 c 0,63,64
 524 123 524 123 524 83 c 1,20,-1
452 855.5 m 128,-1,66
 493 845 493 845 510.5 845 c 128,-1,67
 528 845 528 845 552 847.5 c 128,-1,68
 576 850 576 850 606 858.5 c 128,-1,69
 636 867 636 867 668.5 883 c 128,-1,70
 701 899 701 899 728 926 c 0,71,72
 790 990 790 990 790 1093 c 0,73,74
 790 1301 790 1301 638 1362 c 1,75,76
 542 1402 542 1402 461 1368 c 2,77,-1
 386 1336 l 1,78,79
 378 1334 378 1334 362.5 1322.5 c 128,-1,80
 347 1311 347 1311 328.5 1284 c 128,-1,81
 310 1257 310 1257 298 1227 c 0,82,83
 274 1167 274 1167 274 1096 c 128,-1,84
 274 1025 274 1025 302.5 974 c 128,-1,85
 331 923 331 923 371 894.5 c 128,-1,65
 411 866 411 866 452 855.5 c 128,-1,66
1004 202 m 0,86,87
 984 258 984 258 984 333 c 128,-1,88
 984 408 984 408 1011.5 474.5 c 128,-1,89
 1039 541 1039 541 1087 592 c 0,90,91
 1214 727 1214 727 1404 700 c 0,92,93
 1546 679 1546 679 1623 565 c 0,94,95
 1687 470 1687 470 1687 318 c 0,96,97
 1687 180 1687 180 1604 95 c 0,98,99
 1515 5 1515 5 1365 -12 c 0,100,101
 1236 -26 1236 -26 1126 43 c 0,102,103
 1042 95 1042 95 1004 202 c 0,86,87
1090 406 m 128,-1,105
 1083 371 1083 371 1083 314.5 c 128,-1,106
 1083 258 1083 258 1111.5 207 c 128,-1,107
 1140 156 1140 156 1180 128 c 0,108,109
 1311 34 1311 34 1478 116 c 0,110,111
 1549 151 1549 151 1582 228 c 0,112,113
 1599 269 1599 269 1599 328.5 c 128,-1,114
 1599 388 1599 388 1586 434 c 128,-1,115
 1573 480 1573 480 1552 512 c 128,-1,116
 1531 544 1531 544 1503.5 564 c 128,-1,117
 1476 584 1476 584 1448 596 c 0,118,119
 1351 635 1351 635 1270 602 c 0,120,121
 1237 588 1237 588 1206.5 573.5 c 128,-1,122
 1176 559 1176 559 1152 532.5 c 128,-1,123
 1128 506 1128 506 1112.5 473.5 c 128,-1,104
 1097 441 1097 441 1090 406 c 128,-1,105
EndSplineSet
Ligature2: "'frac' Diagonal Fractions in Latin lookup 4 subtable" zero slash zero
EndChar

StartChar: ampersand
Encoding: 38 38 31
Width: 1835
GlyphClass: 2
Flags: W
LayerCount: 2
Fore
SplineSet
1746 432 m 1,0,1
 1746 371 1746 371 1704 408 c 0,2,3
 1681 427 1681 427 1657.5 454 c 128,-1,4
 1634 481 1634 481 1621 492 c 0,5,6
 1581 528 1581 528 1520 528 c 1,7,-1
 1365 523 l 1,8,9
 1366 511 1366 511 1366 499 c 2,10,-1
 1366 476 l 2,11,12
 1366 135 1366 135 1131 3 c 0,13,14
 989 -77 989 -77 738 -72 c 1,15,16
 515 -69 515 -69 345 48 c 0,17,18
 231 126 231 126 180 268 c 0,19,20
 154 343 154 343 153.5 448.5 c 128,-1,21
 153 554 153 554 188.5 637 c 128,-1,22
 224 720 224 720 278.5 779.5 c 128,-1,23
 333 839 333 839 398 877 c 128,-1,24
 463 915 463 915 522 937 c 0,25,26
 614 972 614 972 657 975 c 128,-1,27
 700 978 700 978 700 983 c 256,28,29
 700 988 700 988 685 995 c 128,-1,30
 670 1002 670 1002 656 1010.5 c 128,-1,31
 642 1019 642 1019 614 1040.5 c 128,-1,32
 586 1062 586 1062 558 1098 c 0,33,34
 485 1190 485 1190 485 1282.5 c 128,-1,35
 485 1375 485 1375 505 1431 c 128,-1,36
 525 1487 525 1487 558 1526.5 c 128,-1,37
 591 1566 591 1566 631.5 1591.5 c 128,-1,38
 672 1617 672 1617 714 1631 c 0,39,40
 843 1674 843 1674 972 1642 c 0,41,42
 1036 1627 1036 1627 1054.5 1630 c 128,-1,43
 1073 1633 1073 1633 1090 1638 c 2,44,-1
 1209 1680 l 1,45,46
 1249 1689 1249 1689 1249 1663 c 0,47,48
 1249 1642 1249 1642 1216 1579 c 0,49,50
 1185 1520 1185 1520 1183 1475 c 128,-1,51
 1181 1430 1181 1430 1181 1402 c 128,-1,52
 1181 1374 1181 1374 1169 1362 c 128,-1,53
 1157 1350 1157 1350 1141.5 1350 c 128,-1,54
 1126 1350 1126 1350 1112.5 1369 c 128,-1,55
 1099 1388 1099 1388 1086 1414 c 0,56,57
 1050 1492 1050 1492 1037 1505 c 2,58,-1
 1016 1526 l 2,59,60
 983 1559 983 1559 870 1573 c 0,61,62
 750 1588 750 1588 662 1513 c 0,63,64
 578 1441 578 1441 578 1315 c 256,65,66
 578 1189 578 1189 698 1094 c 0,67,68
 747 1054 747 1054 800 1033 c 128,-1,69
 853 1012 853 1012 876.5 1012 c 128,-1,70
 900 1012 900 1012 910.5 1015.5 c 128,-1,71
 921 1019 921 1019 934 1026 c 1,72,73
 953 1038 953 1038 1008 1077 c 0,74,75
 1062 1116 1062 1116 1062 1070 c 0,76,77
 1062 1038 1062 1038 1053 996 c 128,-1,78
 1044 954 1044 954 1044 893 c 1,79,-1
 1045 858 l 1,80,81
 1045 815 1045 815 1014 834 c 1,82,-1
 944 892 l 2,83,84
 925 907 925 907 902 924 c 1,85,86
 870 919 870 919 812 919 c 128,-1,87
 754 919 754 919 697 909.5 c 128,-1,88
 640 900 640 900 580 877.5 c 128,-1,89
 520 855 520 855 461.5 819 c 128,-1,90
 403 783 403 783 356 730 c 0,91,92
 235 591 235 591 256 384 c 0,93,94
 265 292 265 292 310 219.5 c 128,-1,95
 355 147 355 147 410 106 c 0,96,97
 537 10 537 10 746 10 c 0,98,99
 1128 10 1128 10 1236 272 c 0,100,101
 1274 366 1274 366 1274 483 c 1,102,-1
 1273 516 l 1,103,104
 1215 515 1215 515 1166 514 c 0,105,106
 1049 512 1049 512 1029 512 c 128,-1,107
 1009 512 1009 512 990.5 500.5 c 128,-1,108
 972 489 972 489 954 472 c 0,109,110
 922 442 922 442 901 411 c 0,111,112
 871 368 871 368 852 368 c 0,113,114
 823 368 823 368 823 411 c 1,115,-1
 830 508 l 1,116,117
 830 572 830 572 817.5 615 c 128,-1,118
 805 658 805 658 805 682 c 128,-1,119
 805 706 805 706 826 706 c 128,-1,120
 847 706 847 706 864.5 686.5 c 128,-1,121
 882 667 882 667 902 644 c 0,122,123
 954 582 954 582 1003 582 c 1,124,-1
 1534 598 l 1,125,126
 1584 598 1584 598 1619.5 628.5 c 128,-1,127
 1655 659 1655 659 1679 698 c 0,128,129
 1712 752 1712 752 1727 752 c 0,130,131
 1750 752 1750 752 1750 702 c 1,132,-1
 1742 538 l 1,133,-1
 1746 432 l 1,0,1
EndSplineSet
EndChar

StartChar: quotesingle
Encoding: 39 39 32
Width: 668
GlyphClass: 2
Flags: W
LayerCount: 2
Fore
SplineSet
398 1640 m 1,0,1
 482 1640 482 1640 458 1591 c 0,2,3
 452 1580 452 1580 432 1558.5 c 128,-1,4
 412 1537 412 1537 399 1517 c 128,-1,5
 386 1497 386 1497 380 1479 c 0,6,7
 375 1463 375 1463 367 1396 c 1,8,-1
 361 1163 l 1,9,10
 369 1106 369 1106 350 1080 c 128,-1,11
 331 1054 331 1054 314 1054 c 128,-1,12
 297 1054 297 1054 285 1070 c 0,13,14
 265 1099 265 1099 277 1158 c 1,15,-1
 283 1414 l 1,16,17
 275 1458 275 1458 264.5 1497 c 128,-1,18
 254 1536 254 1536 232 1553 c 0,19,20
 170 1600 170 1600 211 1632 c 0,21,22
 226 1643 226 1643 246 1643 c 2,23,-1
 350 1638 l 1,24,-1
 398 1640 l 1,0,1
EndSplineSet
EndChar

StartChar: parenleft
Encoding: 40 40 33
Width: 1153
GlyphClass: 2
Flags: W
LayerCount: 2
Fore
SplineSet
646 -390 m 1,0,-1
 650 -316 l 1,1,2
 650 -222 650 -222 626 -189 c 1,3,-1
 414 119 l 1,4,5
 308 276 308 276 270 382 c 0,6,7
 109 821 109 821 314 1320 c 0,8,9
 407 1549 407 1549 552 1735 c 0,10,11
 582 1775 582 1775 551 1939 c 0,12,13
 539 2005 539 2005 587 2005 c 0,14,15
 612 2005 612 2005 659.5 1970 c 128,-1,16
 707 1935 707 1935 731.5 1916 c 128,-1,17
 756 1897 756 1897 782 1879 c 128,-1,18
 808 1861 808 1861 827 1846 c 0,19,20
 869 1814 869 1814 869 1802 c 128,-1,21
 869 1790 869 1790 858 1777.5 c 128,-1,22
 847 1765 847 1765 827 1761.5 c 128,-1,23
 807 1758 807 1758 784.5 1751.5 c 128,-1,24
 762 1745 762 1745 738 1734 c 0,25,26
 528 1640 528 1640 392 1254 c 0,27,28
 254 865 254 865 328 562 c 0,29,30
 403 255 403 255 694 -112 c 1,31,32
 724 -148 724 -148 902 -175 c 0,33,34
 923 -179 923 -179 937.5 -185 c 128,-1,35
 952 -191 952 -191 952 -204 c 0,36,37
 952 -242 952 -242 865 -290 c 0,38,39
 773 -340 773 -340 746 -384 c 0,40,41
 735 -402 735 -402 715 -416.5 c 128,-1,42
 695 -431 695 -431 678 -431 c 0,43,44
 646 -431 646 -431 646 -390 c 1,0,-1
EndSplineSet
EndChar

StartChar: parenright
Encoding: 41 41 34
Width: 1100
GlyphClass: 2
Flags: W
LayerCount: 2
Fore
SplineSet
523 -388 m 1,0,1
 523 -429 523 -429 493 -429 c 0,2,3
 476 -429 476 -429 455.5 -414.5 c 128,-1,4
 435 -400 435 -400 423 -380.5 c 128,-1,5
 411 -361 411 -361 391 -344 c 128,-1,6
 371 -327 371 -327 348 -313 c 2,7,-1
 269 -265 l 1,8,9
 218 -232 218 -232 218 -210.5 c 128,-1,10
 218 -189 218 -189 232.5 -183 c 128,-1,11
 247 -177 247 -177 267 -173.5 c 128,-1,12
 287 -170 287 -170 318.5 -164.5 c 128,-1,13
 350 -159 350 -159 382 -151 c 0,14,15
 458 -132 458 -132 476 -110 c 0,16,17
 799 297 799 297 799 804 c 0,18,19
 799 1016 799 1016 694 1314 c 0,20,21
 516 1815 516 1815 245 1860 c 0,22,23
 223 1864 223 1864 211.5 1876.5 c 128,-1,24
 200 1889 200 1889 200 1899 c 128,-1,25
 200 1909 200 1909 211.5 1920 c 128,-1,26
 223 1931 223 1931 242 1946 c 1,27,-1
 342 2018 l 1,28,29
 454 2104 454 2104 480 2104 c 128,-1,30
 506 2104 506 2104 514 2091.5 c 128,-1,31
 522 2079 522 2079 522 2066.5 c 128,-1,32
 522 2054 522 2054 519 2038 c 128,-1,33
 516 2022 516 2022 512 2003 c 0,34,35
 488 1871 488 1871 524 1825.5 c 128,-1,36
 560 1780 560 1780 604.5 1709 c 128,-1,37
 649 1638 649 1638 691.5 1555 c 128,-1,38
 734 1472 734 1472 772 1379 c 128,-1,39
 810 1286 810 1286 838 1188 c 0,40,41
 900 977 900 977 900 831 c 128,-1,42
 900 685 900 685 889.5 594.5 c 128,-1,43
 879 504 879 504 858.5 424 c 128,-1,44
 838 344 838 344 808 271 c 128,-1,45
 778 198 778 198 738 125 c 0,46,47
 684 24 684 24 544 -187 c 1,48,49
 520 -220 520 -220 520 -314 c 1,50,-1
 523 -388 l 1,0,1
EndSplineSet
EndChar

StartChar: asterisk
Encoding: 42 42 35
Width: 1433
GlyphClass: 2
Flags: W
LayerCount: 2
Fore
SplineSet
461 435 m 1,0,-1
 469 353 l 1,1,2
 469 336 469 336 460 326 c 0,3,4
 440 302 440 302 409 336 c 0,5,6
 345 407 345 407 255 430 c 0,7,8
 205 442 205 442 205 480 c 0,9,10
 205 501 205 501 223.5 510.5 c 128,-1,11
 242 520 242 520 270 526 c 0,12,13
 358 546 358 546 382.5 563.5 c 128,-1,14
 407 581 407 581 434 600 c 128,-1,15
 461 619 461 619 494 642 c 2,16,-1
 645 748 l 1,17,18
 546 819 546 819 471.5 862 c 128,-1,19
 397 905 397 905 392 907 c 1,20,-1
 391 908 l 1,21,22
 368 918 368 918 335 918 c 1,23,-1
 217 904 l 1,24,25
 175 904 175 904 175 935 c 0,26,27
 175 956 175 956 211.5 989 c 128,-1,28
 248 1022 248 1022 276.5 1058 c 128,-1,29
 305 1094 305 1094 326 1122 c 0,30,31
 396 1218 396 1218 428 1172 c 0,32,33
 445 1149 445 1149 446.5 1107.5 c 128,-1,34
 448 1066 448 1066 450 1042 c 0,35,36
 457 984 457 984 483 968 c 128,-1,37
 509 952 509 952 537.5 928.5 c 128,-1,38
 566 905 566 905 594 880 c 0,39,40
 669 813 669 813 697 795 c 1,41,-1
 697 863 l 2,42,43
 697 1022 697 1022 688 1112 c 0,44,45
 685 1142 685 1142 664.5 1167 c 128,-1,46
 644 1192 644 1192 630.5 1206 c 128,-1,47
 617 1220 617 1220 608 1229 c 128,-1,48
 599 1238 599 1238 590 1248 c 0,49,50
 571 1269 571 1269 571 1289 c 0,51,52
 571 1331 571 1331 629 1331 c 1,53,-1
 738 1321 l 1,54,55
 767 1321 767 1321 789.5 1328.5 c 128,-1,56
 812 1336 812 1336 833 1336 c 0,57,58
 883 1336 883 1336 883 1298 c 1,59,60
 881 1280 881 1280 863.5 1254.5 c 128,-1,61
 846 1229 846 1229 830 1205.5 c 128,-1,62
 814 1182 814 1182 803 1164 c 0,63,64
 781 1129 781 1129 780 1120.5 c 128,-1,65
 779 1112 779 1112 776.5 1085 c 128,-1,66
 774 1058 774 1058 771 1017 c 0,67,68
 763 908 763 908 763 836 c 1,69,-1
 936 977 l 1,70,71
 1032 1062 1032 1062 1032 1121 c 1,72,-1
 1022 1215 l 1,73,74
 1022 1258 1022 1258 1058 1258 c 0,75,76
 1082 1258 1082 1258 1100.5 1242 c 128,-1,77
 1119 1226 1119 1226 1139.5 1202.5 c 128,-1,78
 1160 1179 1160 1179 1185.5 1152.5 c 128,-1,79
 1211 1126 1211 1126 1243 1108 c 0,80,81
 1295 1080 1295 1080 1295 1058 c 128,-1,82
 1295 1036 1295 1036 1269 1027.5 c 128,-1,83
 1243 1019 1243 1019 1208 1014 c 0,84,85
 1107 1000 1107 1000 1084 980 c 1,86,-1
 964 894 l 2,87,88
 933 871 933 871 899 846 c 128,-1,89
 865 821 865 821 831 796 c 128,-1,90
 797 771 797 771 768 748 c 1,91,92
 866 686 866 686 936.5 636.5 c 128,-1,93
 1007 587 1007 587 1055.5 561 c 128,-1,94
 1104 535 1104 535 1146.5 529 c 128,-1,95
 1189 523 1189 523 1222 520 c 128,-1,96
 1255 517 1255 517 1270.5 509.5 c 128,-1,97
 1286 502 1286 502 1286 488 c 0,98,99
 1286 460 1286 460 1262.5 439 c 128,-1,100
 1239 418 1239 418 1220.5 404 c 128,-1,101
 1202 390 1202 390 1184 375 c 0,102,103
 1137 337 1137 337 1131 322 c 1,104,-1
 1132 323 l 1,105,106
 1125 304 1125 304 1109 289.5 c 128,-1,107
 1093 275 1093 275 1078 275 c 0,108,109
 1041 275 1041 275 1034 323 c 1,110,-1
 1024 417 l 2,111,112
 1019 465 1019 465 1007 482 c 1,113,-1
 763 665 l 1,114,115
 763 529 763 529 770 455 c 128,-1,116
 777 381 777 381 780.5 367.5 c 128,-1,117
 784 354 784 354 802 330.5 c 128,-1,118
 820 307 820 307 840 286 c 0,119,120
 889 231 889 231 889 213 c 0,121,122
 889 180 889 180 852 180 c 0,123,124
 849 180 849 180 826 188 c 0,125,126
 775 204 775 204 675 204 c 1,127,-1
 614 195 l 1,128,129
 576 195 576 195 576 216 c 0,130,131
 576 230 576 230 615 272 c 128,-1,132
 654 314 654 314 672 334.5 c 128,-1,133
 690 355 690 355 690 379 c 128,-1,134
 690 403 690 403 691 445 c 128,-1,135
 692 487 692 487 692 530 c 2,136,-1
 695 693 l 1,137,138
 595 616 595 616 542 568 c 2,139,-1
 489 521 l 1,140,141
 461 498 461 498 461 435 c 1,0,-1
EndSplineSet
EndChar

StartChar: plus
Encoding: 43 43 36
Width: 1536
GlyphClass: 2
Flags: W
LayerCount: 2
Fore
SplineSet
739 19 m 1,0,-1
 637 15 l 1,1,2
 565 15 565 15 647 97 c 2,3,-1
 672 122 l 2,4,5
 720 170 720 170 720 189 c 2,6,-1
 727 619 l 1,7,-1
 357 618 l 1,8,9
 324 615 324 615 276 560 c 0,10,11
 257 539 257 539 238.5 521.5 c 128,-1,12
 220 504 220 504 198 503 c 1,13,14
 153 503 153 503 163 540 c 0,15,16
 177 595 177 595 177 685 c 1,17,-1
 173 787 l 1,18,19
 173 859 173 859 255 777 c 2,20,-1
 280 752 l 2,21,22
 330 702 330 702 347 702 c 2,23,-1
 728 697 l 1,24,-1
 724 1029 l 1,25,26
 722 1060 722 1060 704 1081.5 c 128,-1,27
 686 1103 686 1103 664.5 1122 c 128,-1,28
 643 1141 643 1141 624.5 1159.5 c 128,-1,29
 606 1178 606 1178 605 1200 c 128,-1,30
 604 1222 604 1222 622 1231 c 128,-1,31
 640 1240 640 1240 692 1240 c 1,32,33
 692 1240 692 1240 767 1238 c 0,34,35
 792 1238 792 1238 811 1243 c 2,36,-1
 842 1251 l 2,37,38
 853 1254 853 1254 866 1255 c 1,39,40
 915 1255 915 1255 918 1219 c 1,41,42
 918 1192 918 1192 884.5 1148.5 c 128,-1,43
 851 1105 851 1105 834.5 1081 c 128,-1,44
 818 1057 818 1057 816 1033 c 1,45,-1
 807 696 l 1,46,-1
 1187 697 l 2,47,48
 1217 698 1217 698 1238.5 717 c 128,-1,49
 1260 736 1260 736 1279 758 c 128,-1,50
 1298 780 1298 780 1317 799 c 128,-1,51
 1336 818 1336 818 1361 820 c 1,52,53
 1399 820 1399 820 1399 768 c 1,54,-1
 1393 665 l 1,55,56
 1393 596 1393 596 1399.5 570 c 128,-1,57
 1406 544 1406 544 1406 537 c 0,58,59
 1406 500 1406 500 1369 496 c 1,60,61
 1348 496 1348 496 1327 512.5 c 128,-1,62
 1306 529 1306 529 1284 550 c 1,63,64
 1222 605 1222 605 1191 608 c 1,65,-1
 806 617 l 1,66,-1
 807 199 l 2,67,68
 807 175 807 175 824.5 155.5 c 128,-1,69
 842 136 842 136 863 117.5 c 128,-1,70
 884 99 884 99 902 80.5 c 128,-1,71
 920 62 920 62 921 40 c 1,72,73
 921 -5 921 -5 884 5 c 0,74,75
 829 19 829 19 739 19 c 1,0,-1
EndSplineSet
EndChar

StartChar: comma
Encoding: 44 44 37
Width: 745
GlyphClass: 2
Flags: W
LayerCount: 2
Fore
SplineSet
570 193 m 0,0,1
 570 177 570 177 558.5 159 c 128,-1,2
 547 141 547 141 532 113.5 c 128,-1,3
 517 86 517 86 498 52 c 128,-1,4
 479 18 479 18 455.5 -19 c 128,-1,5
 432 -56 432 -56 405 -91 c 0,6,7
 270 -266 270 -266 213 -198 c 0,8,9
 198 -179 198 -179 198 -163 c 128,-1,10
 198 -147 198 -147 206.5 -142 c 128,-1,11
 215 -137 215 -137 238.5 -119 c 128,-1,12
 262 -101 262 -101 287 -78 c 0,13,14
 350 -22 350 -22 350 4.5 c 128,-1,15
 350 31 350 31 331.5 51.5 c 128,-1,16
 313 72 313 72 291.5 100 c 128,-1,17
 270 128 270 128 258.5 144 c 128,-1,18
 247 160 247 160 242 170 c 0,19,20
 234 184 234 184 234 196 c 0,21,22
 234 222 234 222 268 222 c 1,23,-1
 385 213 l 1,24,25
 466 213 466 213 493 220 c 1,26,27
 570 243 570 243 570 193 c 0,0,1
EndSplineSet
EndChar

StartChar: hyphen
Encoding: 45 45 38
Width: 1373
GlyphClass: 2
Flags: W
LayerCount: 2
Fore
SplineSet
967 589 m 1,0,-1
 415 595 l 2,1,2
 354 595 354 595 315 553 c 0,3,4
 300 537 300 537 286.5 524 c 128,-1,5
 273 511 273 511 252 511 c 0,6,7
 220 511 220 511 220 554 c 1,8,-1
 235 668 l 1,9,10
 235 668 235 668 230 751 c 1,11,12
 230 771 230 771 239 784.5 c 128,-1,13
 248 798 248 798 260 798 c 0,14,15
 288 798 288 798 315 754 c 0,16,17
 338 717 338 717 382 694 c 0,18,19
 393 688 393 688 399 688 c 2,20,-1
 809 676 l 1,21,22
 906 676 906 676 946.5 680.5 c 128,-1,23
 987 685 987 685 1008 700.5 c 128,-1,24
 1029 716 1029 716 1046.5 733.5 c 128,-1,25
 1064 751 1064 751 1080 765 c 128,-1,26
 1096 779 1096 779 1116 779 c 0,27,28
 1148 779 1148 779 1148 733 c 1,29,-1
 1141 625 l 1,30,-1
 1153 533 l 1,31,32
 1153 495 1153 495 1116 495 c 0,33,34
 1102 495 1102 495 1082 509 c 1,35,36
 1008 581 1008 581 967 589 c 1,0,-1
EndSplineSet
EndChar

StartChar: period
Encoding: 46 46 39
Width: 763
GlyphClass: 2
Flags: W
LayerCount: 2
Fore
SplineSet
506 224 m 1,0,1
 566 224 566 224 566 187 c 0,2,3
 566 160 566 160 527.5 118 c 128,-1,4
 489 76 489 76 465.5 51.5 c 128,-1,5
 442 27 442 27 432 8 c 0,6,7
 385 -74 385 -74 350 0 c 1,8,9
 327 46 327 46 292 88 c 0,10,11
 216 179 216 179 216 198 c 0,12,13
 216 249 216 249 273 238 c 1,14,15
 348 222 348 222 445 222 c 1,16,-1
 506 224 l 1,0,1
EndSplineSet
EndChar

StartChar: slash
Encoding: 47 47 40
Width: 1315
GlyphClass: 2
Flags: W
LayerCount: 2
Fore
SplineSet
303 -304 m 2,0,1
 322 -372 322 -372 274 -372 c 0,2,3
 255 -372 255 -372 237.5 -358 c 128,-1,4
 220 -344 220 -344 199 -332 c 128,-1,5
 178 -320 178 -320 156 -309 c 0,6,7
 124 -294 124 -294 68 -273 c 0,8,9
 41 -263 41 -263 41 -245 c 128,-1,10
 41 -227 41 -227 48 -215 c 128,-1,11
 55 -203 55 -203 75.5 -197.5 c 128,-1,12
 96 -192 96 -192 119 -186 c 0,13,14
 182 -169 182 -169 204 -135 c 0,15,16
 240 -79 240 -79 442.5 359.5 c 128,-1,17
 645 798 645 798 698 912 c 128,-1,18
 751 1026 751 1026 800 1131 c 128,-1,19
 849 1236 849 1236 890 1322 c 0,20,21
 967 1487 967 1487 991 1532 c 0,22,23
 1022 1592 1022 1592 1022 1614.5 c 128,-1,24
 1022 1637 1022 1637 1018.5 1650 c 128,-1,25
 1015 1663 1015 1663 1011 1674 c 0,26,27
 993 1726 993 1726 1006.5 1742 c 128,-1,28
 1020 1758 1020 1758 1038 1758 c 0,29,30
 1060 1758 1060 1758 1099 1731 c 1,31,32
 1147 1687 1147 1687 1183 1673 c 128,-1,33
 1219 1659 1219 1659 1243.5 1646.5 c 128,-1,34
 1268 1634 1268 1634 1268 1616 c 0,35,36
 1268 1578 1268 1578 1202 1574 c 0,37,38
 1153 1571 1153 1571 1116 1542 c 0,39,40
 1106 1534 1106 1534 1100 1522 c 128,-1,41
 1094 1510 1094 1510 1066.5 1454.5 c 128,-1,42
 1039 1399 1039 1399 999.5 1317.5 c 128,-1,43
 960 1236 960 1236 911 1133.5 c 128,-1,44
 862 1031 862 1031 808.5 918 c 128,-1,45
 755 805 755 805 698.5 686.5 c 128,-1,46
 642 568 642 568 588 455 c 128,-1,47
 534 342 534 342 485 238.5 c 128,-1,48
 436 135 436 135 396 52 c 1,49,50
 299 -155 299 -155 290.5 -173 c 128,-1,51
 282 -191 282 -191 282 -210.5 c 128,-1,52
 282 -230 282 -230 286 -246 c 2,53,-1
 303 -304 l 2,0,1
EndSplineSet
EndChar

StartChar: zero
Encoding: 48 48 41
Width: 1248
GlyphClass: 2
Flags: W
LayerCount: 2
Fore
SplineSet
838 -32 m 0,0,1
 723 -122 723 -122 544 -79 c 0,2,3
 422 -49 422 -49 326 64 c 0,4,5
 155 265 155 265 136 733 c 0,6,7
 135 750 135 750 135 766 c 2,8,-1
 135 800 l 2,9,10
 135 1160 135 1160 274 1395 c 0,11,12
 339 1506 339 1506 430 1568.5 c 128,-1,13
 521 1631 521 1631 615.5 1631 c 128,-1,14
 710 1631 710 1631 785 1587.5 c 128,-1,15
 860 1544 860 1544 922 1450 c 0,16,17
 1057 1249 1057 1249 1093 852 c 1,18,19
 1118 594 1118 594 1065 376 c 0,20,21
 996 91 996 91 838 -32 c 0,0,1
595 1511 m 2,22,-1
 550 1515 l 1,23,24
 506 1515 506 1515 438 1445 c 0,25,26
 356 1362 356 1362 316 1255 c 0,27,28
 239 1045 239 1045 239 781 c 0,29,30
 239 217 239 217 494 48 c 0,31,32
 573 -5 573 -5 642 -4 c 128,-1,33
 711 -3 711 -3 773 46 c 128,-1,34
 835 95 835 95 886 187 c 0,35,36
 1027 445 1027 445 994 854 c 1,37,38
 969 1147 969 1147 881 1321 c 0,39,40
 817 1447 817 1447 728 1502 c 0,41,42
 695 1522 695 1522 674 1526 c 2,43,44
 674 1526 674 1526 653 1531 c 1,45,46
 638 1531 638 1531 619.5 1521 c 128,-1,47
 601 1511 601 1511 595 1511 c 2,22,-1
EndSplineSet
EndChar

StartChar: one
Encoding: 49 49 42
Width: 831
GlyphClass: 2
Flags: W
LayerCount: 2
Fore
SplineSet
494 -9 m 1,0,-1
 295 -23 l 1,1,2
 245 -23 245 -23 278 14 c 1,3,4
 366 108 366 108 403 197 c 1,5,6
 410 219 410 219 428 535.5 c 128,-1,7
 446 852 446 852 453 962.5 c 128,-1,8
 460 1073 460 1073 468 1175 c 2,9,-1
 498 1518 l 1,10,11
 498 1540 498 1540 474 1524 c 1,12,-1
 439 1506 l 1,13,-1
 364 1464 l 2,14,15
 273 1414 273 1414 263.5 1410.5 c 128,-1,16
 254 1407 254 1407 237.5 1386.5 c 128,-1,17
 221 1366 221 1366 202 1338 c 1,18,19
 162 1275 162 1275 142.5 1235.5 c 128,-1,20
 123 1196 123 1196 110 1196 c 128,-1,21
 97 1196 97 1196 86 1222.5 c 128,-1,22
 75 1249 75 1249 63 1288 c 0,23,24
 26 1407 26 1407 6 1436 c 128,-1,25
 -14 1465 -14 1465 -14 1475 c 0,26,27
 -14 1499 -14 1499 12 1495 c 1,28,29
 157 1447 157 1447 211 1469 c 1,30,31
 255 1489 255 1489 336.5 1537.5 c 128,-1,32
 418 1586 418 1586 450 1604 c 0,33,34
 524 1646 524 1646 542 1652 c 0,35,36
 597 1673 597 1673 597 1605 c 1,37,-1
 582 1443 l 1,38,39
 542 984 542 984 521 607.5 c 128,-1,40
 500 231 500 231 500 202 c 0,41,42
 500 143 500 143 595 48 c 0,43,44
 619 24 619 24 619 7 c 0,45,46
 619 -17 619 -17 573 -17 c 1,47,-1
 494 -9 l 1,0,-1
EndSplineSet
Substitution2: "'sups' Superscript in Latin lookup 2 subtable" onesuperior
EndChar

StartChar: two
Encoding: 50 50 43
Width: 1351
GlyphClass: 2
Flags: W
LayerCount: 2
Fore
SplineSet
224 -1 m 1,0,1
 160 -1 160 -1 186 52 c 0,2,3
 205 89 205 89 406 354 c 1,4,-1
 742 788 l 1,5,6
 992 1121 992 1121 992 1278 c 0,7,8
 992 1392 992 1392 924 1460 c 0,9,10
 859 1525 859 1525 754 1525 c 0,11,12
 662 1525 662 1525 568 1467 c 0,13,14
 488 1417 488 1417 471 1373 c 0,15,16
 447 1312 447 1312 444 1284 c 128,-1,17
 441 1256 441 1256 440 1221 c 0,18,19
 438 1162 438 1162 421 1162 c 0,20,21
 410 1162 410 1162 397 1177 c 128,-1,22
 384 1192 384 1192 372 1202.5 c 128,-1,23
 360 1213 360 1213 333.5 1233 c 128,-1,24
 307 1253 307 1253 280 1274 c 0,25,26
 214 1328 214 1328 214 1344 c 128,-1,27
 214 1360 214 1360 228 1366 c 128,-1,28
 242 1372 242 1372 264 1376 c 0,29,30
 337 1391 337 1391 359 1406 c 128,-1,31
 381 1421 381 1421 398 1438 c 128,-1,32
 415 1455 415 1455 439.5 1477 c 128,-1,33
 464 1499 464 1499 496 1523 c 128,-1,34
 528 1547 528 1547 568 1568 c 0,35,36
 657 1613 657 1613 736.5 1614 c 128,-1,37
 816 1615 816 1615 876 1600 c 128,-1,38
 936 1585 936 1585 984 1547 c 0,39,40
 1093 1461 1093 1461 1093 1279 c 0,41,42
 1093 1089 1093 1089 847 774 c 0,43,44
 766 670 766 670 683 556 c 128,-1,45
 600 442 600 442 553.5 380 c 128,-1,46
 507 318 507 318 468 266 c 0,47,48
 383 151 383 151 361 129 c 0,49,50
 324 92 324 92 372 92 c 0,51,52
 571 92 571 92 873 58 c 1,53,54
 947 43 947 43 1084 140 c 0,55,56
 1140 180 1140 180 1140 133 c 0,57,58
 1140 108 1140 108 1128 78 c 0,59,60
 1107 22 1107 22 1107 -26 c 1,61,-1
 1116 -115 l 1,62,63
 1116 -159 1116 -159 1070 -139 c 0,64,65
 1058 -134 1058 -134 1049.5 -125.5 c 128,-1,66
 1041 -117 1041 -117 1021 -103 c 128,-1,67
 1001 -89 1001 -89 978 -74 c 0,68,69
 925 -41 925 -41 891 -34.5 c 128,-1,70
 857 -28 857 -28 791 -20.5 c 128,-1,71
 725 -13 725 -13 648 -8 c 0,72,73
 465 4 465 4 351 4 c 1,74,-1
 224 -1 l 1,0,1
EndSplineSet
Substitution2: "'sups' Superscript in Latin lookup 2 subtable" twosuperior
EndChar

StartChar: three
Encoding: 51 51 44
Width: 1367
GlyphClass: 2
Flags: W
LayerCount: 2
Fore
SplineSet
644 994 m 2,0,-1
 712 995 l 1,1,2
 928 995 928 995 1062 882 c 0,3,4
 1213 755 1213 755 1213 525 c 0,5,6
 1213 299 1213 299 1040 152 c 1,7,8
 832 -23 832 -23 568 30 c 0,9,10
 469 50 469 50 422 78 c 128,-1,11
 375 106 375 106 347 123 c 0,12,13
 278 165 278 165 179 181 c 0,14,15
 128 190 128 190 128 219 c 0,16,17
 128 235 128 235 142 250 c 128,-1,18
 156 265 156 265 184 272 c 0,19,20
 225 283 225 283 365 392 c 1,21,22
 387 411 387 411 404 411 c 0,23,24
 441 411 441 411 420 305 c 0,25,26
 409 247 409 247 419 220 c 1,27,28
 419 209 419 209 440 190.5 c 128,-1,29
 461 172 461 172 499 154 c 0,30,31
 591 112 591 112 709 112 c 0,32,33
 774 112 774 112 845 141 c 128,-1,34
 916 170 916 170 974 225 c 0,35,36
 1109 351 1109 351 1109 539 c 0,37,38
 1109 729 1109 729 966 828 c 1,39,40
 847 909 847 909 672 909 c 0,41,42
 631 909 631 909 590 900 c 0,43,44
 514 883 514 883 474.5 883 c 128,-1,45
 435 883 435 883 435 915 c 0,46,47
 435 934 435 934 443.5 948 c 128,-1,48
 452 962 452 962 474 988 c 128,-1,49
 496 1014 496 1014 529 1052 c 0,50,51
 637 1174 637 1174 907 1473 c 1,52,53
 504 1447 504 1447 454 1447 c 128,-1,54
 404 1447 404 1447 390 1438.5 c 128,-1,55
 376 1430 376 1430 362 1416 c 1,56,-1
 303 1349 l 1,57,58
 281 1327 281 1327 263 1327 c 0,59,60
 234 1327 234 1327 234 1374 c 1,61,-1
 236 1463 l 1,62,63
 236 1564 236 1564 229 1591 c 0,64,65
 214 1651 214 1651 243 1651 c 0,66,67
 266 1651 266 1651 293.5 1627.5 c 128,-1,68
 321 1604 321 1604 340 1588 c 0,69,70
 388 1549 388 1549 402 1547 c 128,-1,71
 416 1545 416 1545 438 1545 c 128,-1,72
 460 1545 460 1545 501.5 1546.5 c 128,-1,73
 543 1548 543 1548 594 1550 c 128,-1,74
 645 1552 645 1552 701 1555 c 128,-1,75
 757 1558 757 1558 810 1562 c 2,76,-1
 999 1576 l 1,77,78
 1116 1576 1116 1576 1045 1489 c 0,79,80
 1042 1485 1042 1485 1023 1464 c 2,81,-1
 976 1412 l 1,82,-1
 765 1180 l 1,83,84
 632 1032 632 1032 623 1021 c 128,-1,85
 614 1010 614 1010 614 1002 c 128,-1,86
 614 994 614 994 644 994 c 2,0,-1
EndSplineSet
Substitution2: "'sups' Superscript in Latin lookup 2 subtable" threesuperior
EndChar

StartChar: four
Encoding: 52 52 45
Width: 1360
GlyphClass: 2
Flags: W
LayerCount: 2
Fore
SplineSet
595 -85 m 1,0,1
 548 -85 548 -85 548 -57 c 0,2,3
 548 -26 548 -26 585 0 c 1,4,5
 678 62 678 62 687 133 c 1,6,-1
 709 420 l 2,7,8
 718 536 718 536 728 679 c 1,9,-1
 150 693 l 1,10,11
 84 693 84 693 84 727 c 0,12,13
 84 751 84 751 102 770.5 c 128,-1,14
 120 790 120 790 149.5 826 c 128,-1,15
 179 862 179 862 225 918 c 2,16,-1
 328 1044 l 1,17,18
 754 1562 754 1562 799 1634 c 1,19,20
 835 1689 835 1689 868 1689 c 128,-1,21
 901 1689 901 1689 901 1629 c 128,-1,22
 901 1569 901 1569 837 755 c 1,23,24
 988 748 988 748 1036 748 c 128,-1,25
 1084 748 1084 748 1120.5 767.5 c 128,-1,26
 1157 787 1157 787 1192 816 c 0,27,28
 1257 871 1257 871 1257 821 c 0,29,30
 1257 801 1257 801 1246 759 c 0,31,32
 1225 679 1225 679 1225 628 c 1,33,-1
 1227 577 l 1,34,35
 1227 545 1227 545 1205.5 545 c 128,-1,36
 1184 545 1184 545 1168 561.5 c 128,-1,37
 1152 578 1152 578 1134 599 c 0,38,39
 1084 657 1084 657 1032 666 c 0,40,41
 1002 672 1002 672 917 672 c 2,42,-1
 825 672 l 1,43,44
 791 237 791 237 791 168 c 128,-1,45
 791 99 791 99 795 80.5 c 128,-1,46
 799 62 799 62 808 48 c 1,47,-1
 871 -21 l 1,48,49
 891 -45 891 -45 891 -61 c 0,50,51
 891 -91 891 -91 839 -91 c 0,52,53
 826 -91 826 -91 814.5 -88.5 c 128,-1,54
 803 -86 803 -86 792 -84 c 0,55,56
 757 -76 757 -76 741 -76 c 2,57,-1
 595 -85 l 1,0,1
731 761 m 1,58,-1
 796 1467 l 1,59,-1
 233 761 l 1,60,-1
 731 761 l 1,58,-1
EndSplineSet
EndChar

StartChar: five
Encoding: 53 53 46
Width: 1334
GlyphClass: 2
Flags: W
LayerCount: 2
Fore
SplineSet
141 207 m 1,0,1
 47 207 47 207 47 242 c 0,2,3
 47 265 47 265 74.5 279 c 128,-1,4
 102 293 102 293 130 313.5 c 128,-1,5
 158 334 158 334 184 358 c 0,6,7
 237 407 237 407 253 438.5 c 128,-1,8
 269 470 269 470 284.5 470 c 128,-1,9
 300 470 300 470 312 456 c 128,-1,10
 324 442 324 442 324 422 c 1,11,-1
 300 272 l 1,12,13
 305 267 305 267 318.5 250.5 c 128,-1,14
 332 234 332 234 355.5 213 c 128,-1,15
 379 192 379 192 411 169 c 128,-1,16
 443 146 443 146 484 126 c 0,17,18
 576 82 576 82 668.5 82 c 128,-1,19
 761 82 761 82 834.5 110 c 128,-1,20
 908 138 908 138 964 190 c 0,21,22
 1087 304 1087 304 1087 482 c 0,23,24
 1087 773 1087 773 878 856 c 0,25,26
 807 884 807 884 728.5 884 c 128,-1,27
 650 884 650 884 603 875.5 c 128,-1,28
 556 867 556 867 520.5 854 c 128,-1,29
 485 841 485 841 459 825.5 c 128,-1,30
 433 810 433 810 413 797 c 0,31,32
 335 746 335 746 294 787 c 0,33,34
 274 807 274 807 274 837 c 1,35,-1
 282 905 l 1,36,37
 287 1035 287 1035 287 1114 c 2,38,-1
 287 1239 l 2,39,40
 287 1390 287 1390 284 1440 c 1,41,-1
 282 1500 l 1,42,43
 279 1558 279 1558 292 1567 c 1,44,45
 311 1578 311 1578 358 1578 c 0,46,47
 431 1577 431 1577 485 1577 c 0,48,49
 852 1574 852 1574 887.5 1574 c 128,-1,50
 923 1574 923 1574 956 1598 c 128,-1,51
 989 1622 989 1622 1020 1654.5 c 128,-1,52
 1051 1687 1051 1687 1067.5 1687 c 128,-1,53
 1084 1687 1084 1687 1084 1643 c 1,54,-1
 1079 1579 l 1,55,56
 1079 1546 1079 1546 1087 1508 c 0,57,58
 1111 1398 1111 1398 1073 1398 c 0,59,60
 1045 1398 1045 1398 1024 1426.5 c 128,-1,61
 1003 1455 1003 1455 966 1472 c 128,-1,62
 929 1489 929 1489 891 1489 c 2,63,-1
 623 1489 l 2,64,65
 517 1489 517 1489 387 1490 c 1,66,67
 377 1043 377 1043 377 962.5 c 128,-1,68
 377 882 377 882 391 882 c 0,69,70
 398 882 398 882 424.5 899 c 128,-1,71
 451 916 451 916 472.5 927 c 128,-1,72
 494 938 494 938 529 949 c 0,73,74
 715 1007 715 1007 890 950 c 0,75,76
 1067 892 1067 892 1144 714 c 0,77,78
 1184 621 1184 621 1184 495.5 c 128,-1,79
 1184 370 1184 370 1141 278 c 128,-1,80
 1098 186 1098 186 1026 123 c 0,81,82
 879 -6 879 -6 664 -6 c 0,83,84
 503 -6 503 -6 366 86 c 0,85,86
 313 121 313 121 279.5 153.5 c 128,-1,87
 246 186 246 186 232 194 c 1,88,89
 211 208 211 208 181 208 c 2,90,-1
 141 207 l 1,0,1
EndSplineSet
EndChar

StartChar: six
Encoding: 54 54 47
Width: 1177
GlyphClass: 2
Flags: W
LayerCount: 2
Fore
SplineSet
282 412 m 0,0,1
 284 412 284 412 293 453.5 c 128,-1,2
 302 495 302 495 334.5 546.5 c 128,-1,3
 367 598 367 598 415 634 c 0,4,5
 513 706 513 706 664 706 c 0,6,7
 796 706 796 706 901 608 c 0,8,9
 1017 500 1017 500 1017 333 c 0,10,11
 1017 133 1017 133 878 30 c 1,12,13
 734 -75 734 -75 551 -41 c 0,14,15
 444 -21 444 -21 348 64 c 0,16,17
 238 162 238 162 190 356 c 0,18,19
 165 458 165 458 165 619 c 128,-1,20
 165 780 165 780 210.5 927.5 c 128,-1,21
 256 1075 256 1075 330 1193 c 0,22,23
 454 1392 454 1392 679 1562 c 0,24,25
 732 1603 732 1603 746 1622 c 0,26,27
 772 1657 772 1657 780 1694 c 0,28,29
 795 1768 795 1768 821 1768 c 0,30,31
 832 1768 832 1768 844.5 1751 c 128,-1,32
 857 1734 857 1734 861 1701 c 128,-1,33
 865 1668 865 1668 874 1644.5 c 128,-1,34
 883 1621 883 1621 895 1600 c 0,35,36
 903 1586 903 1586 932.5 1540 c 128,-1,37
 962 1494 962 1494 962 1478 c 0,38,39
 962 1458 962 1458 924 1464 c 0,40,41
 915 1466 915 1466 901.5 1475 c 128,-1,42
 888 1484 888 1484 874.5 1490.5 c 128,-1,43
 861 1497 861 1497 848 1500 c 0,44,45
 795 1515 795 1515 766.5 1503.5 c 128,-1,46
 738 1492 738 1492 722 1481 c 0,47,48
 406 1270 406 1270 304 874 c 0,49,50
 269 741 269 741 269 576.5 c 128,-1,51
 269 412 269 412 282 412 c 0,0,1
382 455 m 0,52,53
 355 397 355 397 355 331 c 128,-1,54
 355 265 355 265 369 226.5 c 128,-1,55
 383 188 383 188 405.5 158 c 128,-1,56
 428 128 428 128 457.5 106 c 128,-1,57
 487 84 487 84 518 70 c 0,58,59
 664 0 664 0 808 96 c 0,60,61
 913 166 913 166 913 305 c 0,62,63
 913 447 913 447 826 536 c 0,64,65
 718 645 718 645 546 598 c 0,66,67
 432 566 432 566 382 455 c 0,52,53
EndSplineSet
EndChar

StartChar: seven
Encoding: 55 55 48
Width: 1154
GlyphClass: 2
Flags: W
LayerCount: 2
Fore
SplineSet
1048 1565 m 2,0,1
 1140 1565 1140 1565 1099 1500 c 1,2,-1
 979 1238 l 1,3,-1
 743 718 l 1,4,-1
 604 410 l 2,5,6
 544 278 544 278 535 251 c 128,-1,7
 526 224 526 224 526 190 c 0,8,9
 526 128 526 128 542 78 c 0,10,11
 562 19 562 19 562 -1 c 0,12,13
 562 -34 562 -34 506 -4 c 0,14,15
 334 88 334 88 283 101 c 128,-1,16
 232 114 232 114 223 122 c 128,-1,17
 214 130 214 130 214 140 c 128,-1,18
 214 150 214 150 227 157.5 c 128,-1,19
 240 165 240 165 261 171 c 128,-1,20
 282 177 282 177 308 183.5 c 128,-1,21
 334 190 334 190 360 201 c 0,22,23
 422 227 422 227 447 271 c 1,24,25
 510 397 510 397 996 1483 c 1,26,27
 845 1482 845 1482 718 1482 c 2,28,-1
 385 1482 l 2,29,30
 275 1482 275 1482 185 1399 c 0,31,32
 126 1345 126 1345 126 1390 c 0,33,34
 126 1411 126 1411 131 1442.5 c 128,-1,35
 136 1474 136 1474 136 1528 c 1,36,-1
 130 1672 l 1,37,38
 130 1711 130 1711 148 1711 c 0,39,40
 160 1711 160 1711 186 1684 c 128,-1,41
 212 1657 212 1657 230.5 1638 c 128,-1,42
 249 1619 249 1619 270 1603 c 0,43,44
 320 1565 320 1565 382 1565 c 0,45,46
 486 1566 486 1566 546 1566 c 2,47,-1
 1048 1565 l 2,0,1
EndSplineSet
EndChar

StartChar: eight
Encoding: 56 56 49
Width: 1253
GlyphClass: 2
Flags: W
LayerCount: 2
Fore
SplineSet
150 383 m 0,0,1
 150 469 150 469 170 532.5 c 128,-1,2
 190 596 190 596 221.5 646.5 c 128,-1,3
 253 697 253 697 293 736 c 128,-1,4
 333 775 333 775 373 804 c 0,5,6
 430 846 430 846 510 887 c 0,7,8
 520 892 520 892 520 899.5 c 128,-1,9
 520 907 520 907 496.5 917.5 c 128,-1,10
 473 928 473 928 427 962 c 128,-1,11
 381 996 381 996 338 1047 c 0,12,13
 236 1170 236 1170 236 1310 c 0,14,15
 236 1468 236 1468 347.5 1572 c 128,-1,16
 459 1676 459 1676 628 1676 c 0,17,18
 795 1676 795 1676 900 1584 c 0,19,20
 1011 1487 1011 1487 1011 1311 c 0,21,22
 1011 1132 1011 1132 824 979 c 0,23,24
 766 931 766 931 739 919 c 128,-1,25
 712 907 712 907 712 901 c 128,-1,26
 712 895 712 895 728.5 887 c 128,-1,27
 745 879 745 879 783 863.5 c 128,-1,28
 821 848 821 848 864.5 824 c 128,-1,29
 908 800 908 800 952.5 765.5 c 128,-1,30
 997 731 997 731 1033 681 c 0,31,32
 1115 567 1115 567 1115 408 c 0,33,34
 1115 184 1115 184 947 58 c 0,35,36
 772 -72 772 -72 546 -42 c 0,37,38
 352 -16 352 -16 244 110 c 1,39,40
 150 218 150 218 150 383 c 0,0,1
621 945 m 1,41,42
 709 987 709 987 798 1072 c 0,43,44
 917 1185 917 1185 917 1293 c 0,45,46
 917 1437 917 1437 844.5 1513.5 c 128,-1,47
 772 1590 772 1590 627 1590 c 0,48,49
 425 1590 425 1590 356 1428 c 0,50,51
 333 1373 333 1373 333 1302 c 128,-1,52
 333 1231 333 1231 364 1173.5 c 128,-1,53
 395 1116 395 1116 440 1070 c 0,54,55
 523 984 523 984 621 945 c 1,41,42
270.5 511 m 128,-1,57
 253 455 253 455 253 388 c 128,-1,58
 253 321 253 321 275 260 c 128,-1,59
 297 199 297 199 344 151 c 0,60,61
 448 43 448 43 630 43 c 0,62,63
 809 43 809 43 917 153 c 0,64,65
 1016 254 1016 254 1016 403 c 0,66,67
 1016 604 1016 604 890 700 c 0,68,69
 822 752 822 752 741 784.5 c 128,-1,70
 660 817 660 817 609 840 c 1,71,72
 480 766 480 766 449.5 745 c 128,-1,73
 419 724 419 724 382 690 c 128,-1,74
 345 656 345 656 316.5 611.5 c 128,-1,56
 288 567 288 567 270.5 511 c 128,-1,57
EndSplineSet
EndChar

StartChar: nine
Encoding: 57 57 50
Width: 1256
GlyphClass: 2
Flags: W
LayerCount: 2
Fore
SplineSet
940.5 738 m 128,-1,1
 966 860 966 860 966 944 c 128,-1,2
 966 1028 966 1028 957 1028 c 0,3,4
 950 1028 950 1028 944 1015 c 2,5,-1
 934 994 l 2,6,7
 931 987 931 987 924 972 c 128,-1,8
 917 957 917 957 891 928 c 128,-1,9
 865 899 865 899 828 875 c 0,10,11
 740 819 740 819 643.5 819 c 128,-1,12
 547 819 547 819 471 845.5 c 128,-1,13
 395 872 395 872 341 922 c 0,14,15
 228 1027 228 1027 228 1209 c 0,16,17
 228 1376 228 1376 350 1483 c 0,18,19
 466 1586 466 1586 633 1586 c 0,20,21
 822 1586 822 1586 936 1426 c 0,22,23
 1051 1263 1051 1263 1051 989 c 0,24,25
 1051 475 1051 475 733 190 c 0,26,27
 621 89 621 89 462 22 c 1,28,29
 422 4 422 4 376 -104 c 0,30,31
 344 -179 344 -179 333 -189.5 c 128,-1,32
 322 -200 322 -200 312 -200 c 128,-1,33
 302 -200 302 -200 294 -185.5 c 128,-1,34
 286 -171 286 -171 284.5 -154.5 c 128,-1,35
 283 -138 283 -138 269.5 -106.5 c 128,-1,36
 256 -75 256 -75 236 -38 c 0,37,38
 193 42 193 42 159 86 c 0,39,40
 98 165 98 165 147 165 c 0,41,42
 163 165 163 165 215 139 c 0,43,44
 313 90 313 90 336.5 90 c 128,-1,45
 360 90 360 90 374 93 c 128,-1,46
 388 96 388 96 410 104 c 1,47,48
 438 116 438 116 543 165.5 c 128,-1,49
 648 215 648 215 729 305.5 c 128,-1,50
 810 396 810 396 862.5 506 c 128,-1,0
 915 616 915 616 940.5 738 c 128,-1,1
640 906 m 0,51,52
 703 905 703 905 755.5 933 c 128,-1,53
 808 961 808 961 845 1004 c 0,54,55
 911 1082 911 1082 938 1201 c 1,56,57
 894 1359 894 1359 800 1435 c 0,58,59
 723 1496 723 1496 639.5 1496 c 128,-1,60
 556 1496 556 1496 500.5 1475 c 128,-1,61
 445 1454 445 1454 406 1415 c 0,62,63
 322 1333 322 1333 322 1199 c 0,64,65
 322 1055 322 1055 422 974 c 1,66,67
 508 907 508 907 640 906 c 0,51,52
EndSplineSet
EndChar

StartChar: less
Encoding: 60 60 53
Width: 1506
GlyphClass: 2
Flags: W
LayerCount: 2
Fore
SplineSet
1207 191 m 1,0,1
 1260 191 1260 191 1236 139 c 0,2,3
 1224 113 1224 113 1193 83 c 128,-1,4
 1162 53 1162 53 1144 34 c 0,5,6
 1101 -13 1101 -13 1091 -44.5 c 128,-1,7
 1081 -76 1081 -76 1062.5 -96 c 128,-1,8
 1044 -116 1044 -116 1029 -116 c 0,9,10
 999 -116 999 -116 992 -73.5 c 128,-1,11
 985 -31 985 -31 975.5 0.5 c 128,-1,12
 966 32 966 32 956 54 c 0,13,14
 939 90 939 90 921.5 107.5 c 128,-1,15
 904 125 904 125 857.5 165.5 c 128,-1,16
 811 206 811 206 747.5 259 c 128,-1,17
 684 312 684 312 609.5 374.5 c 128,-1,18
 535 437 535 437 461 500 c 0,19,20
 276 658 276 658 200 729 c 1,21,22
 188 736 188 736 188 756 c 0,23,24
 188 799 188 799 223 820.5 c 128,-1,25
 258 842 258 842 322.5 888.5 c 128,-1,26
 387 935 387 935 460.5 991 c 128,-1,27
 534 1047 534 1047 610 1107.5 c 128,-1,28
 686 1168 686 1168 752 1222 c 0,29,30
 888 1333 888 1333 919 1366 c 128,-1,31
 950 1399 950 1399 957.5 1417 c 128,-1,32
 965 1435 965 1435 970 1456 c 0,33,34
 990 1529 990 1529 988.5 1561.5 c 128,-1,35
 987 1594 987 1594 989 1610 c 0,36,37
 993 1644 993 1644 1032 1644 c 0,38,39
 1057 1644 1057 1644 1119 1570 c 2,40,-1
 1193 1482 l 1,41,42
 1266 1399 1266 1399 1266 1386 c 128,-1,43
 1266 1373 1266 1373 1253 1361.5 c 128,-1,44
 1240 1350 1240 1350 1204 1350 c 0,45,46
 1141 1350 1141 1350 1012 1307 c 0,47,48
 975 1295 975 1295 517 913 c 0,49,50
 403 818 403 818 329 752 c 1,51,52
 578 497 578 497 904 244 c 0,53,54
 947 210 947 210 964 200 c 0,55,56
 992 183 992 183 1067 183 c 1,57,-1
 1207 191 l 1,0,1
EndSplineSet
EndChar

StartChar: equal
Encoding: 61 61 54
Width: 1244
GlyphClass: 2
Flags: W
LayerCount: 2
Fore
SplineSet
911 903 m 1,0,-1
 338 923 l 1,1,2
 306 922 306 922 267.5 886 c 128,-1,3
 229 850 229 850 209.5 834 c 128,-1,4
 190 818 190 818 172 818 c 0,5,6
 139 818 139 818 139 849 c 1,7,-1
 151 918 l 1,8,9
 155 947 155 947 155 976 c 1,10,-1
 142 1093 l 1,11,12
 142 1139 142 1139 170 1139 c 0,13,14
 197 1139 197 1139 243 1088 c 1,15,16
 309 1010 309 1010 332 1010 c 0,17,18
 450 1010 450 1010 569 999.5 c 128,-1,19
 688 989 688 989 771 989 c 128,-1,20
 854 989 854 989 885.5 990 c 128,-1,21
 917 991 917 991 944 999 c 0,22,23
 1002 1016 1002 1016 1049 1081 c 0,24,25
 1054 1088 1054 1088 1068.5 1096 c 128,-1,26
 1083 1104 1083 1104 1094 1104 c 0,27,28
 1130 1104 1130 1104 1130 1057 c 1,29,-1
 1124 981 l 1,30,-1
 1133 840 l 1,31,32
 1133 791 1133 791 1095 791 c 0,33,34
 1074 791 1074 791 1052 807 c 128,-1,35
 1030 823 1030 823 1006 842 c 0,36,37
 941 897 941 897 911 903 c 1,0,-1
911 380 m 1,38,-1
 338 400 l 1,39,40
 306 399 306 399 267.5 363 c 128,-1,41
 229 327 229 327 209.5 311 c 128,-1,42
 190 295 190 295 172 295 c 0,43,44
 139 295 139 295 139 326 c 1,45,-1
 151 396 l 2,46,47
 155 424 155 424 155 453 c 1,48,-1
 142 570 l 1,49,50
 142 616 142 616 170 616 c 0,51,52
 197 616 197 616 243 565 c 1,53,54
 309 487 309 487 332 487 c 0,55,56
 450 487 450 487 569 476.5 c 128,-1,57
 688 466 688 466 771 466 c 128,-1,58
 854 466 854 466 885.5 467 c 128,-1,59
 917 468 917 468 944 476 c 0,60,61
 1002 493 1002 493 1049 558 c 0,62,63
 1054 565 1054 565 1068.5 573 c 128,-1,64
 1083 581 1083 581 1094 581 c 0,65,66
 1130 581 1130 581 1130 534 c 1,67,-1
 1124 458 l 1,68,-1
 1133 317 l 1,69,70
 1133 268 1133 268 1095 268 c 0,71,72
 1074 268 1074 268 1052 284 c 128,-1,73
 1030 300 1030 300 1006 320 c 0,74,75
 941 374 941 374 911 380 c 1,38,-1
EndSplineSet
EndChar

StartChar: question
Encoding: 63 63 56
Width: 1164
GlyphClass: 2
Flags: W
LayerCount: 2
Fore
SplineSet
594 430 m 1,0,-1
 512 425 l 1,1,2
 471 425 471 425 471 444 c 128,-1,3
 471 463 471 463 488.5 477 c 128,-1,4
 506 491 506 491 526 508 c 1,5,6
 582 552 582 552 582 615 c 0,7,8
 582 832 582 832 630 945 c 0,9,10
 667 1031 667 1031 748 1115 c 0,11,12
 781 1149 781 1149 813 1180.5 c 128,-1,13
 845 1212 845 1212 870 1248 c 0,14,15
 928 1329 928 1329 928 1412.5 c 128,-1,16
 928 1496 928 1496 909 1546.5 c 128,-1,17
 890 1597 890 1597 854 1632 c 0,18,19
 780 1702 780 1702 653 1702 c 0,20,21
 455 1702 455 1702 365 1527 c 1,22,23
 334 1469 334 1469 381 1386 c 1,24,25
 405 1341 405 1341 363 1341 c 0,26,27
 344 1341 344 1341 305 1359 c 0,28,29
 224 1396 224 1396 189 1394 c 128,-1,30
 154 1392 154 1392 137 1402 c 128,-1,31
 120 1412 120 1412 120 1426.5 c 128,-1,32
 120 1441 120 1441 135.5 1452 c 128,-1,33
 151 1463 151 1463 172 1476 c 0,34,35
 235 1512 235 1512 257.5 1545.5 c 128,-1,36
 280 1579 280 1579 318.5 1624.5 c 128,-1,37
 357 1670 357 1670 408 1708 c 0,38,39
 565 1825 565 1825 748 1789 c 0,40,41
 832 1772 832 1772 885.5 1730.5 c 128,-1,42
 939 1689 939 1689 966 1650 c 0,43,44
 1027 1564 1027 1564 1027 1443 c 0,45,46
 1027 1263 1027 1263 902 1140 c 0,47,48
 802 1041 802 1041 770.5 1001 c 128,-1,49
 739 961 739 961 723.5 918.5 c 128,-1,50
 708 876 708 876 699.5 831 c 128,-1,51
 691 786 691 786 686 742 c 0,52,53
 667 595 667 595 678.5 571 c 128,-1,54
 690 547 690 547 702 532 c 1,55,-1
 757 472 l 2,56,57
 770 458 770 458 770 444 c 0,58,59
 770 405 770 405 682 424 c 0,60,61
 650 430 650 430 594 430 c 1,0,-1
723 161 m 1,62,63
 777 161 777 161 777 130 c 0,64,65
 777 107 777 107 742.5 65.5 c 128,-1,66
 708 24 708 24 695.5 4.5 c 128,-1,67
 683 -15 683 -15 672 -32 c 0,68,69
 646 -71 646 -71 631.5 -71 c 128,-1,70
 617 -71 617 -71 605 -51 c 128,-1,71
 593 -31 593 -31 573 -7.5 c 128,-1,72
 553 16 553 16 532 40 c 0,73,74
 476 106 476 106 471 114.5 c 128,-1,75
 466 123 466 123 466 135 c 0,76,77
 466 161 466 161 503 161 c 1,78,-1
 587 156 l 1,79,-1
 723 161 l 1,62,63
EndSplineSet
EndChar

StartChar: at
Encoding: 64 64 57
Width: 1963
GlyphClass: 2
Flags: W
LayerCount: 2
Fore
SplineSet
1765 392 m 1,0,1
 1767 422 1767 422 1793 422 c 0,2,3
 1813 422 1813 422 1833.5 390.5 c 128,-1,4
 1854 359 1854 359 1884.5 333 c 128,-1,5
 1915 307 1915 307 1942 286 c 128,-1,6
 1969 265 1969 265 1987.5 247.5 c 128,-1,7
 2006 230 2006 230 2006 213 c 128,-1,8
 2006 196 2006 196 1995 190 c 128,-1,9
 1984 184 1984 184 1966 181.5 c 128,-1,10
 1948 179 1948 179 1925.5 178.5 c 128,-1,11
 1903 178 1903 178 1880 176 c 0,12,13
 1825 170 1825 170 1800 148.5 c 128,-1,14
 1775 127 1775 127 1735 96 c 128,-1,15
 1695 65 1695 65 1640.5 31.5 c 128,-1,16
 1586 -2 1586 -2 1518 -35 c 128,-1,17
 1450 -68 1450 -68 1368 -94 c 0,18,19
 943 -230 943 -230 578 -64 c 0,20,21
 264 78 264 78 165 376 c 0,22,23
 131 479 131 479 131 634 c 128,-1,24
 131 789 131 789 174.5 939.5 c 128,-1,25
 218 1090 218 1090 292.5 1204 c 128,-1,26
 367 1318 367 1318 465.5 1398.5 c 128,-1,27
 564 1479 564 1479 675 1530 c 0,28,29
 889 1627 889 1627 1127 1627 c 0,30,31
 1429 1627 1429 1627 1619 1480 c 0,32,33
 1827 1318 1827 1318 1827 1024 c 0,34,35
 1827 821 1827 821 1732 644 c 0,36,37
 1652 495 1652 495 1526 396 c 0,38,39
 1361 268 1361 268 1248 322 c 0,40,41
 1161 363 1161 363 1161 508 c 0,42,43
 1161 515 1161 515 1162 523 c 1,44,45
 1063 392 1063 392 912 340 c 0,46,47
 807 303 807 303 708 335 c 0,48,49
 606 368 606 368 554 472 c 0,50,51
 526 526 526 526 526 613.5 c 128,-1,52
 526 701 526 701 550.5 778.5 c 128,-1,53
 575 856 575 856 615.5 915.5 c 128,-1,54
 656 975 656 975 709 1017.5 c 128,-1,55
 762 1060 762 1060 820 1087 c 0,56,57
 932 1139 932 1139 1055.5 1139 c 128,-1,58
 1179 1139 1179 1139 1254 1050 c 1,59,60
 1272 1108 1272 1108 1265 1131 c 128,-1,61
 1258 1154 1258 1154 1247.5 1174.5 c 128,-1,62
 1237 1195 1237 1195 1228.5 1211.5 c 128,-1,63
 1220 1228 1220 1228 1216 1238 c 0,64,65
 1207 1257 1207 1257 1207 1265 c 0,66,67
 1207 1311 1207 1311 1264 1286 c 1,68,69
 1332 1254 1332 1254 1454 1248 c 0,70,71
 1512 1245 1512 1245 1512 1210 c 0,72,73
 1512 1188 1512 1188 1490 1172.5 c 128,-1,74
 1468 1157 1468 1157 1440.5 1143 c 128,-1,75
 1413 1129 1413 1129 1387.5 1114.5 c 128,-1,76
 1362 1100 1362 1100 1353 1071 c 128,-1,77
 1344 1042 1344 1042 1332.5 996 c 128,-1,78
 1321 950 1321 950 1310 902.5 c 128,-1,79
 1299 855 1299 855 1289.5 808 c 128,-1,80
 1280 761 1280 761 1272 722 c 2,81,82
 1272 722 1272 722 1250 612 c 0,83,84
 1240 566 1240 566 1246 522.5 c 128,-1,85
 1252 479 1252 479 1262 458 c 0,86,87
 1300 377 1300 377 1409 432 c 0,88,89
 1500 477 1500 477 1584 586 c 0,90,91
 1674 702 1674 702 1713 854 c 0,92,93
 1763 1049 1763 1049 1697 1224 c 0,94,95
 1622 1421 1622 1421 1388 1500 c 0,96,97
 1269 1541 1269 1541 1131 1541 c 128,-1,98
 993 1541 993 1541 885.5 1513.5 c 128,-1,99
 778 1486 778 1486 680 1432 c 128,-1,100
 582 1378 582 1378 498.5 1298.5 c 128,-1,101
 415 1219 415 1219 354 1114 c 0,102,103
 224 892 224 892 224 602 c 0,104,105
 224 355 224 355 360 193 c 0,106,107
 474 57 474 57 668 -12 c 0,108,109
 824 -67 824 -67 962 -67 c 128,-1,110
 1100 -67 1100 -67 1188.5 -51 c 128,-1,111
 1277 -35 1277 -35 1353.5 -9.5 c 128,-1,112
 1430 16 1430 16 1493.5 47.5 c 128,-1,113
 1557 79 1557 79 1608 111 c 0,114,115
 1680 157 1680 157 1753 220 c 1,116,117
 1766 233 1766 233 1766 320 c 1,118,-1
 1765 392 l 1,0,1
641.5 709 m 128,-1,120
 633 662 633 662 633 621.5 c 128,-1,121
 633 581 633 581 642.5 543.5 c 128,-1,122
 652 506 652 506 673 478 c 0,123,124
 718 416 718 416 817 416 c 128,-1,125
 916 416 916 416 1005 481 c 128,-1,126
 1094 546 1094 546 1159 678 c 1,127,128
 1202 844 1202 844 1210 888.5 c 128,-1,129
 1218 933 1218 933 1223 956 c 1,130,131
 1182 1008 1182 1008 1154 1024 c 0,132,133
 1105 1052 1105 1052 1031.5 1052 c 128,-1,134
 958 1052 958 1052 898.5 1031 c 128,-1,135
 839 1010 839 1010 794 975.5 c 128,-1,136
 749 941 749 941 718.5 896 c 128,-1,137
 688 851 688 851 669 803.5 c 128,-1,119
 650 756 650 756 641.5 709 c 128,-1,120
EndSplineSet
EndChar

StartChar: A
Encoding: 65 65 58
Width: 1897
GlyphClass: 2
Flags: W
LayerCount: 2
Fore
SplineSet
400 -76 m 0,0,1
 400 -113 400 -113 360 -113 c 0,2,3
 331 -113 331 -113 308.5 -93 c 128,-1,4
 286 -73 286 -73 248.5 -57 c 128,-1,5
 211 -41 211 -41 174 -26 c 0,6,7
 82 11 82 11 82 31.5 c 128,-1,8
 82 52 82 52 114.5 73.5 c 128,-1,9
 147 95 147 95 171 101.5 c 128,-1,10
 195 108 195 108 217 117 c 0,11,12
 265 137 265 137 306 210 c 1,13,14
 378 347 378 347 557 736 c 1,15,-1
 365 736 l 2,16,17
 330 736 330 736 310.5 732.5 c 128,-1,18
 291 729 291 729 265.5 709 c 128,-1,19
 240 689 240 689 218 667 c 128,-1,20
 196 645 196 645 176.5 627.5 c 128,-1,21
 157 610 157 610 139 610 c 0,22,23
 95 610 95 610 112 681 c 0,24,25
 125 735 125 735 125 806 c 1,26,-1
 120 888 l 1,27,28
 120 963 120 963 158 963 c 0,29,30
 178 963 178 963 202 933 c 0,31,32
 287 823 287 823 332 823 c 2,33,-1
 595 818 l 1,34,35
 891 1465 891 1465 916.5 1551 c 128,-1,36
 942 1637 942 1637 942 1687 c 0,37,38
 942 1701 942 1701 957.5 1708 c 128,-1,39
 973 1715 973 1715 988 1715 c 0,40,41
 1024 1715 1024 1715 1036.5 1675.5 c 128,-1,42
 1049 1636 1049 1636 1079.5 1545 c 128,-1,43
 1110 1454 1110 1454 1150 1336 c 0,44,45
 1265 998 1265 998 1330 814 c 1,46,47
 1521 810 1521 810 1550 825 c 128,-1,48
 1579 840 1579 840 1600 857 c 0,49,50
 1640 888 1640 888 1659.5 916.5 c 128,-1,51
 1679 945 1679 945 1691 949 c 128,-1,52
 1703 953 1703 953 1714 953 c 0,53,54
 1765 953 1765 953 1746 886 c 1,55,56
 1726 820 1726 820 1725 762.5 c 128,-1,57
 1724 705 1724 705 1723 666.5 c 128,-1,58
 1722 628 1722 628 1715.5 605 c 128,-1,59
 1709 582 1709 582 1685 582 c 0,60,61
 1677 582 1677 582 1664.5 589.5 c 128,-1,62
 1652 597 1652 597 1647 609 c 2,63,-1
 1620 668 l 1,64,65
 1592 726 1592 726 1532 736 c 1,66,-1
 1358 736 l 1,67,68
 1557 174 1557 174 1616 120 c 0,69,70
 1635 103 1635 103 1657 95 c 128,-1,71
 1679 87 1679 87 1694.5 80.5 c 128,-1,72
 1710 74 1710 74 1726 69 c 128,-1,73
 1742 64 1742 64 1754 59 c 0,74,75
 1798 40 1798 40 1765 8 c 0,76,77
 1753 -4 1753 -4 1686.5 -28 c 128,-1,78
 1620 -52 1620 -52 1596 -62 c 1,79,-1
 1482 -116 l 1,80,81
 1420 -139 1420 -139 1420 -96 c 0,82,83
 1420 -65 1420 -65 1428 -50 c 128,-1,84
 1436 -35 1436 -35 1444.5 -13 c 128,-1,85
 1453 9 1453 9 1462 35 c 0,86,87
 1488 115 1488 115 1480 145 c 1,88,89
 1443 235 1443 235 1264 736 c 1,90,-1
 658 736 l 1,91,92
 494 384 494 384 350 89 c 1,93,94
 342 68 342 68 356 39 c 1,95,96
 400 -45 400 -45 400 -76 c 0,0,1
695 817 m 1,97,98
 963 813 963 813 1237 813 c 1,99,-1
 1099 1202 l 2,100,101
 1003 1472 1003 1472 993 1499 c 1,102,103
 910 1282 910 1282 695 817 c 1,97,98
EndSplineSet
EndChar

StartChar: B
Encoding: 66 66 59
Width: 1401
GlyphClass: 2
Flags: W
LayerCount: 2
Fore
SplineSet
236 -129 m 1,0,1
 182 -129 182 -129 182 -93 c 0,2,3
 182 -69 182 -69 202.5 -51 c 128,-1,4
 223 -33 223 -33 234 -23.5 c 128,-1,5
 245 -14 245 -14 258 -7.5 c 128,-1,6
 271 -1 271 -1 280 4 c 0,7,8
 301 16 301 16 302 30 c 0,9,10
 337 489 337 489 349 906.5 c 128,-1,11
 361 1324 361 1324 366 1503 c 0,12,13
 366 1534 366 1534 302 1594 c 0,14,15
 284 1611 284 1611 263 1632 c 128,-1,16
 242 1653 242 1653 242 1675 c 0,17,18
 242 1706 242 1706 281 1706 c 1,19,-1
 396 1694 l 1,20,-1
 531 1705 l 1,21,22
 582 1705 582 1705 582 1671 c 0,23,24
 582 1649 582 1649 554 1626.5 c 128,-1,25
 526 1604 526 1604 508.5 1587.5 c 128,-1,26
 491 1571 491 1571 481 1558 c 0,27,28
 463 1535 463 1535 463 1512 c 2,29,-1
 464 1465 l 1,30,31
 464 1387 464 1387 458 1267 c 1,32,33
 576 1447 576 1447 729 1518 c 0,34,35
 792 1548 792 1548 871.5 1548 c 128,-1,36
 951 1548 951 1548 1004.5 1523.5 c 128,-1,37
 1058 1499 1058 1499 1087 1462 c 0,38,39
 1136 1401 1136 1401 1136 1324.5 c 128,-1,40
 1136 1248 1136 1248 1119 1200.5 c 128,-1,41
 1102 1153 1102 1153 1074.5 1112 c 128,-1,42
 1047 1071 1047 1071 1012 1037.5 c 128,-1,43
 977 1004 977 1004 941 978 c 0,44,45
 880 932 880 932 813 903 c 1,46,47
 960 854 960 854 1078 747 c 0,48,49
 1245 597 1245 597 1245 399 c 0,50,51
 1245 226 1245 226 1120 123 c 0,52,53
 1005 28 1005 28 837 28 c 0,54,55
 702 28 702 28 568 104 c 0,56,57
 479 154 479 154 406 231 c 1,58,59
 397 50 397 50 410 16 c 0,60,61
 415 3 415 3 430 -6 c 0,62,63
 476 -34 476 -34 498 -74 c 0,64,65
 505 -86 505 -86 505 -96 c 0,66,67
 505 -130 505 -130 445 -130 c 1,68,-1
 304 -123 l 1,69,-1
 236 -129 l 1,0,1
411 355 m 1,70,71
 542 201 542 201 693 146 c 0,72,73
 814 101 814 101 949 142 c 1,74,75
 1135 197 1135 197 1135 412 c 0,76,77
 1135 518 1135 518 1056 622 c 0,78,79
 946 768 946 768 767 822 c 0,80,81
 714 838 714 838 671.5 838 c 128,-1,82
 629 838 629 838 607 841.5 c 128,-1,83
 585 845 585 845 574 851 c 0,84,85
 555 861 555 861 555 888 c 128,-1,86
 555 915 555 915 572.5 926.5 c 128,-1,87
 590 938 590 938 618.5 942.5 c 128,-1,88
 647 947 647 947 684.5 950.5 c 128,-1,89
 722 954 722 954 766 972.5 c 128,-1,90
 810 991 810 991 859 1027 c 128,-1,91
 908 1063 908 1063 948 1108 c 0,92,93
 1070 1246 1070 1246 1024 1364 c 1,94,95
 985 1461 985 1461 866 1461 c 0,96,97
 691 1461 691 1461 499 1177 c 0,98,99
 472 1137 472 1137 450 1103 c 1,100,-1
 430 722 l 2,101,102
 425 640 425 640 411 355 c 1,70,71
EndSplineSet
EndChar

StartChar: C
Encoding: 67 67 60
Width: 1531
GlyphClass: 2
Flags: W
LayerCount: 2
Fore
SplineSet
1368 -54 m 0,0,1
 1340 -54 1340 -54 1304.5 -24.5 c 128,-1,2
 1269 5 1269 5 1254 14 c 0,3,4
 1222 32 1222 32 1187.5 34 c 128,-1,5
 1153 36 1153 36 1127.5 31 c 128,-1,6
 1102 26 1102 26 1066 20 c 0,7,8
 926 -1 926 -1 838 5 c 0,9,10
 678 16 678 16 603 41 c 128,-1,11
 528 66 528 66 464.5 102.5 c 128,-1,12
 401 139 401 139 340.5 193 c 128,-1,13
 280 247 280 247 234 322 c 1,14,15
 130 487 130 487 130 710 c 0,16,17
 130 1154 130 1154 506 1338 c 0,18,19
 751 1459 751 1459 1139 1465 c 0,20,21
 1200 1465 1200 1465 1256 1512 c 0,22,23
 1272 1526 1272 1526 1282 1542 c 0,24,25
 1304 1576 1304 1576 1340.5 1576 c 128,-1,26
 1377 1576 1377 1576 1377 1542 c 1,27,28
 1377 1542 1377 1542 1362 1480 c 1,29,30
 1341 1381 1341 1381 1341 1298 c 1,31,-1
 1344 1256 l 1,32,33
 1344 1220 1344 1220 1316 1220 c 0,34,35
 1291 1220 1291 1220 1263.5 1260.5 c 128,-1,36
 1236 1301 1236 1301 1206.5 1323 c 128,-1,37
 1177 1345 1177 1345 1144 1356 c 0,38,39
 1100 1370 1100 1370 1000.5 1370 c 128,-1,40
 901 1370 901 1370 806 1352 c 128,-1,41
 711 1334 711 1334 626 1298.5 c 128,-1,42
 541 1263 541 1263 468.5 1210 c 128,-1,43
 396 1157 396 1157 343 1086 c 0,44,45
 230 935 230 935 230 732 c 0,46,47
 230 390 230 390 452 226 c 0,48,49
 633 92 633 92 888 92 c 0,50,51
 1123 92 1123 92 1212 178 c 0,52,53
 1233 199 1233 199 1252 236 c 128,-1,54
 1271 273 1271 273 1300 300 c 128,-1,55
 1329 327 1329 327 1350 327 c 0,56,57
 1385 327 1385 327 1385 269 c 1,58,-1
 1377 170 l 1,59,60
 1377 113 1377 113 1393 29.5 c 128,-1,61
 1409 -54 1409 -54 1368 -54 c 0,0,1
EndSplineSet
EndChar

StartChar: D
Encoding: 68 68 61
Width: 1504
GlyphClass: 2
Flags: W
LayerCount: 2
Fore
SplineSet
155 5 m 0,0,1
 155 23 155 23 167 38 c 128,-1,2
 179 53 179 53 192 71 c 128,-1,3
 205 89 205 89 220 108 c 128,-1,4
 235 127 235 127 247 144 c 0,5,6
 275 185 275 185 275 200 c 1,7,8
 261 392 261 392 247 693 c 0,9,10
 222 1233 222 1233 205 1465 c 0,11,12
 203 1489 203 1489 177 1515 c 1,13,-1
 95 1591 l 1,14,15
 71 1615 71 1615 71 1637 c 0,16,17
 71 1668 71 1668 110 1668 c 1,18,-1
 206 1657 l 1,19,20
 258 1657 258 1657 306 1667 c 0,21,22
 373 1681 373 1681 402.5 1681 c 128,-1,23
 432 1681 432 1681 432 1653 c 0,24,25
 432 1631 432 1631 390 1597 c 0,26,27
 302 1526 302 1526 302 1473 c 1,28,-1
 303 1437 l 1,29,-1
 498 1488 l 1,30,31
 880 1580 880 1580 1145 1432 c 0,32,33
 1289 1351 1289 1351 1354 1185 c 0,34,35
 1388 1098 1388 1098 1388 961 c 128,-1,36
 1388 824 1388 824 1338 706 c 128,-1,37
 1288 588 1288 588 1205.5 500.5 c 128,-1,38
 1123 413 1123 413 1016.5 353 c 128,-1,39
 910 293 910 293 797 255 c 0,40,41
 594 187 594 187 370 172 c 1,42,43
 376 154 376 154 412.5 110.5 c 128,-1,44
 449 67 449 67 463.5 47 c 128,-1,45
 478 27 478 27 478 12 c 0,46,47
 478 -22 478 -22 418 -22 c 1,48,-1
 318 -20 l 2,49,50
 288 -20 288 -20 253 -27 c 0,51,52
 155 -47 155 -47 155 5 c 0,0,1
309 1348 m 1,53,-1
 360 275 l 1,54,-1
 381 275 l 2,55,56
 696 275 696 275 977 456 c 0,57,58
 1169 579 1169 579 1248 758 c 0,59,60
 1288 851 1288 851 1288 972.5 c 128,-1,61
 1288 1094 1288 1094 1245.5 1185.5 c 128,-1,62
 1203 1277 1203 1277 1132 1332 c 0,63,64
 999 1434 999 1434 776 1434 c 128,-1,65
 553 1434 553 1434 309 1348 c 1,53,-1
EndSplineSet
EndChar

StartChar: E
Encoding: 69 69 62
Width: 1289
GlyphClass: 2
Flags: W
LayerCount: 2
Fore
SplineSet
841 693 m 1,0,1
 675 693 675 693 492.5 693 c 128,-1,2
 310 693 310 693 206 680 c 1,3,-1
 206 657 l 1,4,5
 211 399 211 399 330 238 c 0,6,7
 462 59 462 59 740 1 c 0,8,9
 874 -27 874 -27 906 -27 c 128,-1,10
 938 -27 938 -27 965 -13 c 128,-1,11
 992 1 992 1 1014 18 c 128,-1,12
 1036 35 1036 35 1054.5 49 c 128,-1,13
 1073 63 1073 63 1089 63 c 0,14,15
 1118 63 1118 63 1118 30 c 128,-1,16
 1118 -3 1118 -3 1101 -46 c 0,17,18
 1064 -139 1064 -139 1060 -233 c 0,19,20
 1058 -277 1058 -277 1029 -277 c 0,21,22
 990 -277 990 -277 929 -180 c 0,23,24
 893 -124 893 -124 822 -112 c 1,25,26
 246 -30 246 -30 130 428 c 0,27,28
 106 526 106 526 106 666.5 c 128,-1,29
 106 807 106 807 149.5 928.5 c 128,-1,30
 193 1050 193 1050 263 1141.5 c 128,-1,31
 333 1233 333 1233 420 1296.5 c 128,-1,32
 507 1360 507 1360 595 1400 c 0,33,34
 753 1473 753 1473 896 1484 c 1,35,36
 947 1486 947 1486 1001 1562 c 0,37,38
 1054 1635 1054 1635 1086 1635 c 0,39,40
 1136 1635 1136 1635 1118 1568 c 1,41,42
 1104 1512 1104 1512 1128 1369 c 0,43,44
 1134 1332 1134 1332 1123 1317 c 128,-1,45
 1112 1302 1112 1302 1100 1302 c 0,46,47
 1075 1302 1075 1302 1051 1338 c 0,48,49
 1012 1394 1012 1394 929 1394 c 0,50,51
 834 1394 834 1394 766.5 1373.5 c 128,-1,52
 699 1353 699 1353 632.5 1318.5 c 128,-1,53
 566 1284 566 1284 499 1233 c 128,-1,54
 432 1182 432 1182 375 1116 c 0,55,56
 247 966 247 966 216 789 c 1,57,58
 244 787 244 787 276 787 c 2,59,-1
 346 787 l 2,60,61
 524 787 524 787 848 799 c 0,62,63
 867 800 867 800 903 828 c 0,64,65
 1008 908 1008 908 1033 908 c 0,66,67
 1069 908 1069 908 1069 862 c 1,68,-1
 1040 730 l 1,69,70
 1035 700 1035 700 1035 666 c 1,71,-1
 1037 627 l 1,72,73
 1037 577 1037 577 1004 577 c 0,74,75
 984 577 984 577 967.5 594.5 c 128,-1,76
 951 612 951 612 933 634 c 0,77,78
 886 690 886 690 841 693 c 1,0,1
EndSplineSet
EndChar

StartChar: F
Encoding: 70 70 63
Width: 1322
GlyphClass: 2
Flags: W
LayerCount: 2
Fore
SplineSet
240 -6 m 0,0,1
 191 -6 191 -6 189 31 c 1,2,3
 190 49 190 49 201 64.5 c 128,-1,4
 212 80 212 80 232 109 c 0,5,6
 293 200 293 200 293 230 c 1,7,8
 280 406 280 406 271 725 c 0,9,10
 253 1325 253 1325 238 1525 c 0,11,12
 236 1553 236 1553 207.5 1583 c 128,-1,13
 179 1613 179 1613 149 1643 c 128,-1,14
 119 1673 119 1673 119 1695 c 0,15,16
 119 1726 119 1726 158 1726 c 1,17,-1
 254 1717 l 1,18,-1
 410 1736 l 1,19,20
 447 1736 447 1736 447 1708 c 0,21,22
 447 1686 447 1686 414 1658 c 0,23,24
 327 1587 327 1587 336 1502 c 0,25,26
 338 1489 338 1489 338 1476 c 1,27,28
 580 1512 580 1512 988 1600 c 1,29,30
 1051 1639 1051 1639 1101 1711 c 1,31,32
 1127 1742 1127 1742 1146.5 1742 c 128,-1,33
 1166 1742 1166 1742 1175 1731 c 128,-1,34
 1184 1720 1184 1720 1188 1701.5 c 128,-1,35
 1192 1683 1192 1683 1193 1658.5 c 128,-1,36
 1194 1634 1194 1634 1196 1606 c 0,37,38
 1201 1535 1201 1535 1216 1501 c 0,39,40
 1253 1416 1253 1416 1201 1416 c 0,41,42
 1177 1416 1177 1416 1158 1429.5 c 128,-1,43
 1139 1443 1139 1443 1123 1453.5 c 128,-1,44
 1107 1464 1107 1464 1089 1474 c 0,45,46
 1046 1496 1046 1496 1013.5 1495 c 128,-1,47
 981 1494 981 1494 931 1487.5 c 128,-1,48
 881 1481 881 1481 821 1472 c 128,-1,49
 761 1463 761 1463 695.5 1452 c 128,-1,50
 630 1441 630 1441 566 1429 c 0,51,52
 417 1401 417 1401 342 1384 c 1,53,-1
 362 906 l 1,54,55
 738 899 738 899 899 917 c 1,56,57
 965 934 965 934 1034 999 c 1,58,59
 1061 1019 1061 1019 1081 1019 c 0,60,61
 1135 1019 1135 1019 1108 904 c 0,62,63
 1098 865 1098 865 1098 811 c 1,64,-1
 1105 730 l 1,65,66
 1105 707 1105 707 1094 697 c 0,67,68
 1069 674 1069 674 1028 710 c 1,69,70
 989 760 989 760 953.5 783 c 128,-1,71
 918 806 918 806 901 810 c 1,72,73
 898 807 898 807 819 807 c 0,74,75
 452 809 452 809 366 806 c 1,76,77
 387 269 387 269 393 229.5 c 128,-1,78
 399 190 399 190 423 159.5 c 128,-1,79
 447 129 447 129 467 105 c 0,80,81
 502 63 502 63 502 48 c 0,82,83
 502 10 502 10 454 10 c 1,84,-1
 379 15 l 1,85,86
 331 15 331 15 290.5 4.5 c 128,-1,87
 250 -6 250 -6 240 -6 c 0,0,1
EndSplineSet
EndChar

StartChar: G
Encoding: 71 71 64
Width: 1414
GlyphClass: 2
Flags: W
LayerCount: 2
Fore
SplineSet
1241 859 m 0,0,1
 1327 859 1327 859 1299 729 c 1,2,-1
 1229 246 l 1,3,4
 1203 79 1203 79 1191 38.5 c 128,-1,5
 1179 -2 1179 -2 1156 -12.5 c 128,-1,6
 1133 -23 1133 -23 1055 -23 c 128,-1,7
 977 -23 977 -23 855.5 -2.5 c 128,-1,8
 734 18 734 18 623 62 c 128,-1,9
 512 106 512 106 416 174 c 128,-1,10
 320 242 320 242 250 338 c 0,11,12
 99 543 99 543 99 838 c 0,13,14
 99 1102 99 1102 251 1284 c 0,15,16
 378 1436 378 1436 594 1516 c 1,17,18
 773 1584 773 1584 951 1584 c 1,19,-1
 1066 1575 l 1,20,21
 1096 1575 1096 1575 1120 1594 c 0,22,23
 1152 1618 1152 1618 1188.5 1652 c 128,-1,24
 1225 1686 1225 1686 1247 1686 c 0,25,26
 1279 1686 1279 1686 1266 1630 c 1,27,28
 1256 1578 1256 1578 1256 1514 c 1,29,-1
 1262 1406 l 1,30,31
 1262 1350 1262 1350 1237 1350 c 0,32,33
 1218 1350 1218 1350 1187 1388 c 128,-1,34
 1156 1426 1156 1426 1123 1448.5 c 128,-1,35
 1090 1471 1090 1471 1059 1480 c 0,36,37
 973 1507 973 1507 799 1480 c 0,38,39
 624 1452 624 1452 478 1356 c 1,40,41
 312 1249 312 1249 242 1050 c 0,42,43
 206 946 206 946 206 799.5 c 128,-1,44
 206 653 206 653 251.5 537.5 c 128,-1,45
 297 422 297 422 370 340 c 128,-1,46
 443 258 443 258 534.5 206 c 128,-1,47
 626 154 626 154 718 124 c 0,48,49
 921 57 921 57 1079 73 c 1,50,51
 1100 89 1100 89 1125.5 257.5 c 128,-1,52
 1151 426 1151 426 1161 496 c 2,53,-1
 1195 726 l 2,54,55
 1195 730 1195 730 1195 734 c 0,56,57
 1195 777 1195 777 1137 777 c 2,58,-1
 896 777 l 2,59,60
 829 777 829 777 772 728 c 1,61,-1
 719 674 l 1,62,63
 703 662 703 662 687 662 c 128,-1,64
 671 662 671 662 671 679 c 0,65,66
 671 702 671 702 678 738 c 0,67,68
 697 825 697 825 697 898 c 1,69,-1
 692 962 l 1,70,71
 692 1019 692 1019 719 1019 c 0,72,73
 738 1019 738 1019 767 985 c 128,-1,74
 796 951 796 951 815.5 930 c 128,-1,75
 835 909 835 909 852 896 c 0,76,77
 883 873 883 873 908 870 c 128,-1,78
 933 867 933 867 958.5 866 c 128,-1,79
 984 865 984 865 1015.5 864 c 128,-1,80
 1047 863 1047 863 1081.5 862 c 128,-1,81
 1116 861 1116 861 1147 860 c 0,82,83
 1240 859 1240 859 1241 859 c 0,0,1
EndSplineSet
EndChar

StartChar: H
Encoding: 72 72 65
Width: 1709
GlyphClass: 2
Flags: W
LayerCount: 2
Fore
SplineSet
108 35 m 0,0,1
 108 53 108 53 120 68 c 128,-1,2
 132 83 132 83 152 111 c 128,-1,3
 172 139 172 139 194.5 169.5 c 128,-1,4
 217 200 217 200 218 220 c 2,5,-1
 243 1213 l 2,6,7
 248 1380 248 1380 256 1530 c 1,8,9
 256 1553 256 1553 230 1577 c 2,10,-1
 148 1651 l 1,11,12
 124 1675 124 1675 124 1697 c 0,13,14
 124 1728 124 1728 163 1728 c 1,15,-1
 259 1717 l 1,16,17
 312 1717 312 1717 359 1727 c 0,18,19
 426 1741 426 1741 455.5 1741 c 128,-1,20
 485 1741 485 1741 485 1713 c 0,21,22
 485 1691 485 1691 456.5 1668 c 128,-1,23
 428 1645 428 1645 408 1621.5 c 128,-1,24
 388 1598 388 1598 375 1576 c 0,25,26
 350 1534 350 1534 350 1507 c 0,27,28
 350 1432 350 1432 334 936 c 1,29,30
 791 918 791 918 1364 944 c 1,31,32
 1364 1364 1364 1364 1376 1578 c 1,33,34
 1376 1602 1376 1602 1350 1626 c 2,35,-1
 1268 1700 l 1,36,37
 1244 1724 1244 1724 1244 1746 c 0,38,39
 1244 1777 1244 1777 1283 1777 c 1,40,-1
 1379 1766 l 1,41,42
 1432 1766 1432 1766 1479 1776 c 0,43,44
 1546 1790 1546 1790 1575.5 1790 c 128,-1,45
 1605 1790 1605 1790 1605 1762 c 0,46,47
 1605 1740 1605 1740 1576.5 1717 c 128,-1,48
 1548 1694 1548 1694 1528 1670 c 128,-1,49
 1508 1646 1508 1646 1495 1624 c 0,50,51
 1470 1583 1470 1583 1469.5 1549.5 c 128,-1,52
 1469 1516 1469 1516 1468 1436.5 c 128,-1,53
 1467 1357 1467 1357 1465.5 1253 c 128,-1,54
 1464 1149 1464 1149 1462.5 1030 c 128,-1,55
 1461 911 1461 911 1460 794 c 0,56,57
 1453 292 1453 292 1459.5 250.5 c 128,-1,58
 1466 209 1466 209 1472.5 196 c 128,-1,59
 1479 183 1479 183 1489 172 c 2,60,-1
 1548 107 l 1,61,62
 1571 77 1571 77 1571 61 c 0,63,64
 1571 27 1571 27 1511 27 c 1,65,-1
 1411 29 l 2,66,67
 1381 29 1381 29 1346 22 c 0,68,69
 1248 2 1248 2 1248 54 c 0,70,71
 1248 72 1248 72 1260 87 c 128,-1,72
 1272 102 1272 102 1292 130 c 2,73,-1
 1334 190 l 1,74,75
 1357 221 1357 221 1358 241 c 0,76,77
 1361 336 1361 336 1364 854 c 1,78,79
 585 827 585 827 331 843 c 1,80,81
 311 258 311 258 319.5 221 c 128,-1,82
 328 184 328 184 339.5 166.5 c 128,-1,83
 351 149 351 149 368 132.5 c 128,-1,84
 385 116 385 116 402 96 c 0,85,86
 472 8 472 8 371 8 c 1,87,-1
 271 10 l 2,88,89
 241 10 241 10 206 3 c 0,90,91
 108 -17 108 -17 108 35 c 0,0,1
EndSplineSet
EndChar

StartChar: I
Encoding: 73 73 66
Width: 696
GlyphClass: 2
Flags: W
LayerCount: 2
Fore
SplineSet
302 1 m 1,0,-1
 229 -9 l 1,1,2
 174 -9 174 -9 174 33 c 1,3,4
 176 50 176 50 188.5 65 c 128,-1,5
 201 80 201 80 214 96.5 c 128,-1,6
 227 113 227 113 243.5 131.5 c 128,-1,7
 260 150 260 150 273 166 c 0,8,9
 303 205 303 205 303 222 c 2,10,-1
 307 918 l 1,11,12
 307 1157 307 1157 302 1345 c 0,13,14
 302 1376 302 1376 234 1440 c 0,15,16
 176 1495 176 1495 176 1524 c 0,17,18
 176 1567 176 1567 262 1545 c 0,19,20
 334 1527 334 1527 402.5 1539.5 c 128,-1,21
 471 1552 471 1552 504.5 1552 c 128,-1,22
 538 1552 538 1552 538 1524 c 0,23,24
 538 1503 538 1503 503.5 1476.5 c 128,-1,25
 469 1450 469 1450 447.5 1428 c 128,-1,26
 426 1406 426 1406 415 1388 c 0,27,28
 399 1362 399 1362 399 1325 c 2,29,-1
 403 836 l 1,30,-1
 393 266 l 1,31,-1
 393 236 l 2,32,33
 393 222 393 222 394.5 198 c 128,-1,34
 396 174 396 174 421.5 142 c 128,-1,35
 447 110 447 110 466 84 c 0,36,37
 497 42 497 42 497 24 c 0,38,39
 497 -8 497 -8 443 -8 c 1,40,-1
 302 1 l 1,0,-1
EndSplineSet
EndChar

StartChar: J
Encoding: 74 74 67
Width: 1030
GlyphClass: 2
Flags: W
LayerCount: 2
Fore
SplineSet
902 1614 m 1,0,1
 966 1614 966 1614 896 1541 c 1,2,-1
 813 1460 l 1,3,4
 792 1437 792 1437 790 1413 c 1,5,-1
 774 624 l 1,6,7
 771 526 771 526 765 426 c 128,-1,8
 759 326 759 326 731.5 246 c 128,-1,9
 704 166 704 166 652 104 c 0,10,11
 555 -13 555 -13 341 -94 c 0,12,13
 312 -105 312 -105 275 -149 c 128,-1,14
 238 -193 238 -193 228.5 -207.5 c 128,-1,15
 219 -222 219 -222 210 -236.5 c 128,-1,16
 201 -251 201 -251 191 -264 c 0,17,18
 140 -331 140 -331 129 -253 c 1,19,20
 114 -165 114 -165 97.5 -126.5 c 128,-1,21
 81 -88 81 -88 73.5 -71.5 c 128,-1,22
 66 -55 66 -55 58.5 -39 c 128,-1,23
 51 -23 51 -23 44 -8 c 0,24,25
 7 67 7 67 47 67 c 0,26,27
 65 67 65 67 102 53 c 128,-1,28
 139 39 139 39 169.5 28.5 c 128,-1,29
 200 18 200 18 222 12 c 0,30,31
 301 -10 301 -10 359.5 10 c 128,-1,32
 418 30 418 30 456 54 c 0,33,34
 633 164 633 164 664 372 c 0,35,36
 676 457 676 457 683.5 758.5 c 128,-1,37
 691 1060 691 1060 693 1136 c 2,38,-1
 698 1354 l 1,39,-1
 699 1377 l 1,40,41
 699 1427 699 1427 687.5 1440.5 c 128,-1,42
 676 1454 676 1454 659.5 1470.5 c 128,-1,43
 643 1487 643 1487 625 1504 c 0,44,45
 582 1545 582 1545 571 1552 c 0,46,47
 556 1562 556 1562 556 1596 c 256,48,49
 556 1630 556 1630 584 1630 c 1,50,-1
 709 1610 l 2,51,52
 726 1608 726 1608 742 1608 c 2,53,-1
 772 1608 l 1,54,-1
 902 1614 l 1,0,1
EndSplineSet
EndChar

StartChar: K
Encoding: 75 75 68
Width: 1475
GlyphClass: 2
Flags: W
LayerCount: 2
Fore
SplineSet
183 -102 m 0,0,1
 130 -102 130 -102 130 -63 c 0,2,3
 130 -34 130 -34 176 14 c 128,-1,4
 222 62 222 62 243 87 c 128,-1,5
 264 112 264 112 266 132 c 0,6,7
 332 984 332 984 320 1433 c 0,8,9
 320 1466 320 1466 248 1533 c 0,10,11
 228 1551 228 1551 207 1572 c 128,-1,12
 186 1593 186 1593 186 1615 c 0,13,14
 186 1646 186 1646 225 1646 c 1,15,-1
 351 1635 l 1,16,17
 408 1635 408 1635 445 1640 c 128,-1,18
 482 1645 482 1645 505 1645 c 0,19,20
 556 1645 556 1645 556 1611 c 0,21,22
 556 1589 556 1589 514 1555 c 0,23,24
 417 1476 417 1476 417 1441 c 2,25,-1
 418 1349 l 1,26,27
 418 1084 418 1084 405 863 c 2,28,-1
 400 781 l 1,29,30
 557 910 557 910 748 1091 c 0,31,32
 987 1319 987 1319 1074 1408 c 1,33,34
 1095 1444 1095 1444 1106 1554 c 1,35,36
 1115 1609 1115 1609 1149 1609 c 0,37,38
 1170 1609 1170 1609 1185.5 1590 c 128,-1,39
 1201 1571 1201 1571 1218 1543 c 0,40,41
 1270 1458 1270 1458 1303 1433 c 0,42,43
 1374 1378 1374 1378 1346 1352 c 0,44,45
 1330 1338 1330 1338 1284 1338 c 1,46,47
 1187 1354 1187 1354 1138 1324 c 1,48,-1
 1137 1324 l 1,49,50
 1093 1298 1093 1298 801.5 1028.5 c 128,-1,51
 510 759 510 759 475 727 c 1,52,53
 793 450 793 450 1165 166 c 1,54,55
 1213 148 1213 148 1269 145.5 c 128,-1,56
 1325 143 1325 143 1363.5 140 c 128,-1,57
 1402 137 1402 137 1418.5 130 c 128,-1,58
 1435 123 1435 123 1435 106.5 c 128,-1,59
 1435 90 1435 90 1429 80 c 128,-1,60
 1423 70 1423 70 1413 62 c 2,61,-1
 1369 31 l 1,62,63
 1328 -6 1328 -6 1299 -58 c 128,-1,64
 1270 -110 1270 -110 1257.5 -126 c 128,-1,65
 1245 -142 1245 -142 1227 -142 c 0,66,67
 1192 -142 1192 -142 1182 -94 c 0,68,69
 1169 -33 1169 -33 1141.5 28 c 128,-1,70
 1114 89 1114 89 1107 97 c 1,71,-1
 1076 122 l 1,72,73
 592 514 592 514 415 671 c 1,74,-1
 392 649 l 1,75,76
 365 276 365 276 365 217.5 c 128,-1,77
 365 159 365 159 369 133.5 c 128,-1,78
 373 108 373 108 383 83 c 0,79,80
 404 32 404 32 430 -1 c 0,81,82
 469 -49 469 -49 469 -66 c 0,83,84
 469 -100 469 -100 409 -100 c 1,85,-1
 257 -91 l 1,86,87
 231 -91 231 -91 219 -95 c 0,88,89
 198 -102 198 -102 183 -102 c 0,0,1
EndSplineSet
EndChar

StartChar: L
Encoding: 76 76 69
Width: 1243
GlyphClass: 2
Flags: W
LayerCount: 2
Fore
SplineSet
188 -70 m 0,0,1
 107 -70 107 -70 107 -33 c 0,2,3
 107 -15 107 -15 121 0.5 c 128,-1,4
 135 16 135 16 149 32.5 c 128,-1,5
 163 49 163 49 181 65 c 128,-1,6
 199 81 199 81 214 96 c 0,7,8
 251 130 251 130 251 144 c 0,9,10
 251 351 251 351 266 611 c 0,11,12
 293 1104 293 1104 293 1311 c 0,13,14
 293 1344 293 1344 230 1408 c 1,15,16
 174 1463 174 1463 174 1492 c 0,17,18
 174 1532 174 1532 234 1519 c 2,19,-1
 299 1505 l 1,20,21
 349 1496 349 1496 406.5 1504 c 128,-1,22
 464 1512 464 1512 487 1512 c 0,23,24
 536 1512 536 1512 536 1483 c 0,25,26
 536 1465 536 1465 504 1439 c 1,27,28
 422 1384 422 1384 392 1312 c 1,29,30
 386 1295 386 1295 380.5 1078.5 c 128,-1,31
 375 862 375 862 370 704 c 2,32,-1
 351 174 l 1,33,34
 539 123 539 123 949 86 c 1,35,36
 999 86 999 86 1074 155 c 0,37,38
 1093 173 1093 173 1111 173 c 0,39,40
 1150 173 1150 173 1150 127 c 1,41,-1
 1118 -8 l 1,42,43
 1112 -38 1112 -38 1112 -72 c 1,44,-1
 1114 -108 l 1,45,46
 1114 -159 1114 -159 1080 -159 c 0,47,48
 1061 -159 1061 -159 1044.5 -140.5 c 128,-1,49
 1028 -122 1028 -122 1010 -98 c 0,50,51
 961 -33 961 -33 922.5 -22.5 c 128,-1,52
 884 -12 884 -12 838.5 -2.5 c 128,-1,53
 793 7 793 7 741.5 16 c 128,-1,54
 690 25 690 25 636.5 33.5 c 128,-1,55
 583 42 583 42 532 49 c 2,56,-1
 357 73 l 1,57,58
 368 7 368 7 388 -23 c 0,59,60
 420 -73 420 -73 420 -87 c 0,61,62
 420 -126 420 -126 346 -117 c 0,63,64
 322 -114 322 -114 281 -99 c 0,65,66
 206 -70 206 -70 188 -70 c 0,0,1
EndSplineSet
EndChar

StartChar: M
Encoding: 77 77 70
Width: 1920
GlyphClass: 2
Flags: W
LayerCount: 2
Fore
SplineSet
191 33 m 1,0,-1
 145 27 l 1,1,2
 124 27 124 27 106 37 c 128,-1,3
 88 47 88 47 89 69 c 128,-1,4
 90 91 90 91 113 115 c 128,-1,5
 136 139 136 139 163 163 c 128,-1,6
 190 187 190 187 213.5 210 c 128,-1,7
 237 233 237 233 240 253 c 2,8,-1
 360 1053 l 1,9,10
 396 1254 396 1254 397.5 1288.5 c 128,-1,11
 399 1323 399 1323 388 1337 c 128,-1,12
 377 1351 377 1351 360.5 1365.5 c 128,-1,13
 344 1380 344 1380 324.5 1395 c 128,-1,14
 305 1410 305 1410 288 1425 c 0,15,16
 250 1460 250 1460 250 1484 c 0,17,18
 250 1515 250 1515 294 1515 c 1,19,-1
 358 1511 l 1,20,21
 441 1511 441 1511 501 1524 c 128,-1,22
 561 1537 561 1537 578 1537 c 0,23,24
 617 1537 617 1537 619 1506 c 0,25,26
 621 1485 621 1485 586 1452 c 0,27,28
 515 1385 515 1385 498 1342 c 1,29,-1
 640 982 l 1,30,-1
 819 524 l 2,31,32
 869 396 869 396 887 341.5 c 128,-1,33
 905 287 905 287 918.5 287 c 128,-1,34
 932 287 932 287 941 309.5 c 128,-1,35
 950 332 950 332 967.5 370 c 128,-1,36
 985 408 985 408 1012 465.5 c 128,-1,37
 1039 523 1039 523 1073.5 596.5 c 128,-1,38
 1108 670 1108 670 1146 750 c 128,-1,39
 1184 830 1184 830 1223 912 c 128,-1,40
 1262 994 1262 994 1298 1070 c 0,41,42
 1406 1299 1406 1299 1414 1317 c 1,43,44
 1404 1339 1404 1339 1370.5 1380.5 c 128,-1,45
 1337 1422 1337 1422 1324.5 1440.5 c 128,-1,46
 1312 1459 1312 1459 1312 1474 c 0,47,48
 1312 1504 1312 1504 1358 1504 c 1,49,-1
 1447 1498 l 1,50,-1
 1611 1511 l 1,51,52
 1653 1511 1653 1511 1653 1484 c 0,53,54
 1653 1461 1653 1461 1638.5 1447.5 c 128,-1,55
 1624 1434 1624 1434 1607.5 1412.5 c 128,-1,56
 1591 1391 1591 1391 1573 1364 c 0,57,58
 1526 1296 1526 1296 1521 1278 c 1,59,60
 1522 1267 1522 1267 1528 1219 c 2,61,-1
 1543 1099 l 2,62,63
 1643 301 1643 301 1665 234 c 1,64,65
 1676 196 1676 196 1750 140 c 1,66,67
 1776 119 1776 119 1797 100.5 c 128,-1,68
 1818 82 1818 82 1818 67.5 c 128,-1,69
 1818 53 1818 53 1810.5 45.5 c 128,-1,70
 1803 38 1803 38 1790 34 c 0,71,72
 1765 26 1765 26 1733.5 23.5 c 128,-1,73
 1702 21 1702 21 1670 11.5 c 128,-1,74
 1638 2 1638 2 1608 -8 c 0,75,76
 1534 -35 1534 -35 1516 -35 c 0,77,78
 1487 -35 1487 -35 1487 -7 c 0,79,80
 1487 12 1487 12 1496 25.5 c 128,-1,81
 1505 39 1505 39 1516 63.5 c 128,-1,82
 1527 88 1527 88 1538 118 c 0,83,84
 1568 196 1568 196 1569 212 c 128,-1,85
 1570 228 1570 228 1565.5 263.5 c 128,-1,86
 1561 299 1561 299 1554 346 c 2,87,-1
 1516 599 l 1,88,-1
 1486 812 l 1,89,-1
 1437 1177 l 1,90,-1
 1254 793 l 1,91,92
 1006 268 1006 268 994 234.5 c 128,-1,93
 982 201 982 201 973.5 177 c 128,-1,94
 965 153 965 153 956 136 c 0,95,96
 936 99 936 99 912 99 c 256,97,98
 888 99 888 99 879 122 c 2,99,-1
 844 216 l 1,100,101
 805 302 805 302 669 655 c 2,102,-1
 469 1173 l 1,103,-1
 405 730 l 1,104,105
 341 327 341 327 341 253 c 0,106,107
 341 184 341 184 406 87 c 1,108,109
 454 9 454 9 379 9 c 1,110,-1
 246 29 l 2,111,112
 215 33 215 33 191 33 c 1,0,-1
EndSplineSet
EndChar

StartChar: N
Encoding: 78 78 71
Width: 1722
GlyphClass: 2
Flags: W
LayerCount: 2
Fore
SplineSet
402 22 m 0,0,1
 402 -18 402 -18 309 1 c 0,2,3
 240 16 240 16 116 16 c 0,4,5
 87 16 87 16 87 40 c 0,6,7
 87 70 87 70 117 85 c 128,-1,8
 147 100 147 100 164 113.5 c 128,-1,9
 181 127 181 127 190 144 c 0,10,11
 208 176 208 176 219 266.5 c 128,-1,12
 230 357 230 357 238.5 431.5 c 128,-1,13
 247 506 247 506 256.5 596 c 128,-1,14
 266 686 266 686 276 776.5 c 128,-1,15
 286 867 286 867 295 952 c 2,16,17
 295 952 295 952 326 1245 c 1,18,19
 326 1288 326 1288 260 1344 c 0,20,21
 241 1360 241 1360 220 1370 c 0,22,23
 182 1387 182 1387 182 1409 c 0,24,25
 182 1452 182 1452 228 1452 c 1,26,-1
 371 1443 l 1,27,28
 415 1443 415 1443 449.5 1448.5 c 128,-1,29
 484 1454 484 1454 514.5 1454 c 128,-1,30
 545 1454 545 1454 545 1427 c 0,31,32
 545 1396 545 1396 511 1380 c 0,33,34
 428 1341 428 1341 408 1274 c 1,35,36
 449 1178 449 1178 883 647 c 0,37,38
 1310 124 1310 124 1337 124 c 0,39,40
 1340 124 1340 124 1337 130 c 1,41,-1
 1419 1296 l 1,42,43
 1419 1324 1419 1324 1393 1361 c 128,-1,44
 1367 1398 1367 1398 1342 1431 c 128,-1,45
 1317 1464 1317 1464 1317 1482 c 0,46,47
 1317 1507 1317 1507 1347.5 1507 c 128,-1,48
 1378 1507 1378 1507 1413 1501 c 128,-1,49
 1448 1495 1448 1495 1496 1495 c 1,50,-1
 1601 1500 l 1,51,52
 1680 1500 1680 1500 1610 1430 c 2,53,-1
 1572 1392 l 1,54,55
 1531 1348 1531 1348 1522.5 1326.5 c 128,-1,56
 1514 1305 1514 1305 1509 1256.5 c 128,-1,57
 1504 1208 1504 1208 1497.5 1130 c 128,-1,58
 1491 1052 1491 1052 1484 953 c 128,-1,59
 1477 854 1477 854 1469.5 747.5 c 128,-1,60
 1462 641 1462 641 1455.5 535 c 128,-1,61
 1449 429 1449 429 1444 338 c 0,62,63
 1433 136 1433 136 1433 74 c 1,64,-1
 1434 41 l 1,65,66
 1434 -2 1434 -2 1417 -20 c 128,-1,67
 1400 -38 1400 -38 1384 -38 c 0,68,69
 1358 -38 1358 -38 1347.5 -27.5 c 128,-1,70
 1337 -17 1337 -17 1309 15.5 c 128,-1,71
 1281 48 1281 48 1236 101.5 c 128,-1,72
 1191 155 1191 155 1131.5 225 c 128,-1,73
 1072 295 1072 295 1006 373.5 c 128,-1,74
 940 452 940 452 870.5 535.5 c 128,-1,75
 801 619 801 619 735 699.5 c 128,-1,76
 669 780 669 780 609.5 853 c 128,-1,77
 550 926 550 926 504 984 c 0,78,79
 407 1108 407 1108 399 1132 c 1,80,81
 304 247 304 247 304 226 c 2,82,-1
 304 200 l 2,83,84
 304 158 304 158 322 133 c 1,85,86
 322 133 322 133 362 84 c 128,-1,87
 402 35 402 35 402 22 c 0,0,1
EndSplineSet
EndChar

StartChar: O
Encoding: 79 79 72
Width: 1451
GlyphClass: 2
Flags: W
LayerCount: 2
Fore
SplineSet
966.5 13 m 128,-1,1
 855 -43 855 -43 753 -43 c 128,-1,2
 651 -43 651 -43 575 -23 c 128,-1,3
 499 -3 499 -3 430 39 c 128,-1,4
 361 81 361 81 301.5 147 c 128,-1,5
 242 213 242 213 198 306 c 0,6,7
 105 506 105 506 105 791 c 0,8,9
 105 1138 105 1138 281 1356 c 0,10,11
 456 1573 456 1573 733 1573 c 0,12,13
 996 1573 996 1573 1154 1410 c 1,14,15
 1338 1218 1338 1218 1338 813 c 0,16,17
 1338 413 1338 413 1160 178 c 0,18,0
 1078 69 1078 69 966.5 13 c 128,-1,1
722 53 m 0,19,20
 784 52 784 52 841 66.5 c 128,-1,21
 898 81 898 81 954 115 c 128,-1,22
 1010 149 1010 149 1060.5 205 c 128,-1,23
 1111 261 1111 261 1150 346 c 0,24,25
 1234 531 1234 531 1234 811 c 0,26,27
 1234 1365 1234 1365 880 1460 c 0,28,29
 792 1483 792 1483 740.5 1483 c 128,-1,30
 689 1483 689 1483 631.5 1470.5 c 128,-1,31
 574 1458 574 1458 515.5 1429 c 128,-1,32
 457 1400 457 1400 401 1351.5 c 128,-1,33
 345 1303 345 1303 302 1230 c 0,34,35
 206 1069 206 1069 206 831 c 0,36,37
 206 295 206 295 479 123 c 0,38,39
 586 55 586 55 722 53 c 0,19,20
EndSplineSet
EndChar

StartChar: P
Encoding: 80 80 73
Width: 1234
GlyphClass: 2
Flags: W
LayerCount: 2
Fore
SplineSet
201 -82 m 1,0,1
 149 -82 149 -82 159 -24 c 0,2,3
 161 -12 161 -12 179 -2.5 c 128,-1,4
 197 7 197 7 219 26 c 128,-1,5
 241 45 241 45 256 64 c 0,6,7
 288 104 288 104 293 129 c 1,8,9
 293 129 293 129 292 164 c 2,10,-1
 288 406 l 1,11,12
 288 406 288 406 280 784 c 0,13,14
 267 1443 267 1443 247 1554 c 0,15,16
 240 1588 240 1588 204 1619.5 c 128,-1,17
 168 1651 168 1651 153 1668.5 c 128,-1,18
 138 1686 138 1686 138 1706.5 c 128,-1,19
 138 1727 138 1727 154 1735.5 c 128,-1,20
 170 1744 170 1744 213 1746 c 0,21,22
 340 1750 340 1750 376 1758 c 0,23,24
 416 1768 416 1768 425 1768 c 0,25,26
 462 1768 462 1768 462 1727 c 0,27,28
 462 1714 462 1714 441.5 1691 c 128,-1,29
 421 1668 421 1668 407 1652 c 128,-1,30
 393 1636 393 1636 380 1621.5 c 128,-1,31
 367 1607 367 1607 360 1598 c 0,32,33
 350 1583 350 1583 351 1565 c 1,34,-1
 351 1348 l 1,35,36
 384 1478 384 1478 502 1562 c 0,37,38
 652 1669 652 1669 824 1634 c 0,39,40
 1049 1587 1049 1587 1116 1361 c 0,41,42
 1135 1297 1135 1297 1135 1198.5 c 128,-1,43
 1135 1100 1135 1100 1103 1009.5 c 128,-1,44
 1071 919 1071 919 1015 856 c 0,45,46
 899 726 899 726 714 726 c 0,47,48
 558 726 558 726 434 856 c 0,49,50
 389 903 389 903 359 973 c 1,51,52
 389 283 389 283 389 219.5 c 128,-1,53
 389 156 389 156 400 130 c 128,-1,54
 411 104 411 104 428 81 c 1,55,-1
 502 -9 l 1,56,57
 524 -38 524 -38 524 -53 c 0,58,59
 524 -90 524 -90 478 -90 c 0,60,61
 466 -90 466 -90 431.5 -82.5 c 128,-1,62
 397 -75 397 -75 317 -75 c 1,63,-1
 201 -82 l 1,0,1
602 841 m 0,64,65
 712 790 712 790 830 836 c 0,66,67
 950 883 950 883 1006 1026 c 0,68,69
 1034 1099 1034 1099 1034 1188.5 c 128,-1,70
 1034 1278 1034 1278 1018.5 1333.5 c 128,-1,71
 1003 1389 1003 1389 978 1428 c 128,-1,72
 953 1467 953 1467 921 1491.5 c 128,-1,73
 889 1516 889 1516 856 1530 c 0,74,75
 799 1554 799 1554 727 1554 c 128,-1,76
 655 1554 655 1554 590.5 1519.5 c 128,-1,77
 526 1485 526 1485 482 1432 c 0,78,79
 390 1321 390 1321 390 1189 c 0,80,81
 390 1030 390 1030 497 918 c 0,82,83
 544 868 544 868 602 841 c 0,64,65
EndSplineSet
EndChar

StartChar: Q
Encoding: 81 81 74
Width: 1565
GlyphClass: 2
Flags: W
LayerCount: 2
Fore
SplineSet
1059 83 m 1,0,1
 878 -46 878 -46 621 4 c 0,2,3
 466 34 466 34 348 150 c 0,4,5
 136 359 136 359 136 829 c 0,6,7
 136 1155 136 1155 324 1350 c 1,8,9
 498 1532 498 1532 748 1532 c 0,10,11
 972 1532 972 1532 1143 1361 c 0,12,13
 1340 1164 1340 1164 1357 793 c 1,14,-1
 1358 757 l 1,15,16
 1358 491 1358 491 1230 274 c 0,17,18
 1188 201 1188 201 1131 144 c 1,19,20
 1315 38 1315 38 1371 38 c 1,21,-1
 1496 44 l 1,22,23
 1552 44 1552 44 1552 7 c 0,24,25
 1552 -14 1552 -14 1535.5 -32 c 128,-1,26
 1519 -50 1519 -50 1495 -72 c 0,27,28
 1425 -134 1425 -134 1406 -174 c 128,-1,29
 1387 -214 1387 -214 1376 -224 c 128,-1,30
 1365 -234 1365 -234 1350 -234 c 0,31,32
 1319 -234 1319 -234 1312 -184 c 1,33,-1
 1302 -99 l 1,34,35
 1292 -42 1292 -42 1269 -29 c 1,36,37
 1172 21 1172 21 1059 83 c 1,0,1
654.5 88 m 128,-1,39
 711 76 711 76 780.5 76.5 c 128,-1,40
 850 77 850 77 937 116 c 128,-1,41
 1024 155 1024 155 1093 238 c 0,42,43
 1247 423 1247 423 1247 770 c 0,44,45
 1247 1107 1247 1107 1074 1288 c 0,46,47
 890 1481 890 1481 642 1428 c 0,48,49
 518 1401 518 1401 418 1313 c 0,50,51
 237 1154 237 1154 237 844 c 2,52,-1
 237 822 l 2,53,54
 237 678 237 678 267.5 551 c 128,-1,55
 298 424 298 424 339.5 344 c 128,-1,56
 381 264 381 264 433 212 c 128,-1,57
 485 160 485 160 541.5 130 c 128,-1,38
 598 100 598 100 654.5 88 c 128,-1,39
EndSplineSet
EndChar

StartChar: R
Encoding: 82 82 75
Width: 1452
GlyphClass: 2
Flags: W
LayerCount: 2
Fore
SplineSet
236 -66 m 0,0,1
 121 -95 121 -95 121 -42 c 0,2,3
 121 -19 121 -19 152.5 12 c 128,-1,4
 184 43 184 43 201 63 c 128,-1,5
 218 83 218 83 227 101 c 0,6,7
 247 140 247 140 248.5 207.5 c 128,-1,8
 250 275 250 275 251.5 334 c 128,-1,9
 253 393 253 393 254.5 468 c 128,-1,10
 256 543 256 543 257.5 626 c 128,-1,11
 259 709 259 709 260 795.5 c 128,-1,12
 261 882 261 882 262 964 c 0,13,14
 267 1341 267 1341 263 1380.5 c 128,-1,15
 259 1420 259 1420 248.5 1440.5 c 128,-1,16
 238 1461 238 1461 223.5 1478 c 128,-1,17
 209 1495 209 1495 190.5 1510 c 128,-1,18
 172 1525 172 1525 160 1536 c 0,19,20
 141 1553 141 1553 141 1568 c 128,-1,21
 141 1583 141 1583 164 1583 c 2,22,-1
 207 1582 l 1,23,24
 334 1582 334 1582 406 1592.5 c 128,-1,25
 478 1603 478 1603 494.5 1603 c 128,-1,26
 511 1603 511 1603 511 1591 c 128,-1,27
 511 1579 511 1579 490 1558 c 0,28,29
 410 1478 410 1478 384 1440 c 128,-1,30
 358 1402 358 1402 356.5 1395.5 c 128,-1,31
 355 1389 355 1389 353.5 1372.5 c 128,-1,32
 352 1356 352 1356 351 1333 c 128,-1,33
 350 1310 350 1310 349.5 1283.5 c 128,-1,34
 349 1257 349 1257 348 1232 c 0,35,36
 347 1157 347 1157 347 1144 c 1,37,38
 389 1253 389 1253 514 1375 c 0,39,40
 603 1461 603 1461 714 1500 c 0,41,42
 819 1537 819 1537 955 1506 c 0,43,44
 1085 1476 1085 1476 1142 1352 c 0,45,46
 1172 1286 1172 1286 1172 1190.5 c 128,-1,47
 1172 1095 1172 1095 1144 1030.5 c 128,-1,48
 1116 966 1116 966 1070.5 918 c 128,-1,49
 1025 870 1025 870 966.5 836 c 128,-1,50
 908 802 908 802 847 776 c 1,51,-1
 620 692 l 1,52,53
 1147 151 1147 151 1174 143 c 1,54,55
 1207 131 1207 131 1256.5 133.5 c 128,-1,56
 1306 136 1306 136 1328 134 c 0,57,58
 1383 131 1383 131 1383 112 c 128,-1,59
 1383 93 1383 93 1339 50 c 0,60,61
 1246 -39 1246 -39 1213 -108 c 1,62,63
 1195 -143 1195 -143 1180 -153.5 c 128,-1,64
 1165 -164 1165 -164 1157 -164 c 0,65,66
 1111 -164 1111 -164 1111 20 c 0,67,68
 1111 59 1111 59 1103.5 64.5 c 128,-1,69
 1096 70 1096 70 1070.5 95.5 c 128,-1,70
 1045 121 1045 121 1006 161.5 c 128,-1,71
 967 202 967 202 918 252.5 c 128,-1,72
 869 303 869 303 817.5 356.5 c 128,-1,73
 766 410 766 410 716.5 461.5 c 128,-1,74
 667 513 667 513 626 554 c 0,75,76
 533 650 533 650 519.5 661 c 128,-1,77
 506 672 506 672 492 695 c 128,-1,78
 478 718 478 718 478 732 c 0,79,80
 478 762 478 762 519 767.5 c 128,-1,81
 560 773 560 773 618.5 786 c 128,-1,82
 677 799 677 799 739 821 c 128,-1,83
 801 843 801 843 861 875.5 c 128,-1,84
 921 908 921 908 968 952 c 0,85,86
 1073 1052 1073 1052 1073 1185.5 c 128,-1,87
 1073 1319 1073 1319 1013 1377.5 c 128,-1,88
 953 1436 953 1436 829 1436 c 0,89,90
 706 1436 706 1436 591 1332 c 0,91,92
 456 1210 456 1210 375 1014 c 0,93,94
 355 965 355 965 347 936 c 1,95,-1
 347 149 l 2,96,97
 347 126 347 126 372 104 c 0,98,99
 439 43 439 43 451 27.5 c 128,-1,100
 463 12 463 12 470 1 c 0,101,102
 514 -63 514 -63 450 -63 c 1,103,-1
 340 -55 l 1,104,105
 277 -55 277 -55 236 -66 c 0,0,1
EndSplineSet
EndChar

StartChar: S
Encoding: 83 83 76
Width: 1126
GlyphClass: 2
Flags: W
LayerCount: 2
Fore
SplineSet
898 1334 m 1,0,1
 898 1278 898 1278 847 1299 c 0,2,3
 810 1314 810 1314 787 1346 c 0,4,5
 754 1390 754 1390 704 1443 c 1,6,7
 533 1463 533 1463 430 1392 c 1,8,9
 333 1323 333 1323 333 1185 c 0,10,11
 333 1073 333 1073 452 952 c 0,12,13
 525 878 525 878 582 836.5 c 128,-1,14
 639 795 639 795 681.5 762.5 c 128,-1,15
 724 730 724 730 764.5 692 c 128,-1,16
 805 654 805 654 836 608 c 0,17,18
 906 508 906 508 906 388 c 0,19,20
 906 156 906 156 647 54 c 0,21,22
 500 -3 500 -3 338 -3 c 0,23,24
 283 -3 283 -3 190 -110 c 0,25,26
 147 -159 147 -159 131 -97 c 1,27,-1
 132 5 l 1,28,29
 132 109 132 109 121 162.5 c 128,-1,30
 110 216 110 216 110 225 c 0,31,32
 110 260 110 260 137 260 c 0,33,34
 155 260 155 260 174 241 c 128,-1,35
 193 222 193 222 216 196 c 0,36,37
 281 123 281 123 335 100 c 1,38,39
 347 99 347 99 358 99 c 2,40,-1
 381 99 l 2,41,42
 601 99 601 99 711 194 c 0,43,44
 806 277 806 277 806 413 c 0,45,46
 806 537 806 537 636 675 c 2,47,-1
 444 832 l 1,48,49
 240 997 240 997 240 1185 c 0,50,51
 240 1368 240 1368 363 1456 c 1,52,53
 466 1531 466 1531 647 1531 c 1,54,-1
 697 1530 l 2,55,56
 736 1530 736 1530 804 1587 c 0,57,58
 829 1608 829 1608 851.5 1626 c 128,-1,59
 874 1644 874 1644 893 1644 c 0,60,61
 933 1644 933 1644 922 1589 c 1,62,63
 893 1480 893 1480 893 1425 c 1,64,-1
 898 1334 l 1,0,1
EndSplineSet
EndChar

StartChar: T
Encoding: 84 84 77
Width: 1381
GlyphClass: 2
Flags: W
LayerCount: 2
Fore
SplineSet
571 -5 m 1,0,-1
 466 -14 l 1,1,2
 432 -14 432 -14 432 14 c 0,3,4
 432 43 432 43 490 96 c 0,5,6
 566 166 566 166 570 209 c 0,7,8
 596 567 596 567 611.5 957 c 128,-1,9
 627 1347 627 1347 631 1425 c 1,10,11
 504 1425 504 1425 377 1425 c 1,12,-1
 284 1424 l 1,13,14
 247 1422 247 1422 224 1401 c 128,-1,15
 201 1380 201 1380 182 1358.5 c 128,-1,16
 163 1337 163 1337 145 1320 c 128,-1,17
 127 1303 127 1303 107 1303 c 0,18,19
 63 1303 63 1303 80 1374 c 0,20,21
 93 1428 93 1428 93 1503 c 1,22,-1
 88 1583 l 1,23,24
 88 1656 88 1656 126 1656 c 0,25,26
 149 1656 149 1656 170.5 1625.5 c 128,-1,27
 192 1595 192 1595 208.5 1574.5 c 128,-1,28
 225 1554 225 1554 238 1542 c 0,29,30
 260 1520 260 1520 277 1520 c 2,31,-1
 839 1508 l 1,32,33
 946 1508 946 1508 1082 1514 c 1,34,35
 1143 1523 1143 1523 1208 1592 c 0,36,37
 1226 1611 1226 1611 1236 1626 c 0,38,39
 1252 1650 1252 1650 1282 1650 c 0,40,41
 1333 1650 1333 1650 1314 1584 c 0,42,43
 1294 1517 1294 1517 1293 1457.5 c 128,-1,44
 1292 1398 1292 1398 1291 1358.5 c 128,-1,45
 1290 1319 1290 1319 1283.5 1295 c 128,-1,46
 1277 1271 1277 1271 1253 1271 c 0,47,48
 1245 1271 1245 1271 1232.5 1283 c 128,-1,49
 1220 1295 1220 1295 1207.5 1322 c 128,-1,50
 1195 1349 1195 1349 1179 1370.5 c 128,-1,51
 1163 1392 1163 1392 1149 1404 c 0,52,53
 1130 1419 1130 1419 1100 1425 c 1,54,-1
 727 1425 l 1,55,56
 699 1049 699 1049 681.5 640 c 128,-1,57
 664 231 664 231 664 218.5 c 128,-1,58
 664 206 664 206 670.5 184 c 128,-1,59
 677 162 677 162 688 140 c 0,60,61
 713 90 713 90 731 74 c 0,62,63
 770 41 770 41 770 22.5 c 128,-1,64
 770 4 770 4 756 -2 c 128,-1,65
 742 -8 742 -8 700 -8 c 2,66,-1
 571 -5 l 1,0,-1
EndSplineSet
EndChar

StartChar: U
Encoding: 85 85 78
Width: 1546
GlyphClass: 2
Flags: W
LayerCount: 2
Fore
SplineSet
1487 1605 m 0,0,1
 1487 1595 1487 1595 1466 1570 c 128,-1,2
 1445 1545 1445 1545 1428 1518 c 0,3,4
 1385 1451 1385 1451 1383.5 1406.5 c 128,-1,5
 1382 1362 1382 1362 1380 1300 c 128,-1,6
 1378 1238 1378 1238 1374.5 1163.5 c 128,-1,7
 1371 1089 1371 1089 1365.5 1006.5 c 128,-1,8
 1360 924 1360 924 1352 844 c 0,9,10
 1332 664 1332 664 1312 591.5 c 128,-1,11
 1292 519 1292 519 1272 458 c 128,-1,12
 1252 397 1252 397 1221 333 c 128,-1,13
 1190 269 1190 269 1147 208 c 128,-1,14
 1104 147 1104 147 1044 98 c 0,15,16
 911 -9 911 -9 726 -9 c 0,17,18
 529 -9 529 -9 405 138 c 0,19,20
 253 318 253 318 223 684 c 1,21,-1
 166 1293 l 2,22,23
 162 1336 162 1336 149 1354 c 0,24,25
 129 1380 129 1380 89 1415 c 128,-1,26
 49 1450 49 1450 41 1463 c 128,-1,27
 33 1476 33 1476 33 1487 c 0,28,29
 33 1523 33 1523 96 1523 c 1,30,-1
 148 1518 l 1,31,-1
 303 1547 l 1,32,33
 380 1560 380 1560 380 1530 c 0,34,35
 380 1510 380 1510 356.5 1486.5 c 128,-1,36
 333 1463 333 1463 317.5 1439.5 c 128,-1,37
 302 1416 302 1416 291 1391 c 0,38,39
 267 1336 267 1336 267 1301 c 128,-1,40
 267 1266 267 1266 270 1206.5 c 128,-1,41
 273 1147 273 1147 279 1067 c 0,42,43
 312 621 312 621 347.5 482.5 c 128,-1,44
 383 344 383 344 432 262 c 0,45,46
 540 83 540 83 732 83 c 0,47,48
 1020 83 1020 83 1153 411 c 0,49,50
 1294 760 1294 760 1294 1394 c 0,51,52
 1294 1435 1294 1435 1280 1455 c 0,53,54
 1265 1477 1265 1477 1227 1514 c 0,55,56
 1170 1568 1170 1568 1170 1590.5 c 128,-1,57
 1170 1613 1170 1613 1229 1613 c 1,58,-1
 1327 1608 l 1,59,60
 1372 1608 1372 1608 1399 1618 c 0,61,62
 1487 1650 1487 1650 1487 1605 c 0,0,1
EndSplineSet
EndChar

StartChar: V
Encoding: 86 86 79
Width: 1347
GlyphClass: 2
Flags: W
LayerCount: 2
Fore
SplineSet
1093 1493 m 0,0,1
 1093 1530 1093 1530 1133 1530 c 0,2,3
 1153 1530 1153 1530 1192 1506 c 0,4,5
 1275 1455 1275 1455 1314 1442 c 0,6,7
 1430 1404 1430 1404 1356 1360 c 1,8,-1
 1293 1326 l 2,9,10
 1271 1313 1271 1313 1254.5 1303.5 c 128,-1,11
 1238 1294 1238 1294 1231 1281 c 128,-1,12
 1224 1268 1224 1268 1206 1227 c 128,-1,13
 1188 1186 1188 1186 1162 1124.5 c 128,-1,14
 1136 1063 1136 1063 1102.5 984.5 c 128,-1,15
 1069 906 1069 906 1033 820.5 c 128,-1,16
 997 735 997 735 960 646.5 c 128,-1,17
 923 558 923 558 888 476 c 0,18,19
 762 175 762 175 727.5 109.5 c 128,-1,20
 693 44 693 44 679 10 c 128,-1,21
 665 -24 665 -24 644 -24 c 0,22,23
 629 -24 629 -24 616 -10.5 c 128,-1,24
 603 3 603 3 594.5 32 c 128,-1,25
 586 61 586 61 561.5 124.5 c 128,-1,26
 537 188 537 188 505.5 266.5 c 128,-1,27
 474 345 474 345 438 434 c 128,-1,28
 402 523 402 523 364.5 616 c 128,-1,29
 327 709 327 709 290 802 c 128,-1,30
 253 895 253 895 220 981 c 0,31,32
 142 1183 142 1183 112 1276 c 0,33,34
 100 1311 100 1311 77 1330 c 128,-1,35
 54 1349 54 1349 30.5 1363.5 c 128,-1,36
 7 1378 7 1378 -10.5 1393 c 128,-1,37
 -28 1408 -28 1408 -28 1435 c 0,38,39
 -28 1468 -28 1468 31 1468 c 2,40,-1
 58 1468 l 2,41,42
 149 1468 149 1468 202 1473.5 c 128,-1,43
 255 1479 255 1479 262 1479 c 0,44,45
 312 1479 312 1479 312 1449 c 0,46,47
 312 1429 312 1429 295.5 1412.5 c 128,-1,48
 279 1396 279 1396 259 1380 c 128,-1,49
 239 1364 239 1364 222 1348 c 0,50,51
 199 1327 199 1327 207 1311 c 1,52,53
 233 1206 233 1206 309.5 1007.5 c 128,-1,54
 386 809 386 809 421 719 c 128,-1,55
 456 629 456 629 491 542 c 128,-1,56
 526 455 526 455 556 380 c 2,57,-1
 610 245 l 2,58,59
 634 185 634 185 647 150 c 1,60,-1
 810 526 l 1,61,62
 1122 1264 1122 1264 1122 1350 c 0,63,64
 1122 1387 1122 1387 1107.5 1433 c 128,-1,65
 1093 1479 1093 1479 1093 1493 c 0,0,1
EndSplineSet
EndChar

StartChar: W
Encoding: 87 87 80
Width: 1966
GlyphClass: 2
Flags: W
LayerCount: 2
Fore
SplineSet
1722 1453 m 1,0,1
 1696 1531 1696 1531 1752 1531 c 0,2,3
 1782 1531 1782 1531 1806 1507 c 1,4,-1
 1804 1508 l 1,5,6
 1858 1465 1858 1465 1913 1447 c 0,7,8
 2030 1410 2030 1410 1988 1370 c 0,9,10
 1972 1355 1972 1355 1941 1345 c 128,-1,11
 1910 1335 1910 1335 1893 1328 c 0,12,13
 1852 1309 1852 1309 1844 1280 c 0,14,15
 1632 531 1632 531 1479 198 c 1,16,-1
 1425 66 l 1,17,18
 1371 -63 1371 -63 1310 64 c 0,19,20
 1249 190 1249 190 1105 657 c 0,21,22
 1040 867 1040 867 1007 1011 c 1,23,24
 866 523 866 523 716 221 c 1,25,-1
 652 72 l 2,26,27
 622 2 622 2 596 2 c 0,28,29
 567 2 567 2 543 40 c 0,30,31
 523 71 523 71 415.5 415 c 128,-1,32
 308 759 308 759 272 874 c 0,33,34
 201 1102 201 1102 174 1194.5 c 128,-1,35
 147 1287 147 1287 138 1300 c 128,-1,36
 129 1313 129 1313 118 1324 c 0,37,38
 112 1330 112 1330 79 1352 c 0,39,40
 12 1397 12 1397 12 1429.5 c 128,-1,41
 12 1462 12 1462 65 1462 c 1,42,-1
 161 1459 l 1,43,44
 226 1459 226 1459 255 1466 c 0,45,46
 348 1488 348 1488 348 1443 c 0,47,48
 348 1422 348 1422 311.5 1390 c 128,-1,49
 275 1358 275 1358 258 1341 c 0,50,51
 236 1318 236 1318 243 1305 c 1,52,53
 309 1006 309 1006 542 303 c 0,54,55
 572 214 572 214 591 164 c 1,56,57
 814 653 814 653 963 1156 c 1,58,59
 948 1177 948 1177 913 1199 c 0,60,61
 845 1242 845 1242 845 1275 c 256,62,63
 845 1308 845 1308 900 1308 c 2,64,-1
 978 1307 l 1,65,-1
 1129 1319 l 1,66,67
 1181 1319 1181 1319 1181 1289 c 0,68,69
 1181 1270 1181 1270 1158 1250 c 2,70,-1
 1131 1226 l 2,71,72
 1109 1206 1109 1206 1092 1188 c 0,73,74
 1076 1172 1076 1172 1076 1151 c 1,75,76
 1098 942 1098 942 1277 422 c 0,77,78
 1352 203 1352 203 1362 165 c 1,79,80
 1497 448 1497 448 1654 970 c 0,81,82
 1747 1280 1747 1280 1747 1339 c 0,83,84
 1747 1364 1747 1364 1722 1453 c 1,0,1
EndSplineSet
EndChar

StartChar: X
Encoding: 88 88 81
Width: 1546
GlyphClass: 2
Flags: W
LayerCount: 2
Fore
SplineSet
1351 -37 m 0,0,1
 1309 -37 1309 -37 1309 9 c 0,2,3
 1309 39 1309 39 1318 64 c 0,4,5
 1338 122 1338 122 1313 158 c 1,6,-1
 1292 182 l 1,7,-1
 1040 475 l 1,8,9
 848 700 848 700 789 770 c 1,10,-1
 325 206 l 1,11,12
 309 169 309 169 307 124 c 128,-1,13
 305 79 305 79 304 39.5 c 128,-1,14
 303 0 303 0 296 -26.5 c 128,-1,15
 289 -53 289 -53 265 -53 c 128,-1,16
 241 -53 241 -53 227.5 -38 c 128,-1,17
 214 -23 214 -23 195 2 c 0,18,19
 138 79 138 79 75.5 118.5 c 128,-1,20
 13 158 13 158 13 181 c 0,21,22
 13 196 13 196 27.5 210 c 128,-1,23
 42 224 42 224 69 224 c 1,24,-1
 114 221 l 1,25,26
 194 221 194 221 223.5 250 c 128,-1,27
 253 279 253 279 306.5 339 c 128,-1,28
 360 399 360 399 428 478 c 0,29,30
 566 638 566 638 735 843 c 1,31,32
 305 1350 305 1350 282.5 1362.5 c 128,-1,33
 260 1375 260 1375 226.5 1376.5 c 128,-1,34
 193 1378 193 1378 161.5 1379 c 128,-1,35
 130 1380 130 1380 107.5 1386.5 c 128,-1,36
 85 1393 85 1393 85 1410 c 0,37,38
 85 1442 85 1442 136.5 1466 c 128,-1,39
 188 1490 188 1490 215 1519.5 c 128,-1,40
 242 1549 242 1549 260.5 1576 c 128,-1,41
 279 1603 279 1603 294 1622.5 c 128,-1,42
 309 1642 309 1642 330 1642 c 128,-1,43
 351 1642 351 1642 358 1621.5 c 128,-1,44
 365 1601 365 1601 365 1560 c 1,45,-1
 362 1499 l 1,46,47
 362 1455 362 1455 380 1417 c 128,-1,48
 398 1379 398 1379 414.5 1361.5 c 128,-1,49
 431 1344 431 1344 470 1296.5 c 128,-1,50
 509 1249 509 1249 558 1187 c 0,51,52
 704 1005 704 1005 790 904 c 1,53,54
 1023 1185 1023 1185 1176 1398 c 1,55,56
 1186 1410 1186 1410 1191.5 1437 c 128,-1,57
 1197 1464 1197 1464 1197 1469 c 2,58,-1
 1178 1606 l 1,59,60
 1178 1636 1178 1636 1207 1636 c 0,61,62
 1227 1636 1227 1636 1261.5 1609.5 c 128,-1,63
 1296 1583 1296 1583 1336.5 1566 c 128,-1,64
 1377 1549 1377 1549 1416 1532 c 0,65,66
 1509 1491 1509 1491 1509 1460 c 128,-1,67
 1509 1429 1509 1429 1455 1422 c 1,68,69
 1410 1422 1410 1422 1348 1392 c 0,70,71
 1237 1338 1237 1338 1215 1309 c 1,72,73
 1186 1261 1186 1261 1055 1090 c 128,-1,74
 924 919 924 919 854 832 c 1,75,76
 1129 507 1129 507 1249 381.5 c 128,-1,77
 1369 256 1369 256 1393 235.5 c 128,-1,78
 1417 215 1417 215 1451 207.5 c 128,-1,79
 1485 200 1485 200 1516.5 195 c 128,-1,80
 1548 190 1548 190 1570.5 182.5 c 128,-1,81
 1593 175 1593 175 1593 159 c 0,82,83
 1593 132 1593 132 1565.5 107.5 c 128,-1,84
 1538 83 1538 83 1508.5 59.5 c 128,-1,85
 1479 36 1479 36 1448 14 c 0,86,87
 1375 -37 1375 -37 1351 -37 c 0,0,1
EndSplineSet
EndChar

StartChar: Y
Encoding: 89 89 82
Width: 1411
GlyphClass: 2
Flags: W
LayerCount: 2
Fore
SplineSet
543 -80 m 1,0,1
 510 -80 510 -80 510 -52 c 0,2,3
 510 -21 510 -21 566 30 c 1,4,5
 640 95 640 95 640 143 c 2,6,-1
 643 472 l 1,7,8
 643 644 643 644 635 730 c 1,9,-1
 339 1161 l 2,10,11
 282 1243 282 1243 216 1336 c 0,12,13
 194 1366 194 1366 165.5 1375 c 128,-1,14
 137 1384 137 1384 119.5 1387 c 128,-1,15
 102 1390 102 1390 87 1393.5 c 128,-1,16
 72 1397 72 1397 58 1403 c 0,17,18
 24 1418 24 1418 24 1442 c 0,19,20
 24 1465 24 1465 74.5 1485.5 c 128,-1,21
 125 1506 125 1506 162.5 1526 c 128,-1,22
 200 1546 200 1546 226 1562 c 0,23,24
 285 1596 285 1596 305 1596 c 0,25,26
 335 1596 335 1596 335 1566 c 0,27,28
 335 1549 335 1549 325.5 1531.5 c 128,-1,29
 316 1514 316 1514 307 1497 c 0,30,31
 269 1425 269 1425 287 1403 c 1,32,33
 446 1150 446 1150 560 991.5 c 128,-1,34
 674 833 674 833 696 805 c 1,35,36
 922 1115 922 1115 1102 1432 c 1,37,38
 1124 1473 1124 1473 1117 1505.5 c 128,-1,39
 1110 1538 1110 1538 1106 1555 c 0,40,41
 1080 1667 1080 1667 1125 1667 c 0,42,43
 1135 1667 1135 1667 1167 1640.5 c 128,-1,44
 1199 1614 1199 1614 1223 1596 c 0,45,46
 1285 1551 1285 1551 1319 1539 c 0,47,48
 1387 1513 1387 1513 1387 1475 c 0,49,50
 1387 1440 1387 1440 1314 1438 c 0,51,52
 1231 1436 1231 1436 1209 1402 c 128,-1,53
 1187 1368 1187 1368 1153.5 1318 c 128,-1,54
 1120 1268 1120 1268 1080.5 1209 c 128,-1,55
 1041 1150 1041 1150 997.5 1083 c 128,-1,56
 954 1016 954 1016 910 947 c 0,57,58
 816 799 816 799 742 675 c 1,59,60
 738 571 738 571 738 502 c 2,61,-1
 738 397 l 1,62,-1
 739 242 l 1,63,-1
 740 158 l 2,64,65
 740 102 740 102 791 32 c 0,66,67
 806 12 806 12 817 2 c 0,68,69
 848 -24 848 -24 848 -42 c 128,-1,70
 848 -60 848 -60 830.5 -66 c 128,-1,71
 813 -72 813 -72 765 -72 c 2,72,-1
 658 -71 l 1,73,-1
 543 -80 l 1,0,1
EndSplineSet
EndChar

StartChar: Z
Encoding: 90 90 83
Width: 1593
GlyphClass: 2
Flags: W
LayerCount: 2
Fore
SplineSet
248.5 -20.5 m 128,-1,1
 213 -31 213 -31 198 -31 c 128,-1,2
 183 -31 183 -31 172.5 -27.5 c 128,-1,3
 162 -24 162 -24 152 -18 c 0,4,5
 118 4 118 4 138 40 c 1,6,7
 144 53 144 53 170.5 77 c 128,-1,8
 197 101 197 101 261 171.5 c 128,-1,9
 325 242 325 242 406 336 c 128,-1,10
 487 430 487 430 579.5 540.5 c 128,-1,11
 672 651 672 651 764.5 765.5 c 128,-1,12
 857 880 857 880 945.5 991 c 128,-1,13
 1034 1102 1034 1102 1107 1197 c 0,14,15
 1270 1409 1270 1409 1306 1471 c 1,16,17
 589 1471 589 1471 490 1464 c 128,-1,18
 391 1457 391 1457 372 1452 c 128,-1,19
 353 1447 353 1447 331.5 1430.5 c 128,-1,20
 310 1414 310 1414 291 1394 c 0,21,22
 267 1370 267 1370 236 1330 c 1,23,24
 221 1313 221 1313 204 1313 c 0,25,26
 182 1313 182 1313 182 1337 c 2,27,-1
 182 1398 l 2,28,29
 182 1568 182 1568 167 1618 c 0,30,31
 164 1628 164 1628 164 1638 c 0,32,33
 164 1667 164 1667 187 1667 c 0,34,35
 200 1667 200 1667 222 1649.5 c 128,-1,36
 244 1632 244 1632 270 1610 c 0,37,38
 341 1553 341 1553 378 1551 c 0,39,40
 443 1546 443 1546 620 1546 c 1,41,-1
 1372 1551 l 2,42,43
 1480 1551 1480 1551 1435 1474 c 1,44,45
 1377 1378 1377 1378 903 785 c 0,46,47
 381 133 381 133 279 69 c 1,48,-1
 927 78 l 1,49,50
 1124 82 1124 82 1186.5 91 c 128,-1,51
 1249 100 1249 100 1280 117.5 c 128,-1,52
 1311 135 1311 135 1336 156 c 1,53,-1
 1410 227 l 2,54,55
 1431 248 1431 248 1454 248 c 0,56,57
 1490 248 1490 248 1471 179 c 1,58,59
 1450 95 1450 95 1450 -25 c 1,60,-1
 1452 -80 l 1,61,62
 1452 -114 1452 -114 1424 -114 c 0,63,64
 1398 -114 1398 -114 1358 -78.5 c 128,-1,65
 1318 -43 1318 -43 1296.5 -26.5 c 128,-1,66
 1275 -10 1275 -10 1256 -8 c 1,67,-1
 1202 -7 l 1,68,69
 435 -12 435 -12 359.5 -11 c 128,-1,0
 284 -10 284 -10 248.5 -20.5 c 128,-1,1
EndSplineSet
EndChar

StartChar: bracketleft
Encoding: 91 91 84
Width: 950
GlyphClass: 2
Flags: W
LayerCount: 2
Fore
SplineSet
298 -313 m 2,0,1
 227 -313 227 -313 227 -267 c 1,2,-1
 238 -199 l 2,3,4
 241 -180 241 -180 241 21 c 1,5,-1
 238 577 l 1,6,7
 238 792 238 792 226.5 1097 c 128,-1,8
 215 1402 215 1402 212 1499.5 c 128,-1,9
 209 1597 209 1597 206 1674 c 0,10,11
 200 1830 200 1830 200 1866 c 0,12,13
 200 1928 200 1928 254 1928 c 1,14,-1
 328 1930 l 1,15,16
 490 1933 490 1933 510.5 1937 c 128,-1,17
 531 1941 531 1941 548 1954 c 128,-1,18
 565 1967 565 1967 584 1986 c 2,19,-1
 668 2074 l 2,20,21
 689 2095 689 2095 708 2095 c 128,-1,22
 727 2095 727 2095 732 2082 c 128,-1,23
 737 2069 737 2069 737 2043 c 2,24,-1
 734 1902 l 1,25,26
 734 1811 734 1811 742 1768.5 c 128,-1,27
 750 1726 750 1726 750 1712 c 128,-1,28
 750 1698 750 1698 738.5 1689 c 128,-1,29
 727 1680 727 1680 718.5 1680 c 128,-1,30
 710 1680 710 1680 700 1688 c 128,-1,31
 690 1696 690 1696 680 1707 c 1,32,-1
 644 1753 l 1,33,34
 570 1833 570 1833 514 1837 c 0,35,36
 506 1838 506 1838 492 1838 c 2,37,-1
 459 1838 l 1,38,-1
 356 1837 l 2,39,40
 329 1836 329 1836 302 1836 c 1,41,-1
 304 1802 l 1,42,-1
 312 1568 l 2,43,44
 312 1565 312 1565 319 1334 c 2,45,-1
 329 1002 l 1,46,-1
 338 632 l 2,47,48
 342 470 342 470 342 351 c 128,-1,49
 342 232 342 232 324 -218 c 1,50,-1
 411 -218 l 1,51,-1
 524 -217 l 2,52,53
 566 -217 566 -217 605 -193 c 128,-1,54
 644 -169 644 -169 672 -148 c 0,55,56
 740 -99 740 -99 740 -172 c 1,57,-1
 731 -287 l 1,58,-1
 736 -393 l 1,59,60
 736 -434 736 -434 714 -434 c 0,61,62
 697 -434 697 -434 679.5 -415 c 128,-1,63
 662 -396 662 -396 644.5 -382.5 c 128,-1,64
 627 -369 627 -369 608 -357 c 0,65,66
 546 -318 546 -318 516.5 -316 c 128,-1,67
 487 -314 487 -314 452.5 -313.5 c 128,-1,68
 418 -313 418 -313 378 -313 c 2,69,-1
 298 -313 l 2,0,1
EndSplineSet
EndChar

StartChar: bracketright
Encoding: 93 93 86
Width: 924
GlyphClass: 2
Flags: W
LayerCount: 2
Fore
SplineSet
723 -249 m 1,0,1
 723 -295 723 -295 652 -295 c 0,2,3
 487 -295 487 -295 432 -328 c 0,4,5
 359 -372 359 -372 333 -409 c 0,6,7
 312 -439 312 -439 293 -439 c 0,8,9
 270 -439 270 -439 268 -386 c 0,10,11
 264 -282 264 -282 256 -247 c 0,12,13
 241 -186 241 -186 241 -168 c 0,14,15
 241 -114 241 -114 300 -148 c 0,16,17
 397 -204 397 -204 446 -204 c 1,18,19
 560 -200 560 -200 626 -200 c 1,20,21
 580 348 580 348 580 738 c 1,22,-1
 583 1145 l 1,23,24
 583 1322 583 1322 578 1722 c 1,25,-1
 476 1720 l 2,26,27
 414 1718 414 1718 383 1700 c 1,28,29
 335 1670 335 1670 316.5 1650 c 128,-1,30
 298 1630 298 1630 286.5 1617 c 128,-1,31
 275 1604 275 1604 263 1593 c 0,32,33
 200 1535 200 1535 200 1601 c 1,34,-1
 212 1764 l 1,35,36
 214 1830 214 1830 214 1875 c 2,37,-1
 213 1929 l 2,38,39
 213 1980 213 1980 230 1980 c 0,40,41
 242 1980 242 1980 263 1958.5 c 128,-1,42
 284 1937 284 1937 308.5 1914 c 128,-1,43
 333 1891 333 1891 356 1872 c 0,44,45
 407 1829 407 1829 433 1824 c 0,46,47
 480 1814 480 1814 626 1814 c 0,48,49
 650 1814 650 1814 665 1801.5 c 128,-1,50
 680 1789 680 1789 680 1748 c 2,51,-1
 689 825 l 1,52,53
 689 379 689 379 700 104 c 128,-1,54
 711 -171 711 -171 712 -184 c 1,55,-1
 723 -249 l 1,0,1
EndSplineSet
EndChar

StartChar: asciicircum
Encoding: 94 94 87
Width: 1286
GlyphClass: 2
Flags: W
LayerCount: 2
Fore
SplineSet
131 70 m 1,0,1
 74 70 74 70 74 106 c 0,2,3
 74 135 74 135 92 147 c 128,-1,4
 110 159 110 159 128 167.5 c 128,-1,5
 146 176 146 176 163.5 189.5 c 128,-1,6
 181 203 181 203 200 260 c 128,-1,7
 219 317 219 317 254.5 428 c 128,-1,8
 290 539 290 539 329.5 665 c 128,-1,9
 369 791 369 791 410.5 924.5 c 128,-1,10
 452 1058 452 1058 492 1184 c 0,11,12
 578 1461 578 1461 629 1613 c 0,13,14
 639 1643 639 1643 673 1643 c 0,15,16
 740 1643 740 1643 750 1603 c 2,17,-1
 983 691 l 2,18,19
 1048 439 1048 439 1095 282 c 0,20,21
 1105 247 1105 247 1128.5 227.5 c 128,-1,22
 1152 208 1152 208 1175.5 194 c 128,-1,23
 1199 180 1199 180 1217 165 c 128,-1,24
 1235 150 1235 150 1235 123 c 0,25,26
 1235 90 1235 90 1176 90 c 1,27,-1
 1120 91 l 1,28,-1
 951 80 l 1,29,30
 899 80 899 80 899 109 c 0,31,32
 899 131 899 131 934 161.5 c 128,-1,33
 969 192 969 192 985 208 c 0,34,35
 1006 229 1006 229 1000 247 c 1,36,37
 891 683 891 683 796.5 1043.5 c 128,-1,38
 702 1404 702 1404 684 1475 c 1,39,-1
 302 224 l 1,40,41
 308 200 308 200 330 181.5 c 128,-1,42
 352 163 352 163 380 137 c 0,43,44
 433 88 433 88 390 62 c 0,45,46
 364 47 364 47 333 53 c 128,-1,47
 302 59 302 59 280 62 c 0,48,49
 216 73 216 73 188 73 c 1,50,-1
 131 70 l 1,0,1
EndSplineSet
EndChar

StartChar: underscore
Encoding: 95 95 88
Width: 1536
GlyphClass: 2
Flags: W
LayerCount: 2
Fore
SplineSet
-20 -274 m 1,0,-1
 1076 -283 l 1,1,2
 1435 -283 1435 -283 1561 -274 c 1,3,-1
 1560 -367 l 1,4,-1
 606 -373 l 1,5,6
 153 -373 153 -373 -15 -367 c 1,7,-1
 -20 -274 l 1,0,-1
EndSplineSet
EndChar

StartChar: grave
Encoding: 96 96 89
Width: 794
GlyphClass: 2
Flags: W
LayerCount: 2
Fore
SplineSet
188 1620 m 1,0,1
 143 1620 143 1620 143 1651 c 0,2,3
 143 1670 143 1670 170.5 1697.5 c 128,-1,4
 198 1725 198 1725 211 1756.5 c 128,-1,5
 224 1788 224 1788 234.5 1815.5 c 128,-1,6
 245 1843 245 1843 256.5 1862 c 128,-1,7
 268 1881 268 1881 291 1881 c 256,8,9
 314 1881 314 1881 325 1859 c 128,-1,10
 336 1837 336 1837 342.5 1808.5 c 128,-1,11
 349 1780 349 1780 355 1753 c 128,-1,12
 361 1726 361 1726 372 1718 c 128,-1,13
 383 1710 383 1710 407 1691.5 c 128,-1,14
 431 1673 431 1673 460 1651 c 0,15,16
 532 1595 532 1595 559 1580 c 0,17,18
 604 1554 604 1554 604 1528 c 0,19,20
 604 1477 604 1477 559 1477 c 0,21,22
 525 1477 525 1477 489 1513 c 0,23,24
 472 1530 472 1530 399.5 1576 c 128,-1,25
 327 1622 327 1622 315 1627.5 c 128,-1,26
 303 1633 303 1633 287 1633 c 1,27,-1
 188 1620 l 1,0,1
EndSplineSet
EndChar

StartChar: a
Encoding: 97 97 90
Width: 1555
GlyphClass: 2
Flags: W
LayerCount: 2
Fore
SplineSet
1318 3 m 0,0,1
 1271 3 1271 3 1284 69 c 1,2,3
 1310 191 1310 191 1298 223 c 1,4,-1
 1114 512 l 2,5,6
 1061 597 1061 597 1002 699 c 1,7,8
 956 574 956 574 916.5 494 c 128,-1,9
 877 414 877 414 809 332 c 128,-1,10
 741 250 741 250 676 192 c 0,11,12
 457 -3 457 -3 275 -3 c 0,13,14
 179 -3 179 -3 122 59 c 1,15,16
 55 136 55 136 99 282 c 0,17,18
 157 476 157 476 379 635 c 0,19,20
 579 779 579 779 806 832 c 0,21,22
 867 847 867 847 915 852 c 1,23,24
 806 1044 806 1044 773 1113 c 1,25,26
 755 1135 755 1135 722 1146 c 0,27,28
 599 1188 599 1188 582 1198.5 c 128,-1,29
 565 1209 565 1209 565 1223 c 0,30,31
 565 1255 565 1255 617 1271 c 1,32,33
 707 1296 707 1296 776 1352 c 1,34,35
 815 1385 815 1385 852 1385 c 128,-1,36
 889 1385 889 1385 889 1346 c 1,37,-1
 852 1224 l 1,38,39
 841 1180 841 1180 854 1155 c 2,40,-1
 1066 765 l 1,41,42
 1204 518 1204 518 1321 352 c 0,43,44
 1362 293 1362 293 1384.5 278.5 c 128,-1,45
 1407 264 1407 264 1439 251 c 128,-1,46
 1471 238 1471 238 1500 226 c 0,47,48
 1571 196 1571 196 1571 171 c 0,49,50
 1571 143 1571 143 1520.5 123 c 128,-1,51
 1470 103 1470 103 1438.5 82 c 128,-1,52
 1407 61 1407 61 1386.5 43.5 c 128,-1,53
 1366 26 1366 26 1351 14.5 c 128,-1,54
 1336 3 1336 3 1318 3 c 0,0,1
202 268 m 0,55,56
 189 224 189 224 189 198 c 128,-1,57
 189 172 189 172 195 154 c 128,-1,58
 201 136 201 136 212 122 c 0,59,60
 238 92 238 92 271 92 c 0,61,62
 331 92 331 92 407 122.5 c 128,-1,63
 483 153 483 153 543 198.5 c 128,-1,64
 603 244 603 244 660 303 c 0,65,66
 782 430 782 430 849 561 c 1,67,68
 909 675 909 675 941 771 c 1,69,70
 783 757 783 757 604 668 c 0,71,72
 440 587 440 587 328 466 c 0,73,74
 231 361 231 361 202 268 c 0,55,56
EndSplineSet
Substitution2: "Single Substitution lookup 5 subtable" ordfeminine
Substitution2: "'aalt' Access All Alternates in Latin lookup 0 subtable" ordfeminine
EndChar

StartChar: b
Encoding: 98 98 91
Width: 1106
GlyphClass: 2
Flags: W
LayerCount: 2
Fore
SplineSet
164 -44 m 0,0,1
 111 -44 111 -44 111 -5 c 1,2,3
 112 15 112 15 136.5 46.5 c 128,-1,4
 161 78 161 78 175.5 97.5 c 128,-1,5
 190 117 190 117 202 134 c 0,6,7
 227 169 227 169 229 180.5 c 128,-1,8
 231 192 231 192 231 228.5 c 128,-1,9
 231 265 231 265 230.5 327 c 128,-1,10
 230 389 230 389 229.5 471.5 c 128,-1,11
 229 554 229 554 228.5 646.5 c 128,-1,12
 228 739 228 739 227.5 836.5 c 128,-1,13
 227 934 227 934 226.5 1027.5 c 128,-1,14
 226 1121 226 1121 225 1204.5 c 128,-1,15
 224 1288 224 1288 223 1352 c 0,16,17
 221 1492 221 1492 217.5 1510.5 c 128,-1,18
 214 1529 214 1529 184.5 1560 c 128,-1,19
 155 1591 155 1591 125 1621 c 128,-1,20
 95 1651 95 1651 95 1673 c 0,21,22
 95 1704 95 1704 134 1704 c 1,23,-1
 230 1693 l 1,24,25
 287 1693 287 1693 324 1698 c 128,-1,26
 361 1703 361 1703 384 1703 c 0,27,28
 435 1703 435 1703 435 1669 c 0,29,30
 435 1647 435 1647 407 1624.5 c 128,-1,31
 379 1602 379 1602 361.5 1585.5 c 128,-1,32
 344 1569 344 1569 334 1556 c 0,33,34
 316 1533 316 1533 316 1510 c 2,35,-1
 322 961 l 1,36,-1
 322 774 l 1,37,38
 398 876 398 876 530 906 c 0,39,40
 646 932 646 932 764 887 c 0,41,42
 916 829 916 829 966 664 c 0,43,44
 985 602 985 602 985 522.5 c 128,-1,45
 985 443 985 443 965 388.5 c 128,-1,46
 945 334 945 334 912.5 295 c 128,-1,47
 880 256 880 256 839 232 c 128,-1,48
 798 208 798 208 756 194 c 0,49,50
 568 131 568 131 402 230 c 0,51,52
 360 254 360 254 326 294 c 1,53,54
 330 194 330 194 341.5 163 c 128,-1,55
 353 132 353 132 369 111 c 128,-1,56
 385 90 385 90 403 68 c 0,57,58
 475 -22 475 -22 374 -22 c 2,59,-1
 349 -22 l 2,60,61
 235 -22 235 -22 208 -33 c 128,-1,62
 181 -44 181 -44 164 -44 c 0,0,1
352 642 m 128,-1,64
 333 589 333 589 333 533.5 c 128,-1,65
 333 478 333 478 347 436 c 128,-1,66
 361 394 361 394 384 363.5 c 128,-1,67
 407 333 407 333 436.5 313 c 128,-1,68
 466 293 466 293 497 281 c 0,69,70
 605 239 605 239 722 276 c 1,71,72
 888 327 888 327 888 517 c 0,73,74
 888 742 888 742 718 807 c 0,75,76
 665 827 665 827 603 827 c 128,-1,77
 541 827 541 827 491.5 802 c 128,-1,78
 442 777 442 777 406.5 736 c 128,-1,63
 371 695 371 695 352 642 c 128,-1,64
EndSplineSet
EndChar

StartChar: c
Encoding: 99 99 92
Width: 1333
GlyphClass: 2
Flags: W
LayerCount: 2
Fore
SplineSet
1202 306 m 0,0,1
 1202 186 1202 186 1232 87 c 1,2,3
 1257 11 1257 11 1209 11 c 0,4,5
 1189 11 1189 11 1160 25.5 c 128,-1,6
 1131 40 1131 40 1117.5 52 c 128,-1,7
 1104 64 1104 64 1092 73 c 0,8,9
 1052 105 1052 105 956 84 c 0,10,11
 765 44 765 44 674 44 c 128,-1,12
 583 44 583 44 526 54 c 128,-1,13
 469 64 469 64 410.5 89 c 128,-1,14
 352 114 352 114 296 157.5 c 128,-1,15
 240 201 240 201 196 267 c 0,16,17
 99 412 99 412 99 640 c 0,18,19
 99 832 99 832 208 972 c 0,20,21
 298 1086 298 1086 453 1150 c 0,22,23
 582 1203 582 1203 710 1203 c 1,24,-1
 868 1189 l 1,25,26
 947 1189 947 1189 1003 1245 c 0,27,28
 1029 1271 1029 1271 1058 1271 c 0,29,30
 1099 1271 1099 1271 1085 1229 c 0,31,32
 1042 1100 1042 1100 1042 1011 c 1,33,34
 1042 1011 1042 1011 1046 976 c 1,35,36
 1046 960 1046 960 1038.5 948 c 128,-1,37
 1031 936 1031 936 1020 936 c 0,38,39
 999 936 999 936 977.5 967 c 128,-1,40
 956 998 956 998 942 1021 c 128,-1,41
 928 1044 928 1044 914 1062 c 0,42,43
 881 1101 881 1101 843 1106 c 0,44,45
 754 1118 754 1118 701 1118 c 128,-1,46
 648 1118 648 1118 589 1103.5 c 128,-1,47
 530 1089 530 1089 473.5 1062 c 128,-1,48
 417 1035 417 1035 367.5 995 c 128,-1,49
 318 955 318 955 280 904 c 0,50,51
 199 793 199 793 199 652 c 128,-1,52
 199 511 199 511 241 409.5 c 128,-1,53
 283 308 283 308 351 246 c 0,54,55
 478 132 478 132 684 132 c 0,56,57
 771 132 771 132 845 148 c 128,-1,58
 919 164 919 164 959.5 176 c 128,-1,59
 1000 188 1000 188 1026.5 200.5 c 128,-1,60
 1053 213 1053 213 1068.5 227 c 128,-1,61
 1084 241 1084 241 1094 256 c 1,62,-1
 1131 325 l 2,63,64
 1152 364 1152 364 1177 364 c 128,-1,65
 1202 364 1202 364 1202 306 c 0,0,1
EndSplineSet
EndChar

StartChar: d
Encoding: 100 100 93
Width: 1114
GlyphClass: 2
Flags: W
LayerCount: 2
Fore
SplineSet
795 -113 m 0,0,1
 754 -113 754 -113 754 -74 c 0,2,3
 754 -59 754 -59 776 -6 c 1,4,5
 812 76 812 76 812 92.5 c 128,-1,6
 812 109 812 109 806 125 c 0,7,8
 792 166 792 166 772 288 c 1,9,10
 712 153 712 153 576 116 c 0,11,12
 477 89 477 89 354 128 c 0,13,14
 188 180 188 180 132 330 c 0,15,16
 110 389 110 389 110 477 c 128,-1,17
 110 565 110 565 144 635 c 128,-1,18
 178 705 178 705 232 750 c 0,19,20
 339 841 339 841 488 841 c 0,21,22
 586 841 586 841 674 773 c 0,23,24
 703 750 703 750 728 719 c 1,25,26
 707 1061 707 1061 732 1381 c 1,27,28
 732 1426 732 1426 638 1532 c 0,29,30
 616 1557 616 1557 616 1577 c 0,31,32
 616 1609 616 1609 649.5 1609 c 128,-1,33
 683 1609 683 1609 722.5 1600 c 128,-1,34
 762 1591 762 1591 802 1591 c 1,35,-1
 897 1601 l 1,36,37
 923 1601 923 1601 943 1589 c 128,-1,38
 963 1577 963 1577 963 1557 c 128,-1,39
 963 1537 963 1537 931 1504 c 0,40,41
 850 1418 850 1418 839 1400 c 128,-1,42
 828 1382 828 1382 823.5 1351 c 128,-1,43
 819 1320 819 1320 816 1272 c 0,44,45
 795 942 795 942 830 556 c 0,46,47
 853 292 853 292 901 137 c 0,48,49
 910 105 910 105 956 88 c 0,50,51
 1018 64 1018 64 1028 57 c 0,52,53
 1095 8 1095 8 1037 -18 c 0,54,55
 1022 -25 1022 -25 945.5 -50 c 128,-1,56
 869 -75 869 -75 852 -88 c 0,57,58
 821 -113 821 -113 795 -113 c 0,0,1
209 468 m 0,59,60
 209 413 209 413 224 371 c 128,-1,61
 239 329 239 329 263 298.5 c 128,-1,62
 287 268 287 268 318 248 c 128,-1,63
 349 228 349 228 381 216 c 0,64,65
 548 153 548 153 648 260 c 0,66,67
 719 336 719 336 719 469 c 0,68,69
 719 603 719 603 642 682 c 0,70,71
 573 753 573 753 480 753 c 0,72,73
 361 753 361 753 284 666 c 1,74,75
 209 584 209 584 209 468 c 0,59,60
EndSplineSet
EndChar

StartChar: e
Encoding: 101 101 94
Width: 1381
GlyphClass: 2
Flags: W
LayerCount: 2
Fore
SplineSet
1293 165 m 0,0,1
 1293 109 1293 109 1234 128 c 1,2,3
 1138 157 1138 157 1118 150.5 c 128,-1,4
 1098 144 1098 144 1063.5 128.5 c 128,-1,5
 1029 113 1029 113 982 97 c 0,6,7
 819 41 819 41 619 65 c 0,8,9
 475 82 475 82 352 154 c 0,10,11
 212 235 212 235 153 399 c 0,12,13
 122 485 122 485 122 599.5 c 128,-1,14
 122 714 122 714 152.5 804 c 128,-1,15
 183 894 183 894 234 965 c 128,-1,16
 285 1036 285 1036 351.5 1087 c 128,-1,17
 418 1138 418 1138 490 1172 c 0,18,19
 694 1269 694 1269 930 1222 c 1,20,21
 1104 1186 1104 1186 1183 1063 c 0,22,23
 1224 999 1224 999 1224 918.5 c 128,-1,24
 1224 838 1224 838 1207 788 c 128,-1,25
 1190 738 1190 738 1162 701 c 128,-1,26
 1134 664 1134 664 1098.5 639.5 c 128,-1,27
 1063 615 1063 615 1026 600 c 0,28,29
 958 572 958 572 910 572 c 0,30,31
 799 572 799 572 741.5 589.5 c 128,-1,32
 684 607 684 607 643 610.5 c 128,-1,33
 602 614 602 614 574 615.5 c 128,-1,34
 546 617 546 617 531.5 623.5 c 128,-1,35
 517 630 517 630 517 645 c 0,36,37
 517 673 517 673 546 698 c 0,38,39
 616 758 616 758 655 823 c 1,40,41
 701 894 701 894 740 858 c 0,42,43
 751 848 751 848 755 796 c 0,44,45
 763 693 763 693 800 676 c 1,46,47
 826 661 826 661 919 661 c 0,48,49
 980 661 980 661 1046 726 c 0,50,51
 1119 797 1119 797 1119 880 c 0,52,53
 1119 1148 1119 1148 754 1148 c 0,54,55
 544 1148 544 1148 384 984 c 0,56,57
 226 821 226 821 226 610 c 0,58,59
 226 390 226 390 361 268 c 0,60,61
 493 150 493 150 730 150 c 0,62,63
 944 150 944 150 1048 228 c 0,64,65
 1090 259 1090 259 1109.5 300 c 128,-1,66
 1129 341 1129 341 1140.5 364 c 128,-1,67
 1152 387 1152 387 1163 401.5 c 128,-1,68
 1174 416 1174 416 1188.5 416 c 128,-1,69
 1203 416 1203 416 1211 409.5 c 128,-1,70
 1219 403 1219 403 1223 394 c 0,71,72
 1225 390 1225 390 1231 352 c 0,73,74
 1246 262 1246 262 1263 231 c 0,75,76
 1293 179 1293 179 1293 165 c 0,0,1
EndSplineSet
EndChar

StartChar: f
Encoding: 102 102 95
Width: 1220
GlyphClass: 2
Flags: W
LayerCount: 2
Fore
SplineSet
431.5 -80.5 m 128,-1,1
 409 -86 409 -86 387 -93.5 c 128,-1,2
 365 -101 365 -101 335.5 -101 c 128,-1,3
 306 -101 306 -101 306 -75 c 0,4,5
 306 -47 306 -47 348 0.5 c 128,-1,6
 390 48 390 48 403 66 c 0,7,8
 430 102 430 102 430 129 c 2,9,-1
 430 166 l 1,10,-1
 426 618 l 2,11,12
 424 810 424 810 424 976 c 1,13,-1
 311 976 l 2,14,15
 248 976 248 976 184 917 c 0,16,17
 165 900 165 900 144.5 881.5 c 128,-1,18
 124 863 124 863 106 863 c 0,19,20
 74 863 74 863 74 897 c 1,21,-1
 85 1012 l 1,22,23
 88 1068 88 1068 88 1104 c 2,24,-1
 88 1154 l 2,25,26
 88 1204 88 1204 116 1204 c 0,27,28
 142 1204 142 1204 168 1161 c 1,29,30
 198 1108 198 1108 270 1068 c 0,31,32
 289 1057 289 1057 303 1057 c 2,33,-1
 424 1056 l 1,34,-1
 424 1130 l 2,35,36
 424 1528 424 1528 682 1632 c 0,37,38
 791 1676 791 1676 960 1654 c 0,39,40
 1044 1644 1044 1644 1068 1652.5 c 128,-1,41
 1092 1661 1092 1661 1108 1672 c 1,42,-1
 1194 1744 l 1,43,44
 1227 1764 1227 1764 1227 1717 c 1,45,-1
 1216 1573 l 1,46,-1
 1226 1458 l 1,47,48
 1226 1411 1226 1411 1174 1438 c 0,49,50
 1148 1452 1148 1452 1120.5 1481.5 c 128,-1,51
 1093 1511 1093 1511 1077 1525 c 0,52,53
 1039 1558 1039 1558 1016.5 1564.5 c 128,-1,54
 994 1571 994 1571 977 1573 c 128,-1,55
 960 1575 960 1575 938 1576 c 1,56,-1
 826 1575 l 1,57,58
 529 1575 529 1575 529 1126 c 2,59,-1
 529 1057 l 1,60,61
 845 1064 845 1064 910 1069.5 c 128,-1,62
 975 1075 975 1075 1000.5 1094 c 128,-1,63
 1026 1113 1026 1113 1039 1125.5 c 128,-1,64
 1052 1138 1052 1138 1063.5 1150 c 128,-1,65
 1075 1162 1075 1162 1088 1174 c 0,66,67
 1123 1203 1123 1203 1138 1203 c 0,68,69
 1180 1203 1180 1203 1161 1142 c 1,70,71
 1142 1085 1142 1085 1142 979 c 1,72,-1
 1149 879 l 1,73,74
 1149 863 1149 863 1139 852.5 c 128,-1,75
 1129 842 1129 842 1116 842 c 128,-1,76
 1103 842 1103 842 1093 851.5 c 128,-1,77
 1083 861 1083 861 1073 874 c 2,78,-1
 1040 917 l 1,79,80
 977 977 977 977 941 977 c 2,81,-1
 529 977 l 1,82,-1
 526 202 l 1,83,-1
 526 134 l 2,84,85
 526 55 526 55 586 32 c 1,86,87
 632 13 632 13 648.5 -6.5 c 128,-1,88
 665 -26 665 -26 665 -36 c 0,89,90
 665 -56 665 -56 618 -59 c 128,-1,91
 571 -62 571 -62 539 -65 c 128,-1,92
 507 -68 507 -68 480.5 -71.5 c 128,-1,0
 454 -75 454 -75 431.5 -80.5 c 128,-1,1
EndSplineSet
EndChar

StartChar: g
Encoding: 103 103 96
Width: 1362
GlyphClass: 2
Flags: W
LayerCount: 2
Fore
SplineSet
1001 1095 m 1,0,1
 1047 1028 1047 1028 1047 956.5 c 128,-1,2
 1047 885 1047 885 1030 844 c 128,-1,3
 1013 803 1013 803 985 769.5 c 128,-1,4
 957 736 957 736 920.5 710.5 c 128,-1,5
 884 685 884 685 845 666 c 0,6,7
 771 632 771 632 695 620 c 1,8,9
 630 569 630 569 630 529 c 128,-1,10
 630 489 630 489 654 466.5 c 128,-1,11
 678 444 678 444 717 427 c 128,-1,12
 756 410 756 410 806 396 c 128,-1,13
 856 382 856 382 908.5 363.5 c 128,-1,14
 961 345 961 345 1011 319.5 c 128,-1,15
 1061 294 1061 294 1100 256 c 0,16,17
 1187 170 1187 170 1187 30 c 0,18,19
 1187 -163 1187 -163 994 -268 c 1,20,21
 797 -377 797 -377 536 -350 c 0,22,23
 404 -336 404 -336 314.5 -297 c 128,-1,24
 225 -258 225 -258 178 -219 c 0,25,26
 73 -132 73 -132 73 -4 c 0,27,28
 73 42 73 42 104 125 c 1,29,30
 116 170 116 170 119 219 c 1,31,-1
 122 299 l 2,32,33
 124 329 124 329 126.5 365.5 c 128,-1,34
 129 402 129 402 158 402 c 0,35,36
 174 402 174 402 192.5 383.5 c 128,-1,37
 211 365 211 365 236 338 c 1,38,39
 308 265 308 265 384 231 c 0,40,41
 415 217 415 217 415 198 c 128,-1,42
 415 179 415 179 396.5 165 c 128,-1,43
 378 151 378 151 349 148.5 c 128,-1,44
 320 146 320 146 288 143 c 128,-1,45
 256 140 256 140 232 126 c 0,46,47
 176 93 176 93 176 -15 c 0,48,49
 176 -128 176 -128 324 -198 c 1,50,51
 459 -263 459 -263 646 -263 c 0,52,53
 824 -263 824 -263 954 -177.5 c 128,-1,54
 1084 -92 1084 -92 1084 30 c 0,55,56
 1084 200 1084 200 908 268 c 0,57,58
 861 287 861 287 757.5 319 c 128,-1,59
 654 351 654 351 615 373 c 0,60,61
 528 422 528 422 528 499.5 c 128,-1,62
 528 577 528 577 567 623 c 1,63,64
 455 648 455 648 376 731 c 0,65,66
 292 819 292 819 292 916.5 c 128,-1,67
 292 1014 292 1014 326.5 1072.5 c 128,-1,68
 361 1131 361 1131 416 1168 c 0,69,70
 520 1238 520 1238 681.5 1238 c 128,-1,71
 843 1238 843 1238 948 1153 c 1,72,73
 991 1209 991 1209 1016 1318 c 0,74,75
 1024 1352 1024 1352 1033.5 1374 c 128,-1,76
 1043 1396 1043 1396 1061 1396 c 128,-1,77
 1079 1396 1079 1396 1089.5 1387 c 128,-1,78
 1100 1378 1100 1378 1118 1356 c 2,79,-1
 1245 1203 l 2,80,81
 1273 1170 1273 1170 1250 1143 c 0,82,83
 1240 1132 1240 1132 1227 1132 c 128,-1,84
 1214 1132 1214 1132 1189.5 1131 c 128,-1,85
 1165 1130 1165 1130 1133 1126 c 0,86,87
 1046 1115 1046 1115 1001 1095 c 1,0,1
550 723.5 m 128,-1,89
 595 706 595 706 629 706 c 128,-1,90
 663 706 663 706 694 710.5 c 128,-1,91
 725 715 725 715 759 726 c 128,-1,92
 793 737 793 737 827.5 754.5 c 128,-1,93
 862 772 862 772 889 798 c 0,94,95
 950 857 950 857 950 926 c 128,-1,96
 950 995 950 995 927.5 1035 c 128,-1,97
 905 1075 905 1075 867 1100 c 0,98,99
 797 1146 797 1146 679 1146 c 0,100,101
 488 1146 488 1146 416 1034 c 0,102,103
 390 993 390 993 390 939 c 128,-1,104
 390 885 390 885 412 843.5 c 128,-1,105
 434 802 434 802 469.5 771.5 c 128,-1,88
 505 741 505 741 550 723.5 c 128,-1,89
EndSplineSet
EndChar

StartChar: h
Encoding: 104 104 97
Width: 1338
GlyphClass: 2
Flags: W
LayerCount: 2
Fore
SplineSet
314 33 m 1,0,-1
 204 23 l 1,1,2
 175 23 175 23 175 47 c 256,3,4
 175 71 175 71 190.5 93 c 128,-1,5
 206 115 206 115 224 138 c 0,6,7
 273 199 273 199 273 240 c 1,8,-1
 284 610 l 1,9,10
 307 1419 307 1419 307 1578 c 1,11,-1
 306 1615 l 2,12,13
 306 1637 306 1637 235 1704 c 0,14,15
 219 1719 219 1719 205.5 1732 c 128,-1,16
 192 1745 192 1745 192 1760 c 0,17,18
 192 1785 192 1785 229 1785 c 128,-1,19
 266 1785 266 1785 305.5 1788.5 c 128,-1,20
 345 1792 345 1792 380 1796 c 0,21,22
 477 1809 477 1809 483 1809 c 0,23,24
 553 1809 553 1809 468 1708 c 0,25,26
 404 1631 404 1631 402 1608.5 c 128,-1,27
 400 1586 400 1586 398.5 1540.5 c 128,-1,28
 397 1495 397 1495 395.5 1432 c 128,-1,29
 394 1369 394 1369 392.5 1294.5 c 128,-1,30
 391 1220 391 1220 390 1148 c 0,31,32
 387 934 387 934 387 915 c 1,33,34
 432 1005 432 1005 512 1070 c 1,35,36
 603 1146 603 1146 697 1146 c 0,37,38
 855 1146 855 1146 932 986 c 0,39,40
 974 900 974 900 990 819.5 c 128,-1,41
 1006 739 1006 739 1028 619 c 0,42,43
 1084 301 1084 301 1089.5 282.5 c 128,-1,44
 1095 264 1095 264 1107.5 246 c 128,-1,45
 1120 228 1120 228 1136 211 c 0,46,47
 1174 173 1174 173 1195 162 c 0,48,49
 1258 131 1258 131 1221 98 c 0,50,51
 1208 87 1208 87 1122.5 72 c 128,-1,52
 1037 57 1037 57 1014 45 c 0,53,54
 982 29 982 29 964 29 c 0,55,56
 912 29 912 29 938 89 c 2,57,-1
 970 160 l 1,58,59
 994 224 994 224 995 243.5 c 128,-1,60
 996 263 996 263 993 288.5 c 128,-1,61
 990 314 990 314 985.5 350 c 128,-1,62
 981 386 981 386 975 429.5 c 128,-1,63
 969 473 969 473 962 516 c 0,64,65
 926 740 926 740 905.5 804.5 c 128,-1,66
 885 869 885 869 865.5 909.5 c 128,-1,67
 846 950 846 950 820 982 c 0,68,69
 762 1052 762 1052 682 1052 c 0,70,71
 588 1052 588 1052 514 956 c 1,72,73
 435 856 435 856 393 686 c 0,74,75
 374 610 374 610 371 460 c 1,76,-1
 365 238 l 1,77,78
 365 187 365 187 452 94 c 0,79,80
 468 76 468 76 468 55 c 0,81,82
 468 26 468 26 437 26 c 1,83,-1
 314 33 l 1,0,-1
EndSplineSet
EndChar

StartChar: k
Encoding: 107 107 100
Width: 1105
GlyphClass: 2
Flags: W
LayerCount: 2
Fore
SplineSet
264 35 m 1,0,-1
 146 29 l 1,1,2
 114 29 114 29 114 55 c 0,3,4
 114 75 114 75 129 95.5 c 128,-1,5
 144 116 144 116 162 139 c 0,6,7
 211 199 211 199 213 228 c 128,-1,8
 215 257 215 257 216 304.5 c 128,-1,9
 217 352 217 352 217.5 422 c 128,-1,10
 218 492 218 492 219 579.5 c 128,-1,11
 220 667 220 667 220 762 c 0,12,13
 222 1047 222 1047 222 1144 c 2,14,-1
 222 1322 l 2,15,16
 222 1403 222 1403 220 1463 c 1,17,-1
 154 1549 l 2,18,19
 111 1605 111 1605 111 1630 c 0,20,21
 111 1664 111 1664 140 1657 c 0,22,23
 239 1634 239 1634 370 1658 c 0,24,25
 424 1668 424 1668 424 1641 c 0,26,27
 424 1613 424 1613 391 1570 c 128,-1,28
 358 1527 358 1527 340 1502 c 128,-1,29
 322 1477 322 1477 316 1452 c 1,30,-1
 311 738 l 1,31,32
 547 920 547 920 726 1099 c 0,33,34
 745 1118 745 1118 755.5 1196.5 c 128,-1,35
 766 1275 766 1275 778 1287.5 c 128,-1,36
 790 1300 790 1300 808.5 1300 c 128,-1,37
 827 1300 827 1300 842 1281 c 128,-1,38
 857 1262 857 1262 874 1234 c 0,39,40
 926 1149 926 1149 967.5 1117 c 128,-1,41
 1009 1085 1009 1085 1009 1063 c 0,42,43
 1009 1028 1009 1028 950 1028 c 1,44,-1
 879 1033 l 1,45,46
 822 1033 822 1033 803 1022 c 128,-1,47
 784 1011 784 1011 760.5 993 c 128,-1,48
 737 975 737 975 703 947 c 128,-1,49
 669 919 669 919 627 884.5 c 128,-1,50
 585 850 585 850 542 814 c 0,51,52
 472 757 472 757 380 678 c 1,53,54
 788 325 788 325 881 258 c 0,55,56
 905 241 905 241 942 238 c 128,-1,57
 979 235 979 235 1014.5 233 c 128,-1,58
 1050 231 1050 231 1075.5 225 c 128,-1,59
 1101 219 1101 219 1101 198.5 c 128,-1,60
 1101 178 1101 178 1084 160.5 c 128,-1,61
 1067 143 1067 143 1044 124 c 0,62,63
 976 69 976 69 961 41 c 0,64,65
 914 -51 914 -51 874 -8 c 0,66,67
 859 7 859 7 853 53 c 128,-1,68
 847 99 847 99 844 118 c 0,69,70
 837 163 837 163 823 179 c 1,71,-1
 500 460 l 2,72,73
 408 540 408 540 309 627 c 1,74,75
 307 421 307 421 307 239 c 0,76,77
 307 218 307 218 342 169 c 0,78,79
 407 76 407 76 407 51 c 128,-1,80
 407 26 407 26 379 26 c 1,81,-1
 264 35 l 1,0,-1
EndSplineSet
EndChar

StartChar: l
Encoding: 108 108 101
Width: 863
GlyphClass: 2
Flags: W
LayerCount: 2
Fore
SplineSet
853 25 m 1,0,1
 815 25 815 25 778 33 c 128,-1,2
 741 41 741 41 686 41 c 1,3,4
 670 39 670 39 621 19 c 0,5,6
 529 -20 529 -20 455 -18 c 128,-1,7
 381 -16 381 -16 327 16.5 c 128,-1,8
 273 49 273 49 240 112 c 0,9,10
 176 231 176 231 176 487 c 1,11,-1
 190 1411 l 1,12,13
 190 1615 190 1615 171 1667 c 0,14,15
 158 1703 158 1703 137 1717 c 128,-1,16
 116 1731 116 1731 94 1747 c 128,-1,17
 72 1763 72 1763 72 1784 c 0,18,19
 72 1818 72 1818 134 1818 c 1,20,-1
 209 1814 l 1,21,-1
 377 1821 l 1,22,23
 427 1821 427 1821 427 1787 c 0,24,25
 427 1766 427 1766 407.5 1750.5 c 128,-1,26
 388 1735 388 1735 363 1716 c 0,27,28
 296 1665 296 1665 289 1600 c 0,29,30
 273 1464 273 1464 273 487 c 0,31,32
 273 96 273 96 430 74 c 1,33,34
 487 65 487 65 518 74.5 c 128,-1,35
 549 84 549 84 571 94 c 0,36,37
 587 101 587 101 644 132 c 0,38,39
 663 142 663 142 675.5 171.5 c 128,-1,40
 688 201 688 201 701 244.5 c 128,-1,41
 714 288 714 288 728 298.5 c 128,-1,42
 742 309 742 309 757.5 309 c 128,-1,43
 773 309 773 309 781.5 295 c 128,-1,44
 790 281 790 281 800 255 c 0,45,46
 831 168 831 168 856 133 c 0,47,48
 928 33 928 33 853 25 c 1,0,1
EndSplineSet
EndChar

StartChar: m
Encoding: 109 109 102
Width: 1676
GlyphClass: 2
Flags: W
LayerCount: 2
Fore
SplineSet
376 693 m 1,0,1
 383 457 383 457 383 201 c 0,2,3
 383 158 383 158 412 116 c 128,-1,4
 441 74 441 74 454.5 54.5 c 128,-1,5
 468 35 468 35 468 19.5 c 128,-1,6
 468 4 468 4 456.5 -9 c 128,-1,7
 445 -22 445 -22 424 -22 c 1,8,-1
 307 -10 l 1,9,10
 281 -10 281 -10 263 -17 c 128,-1,11
 245 -24 245 -24 225.5 -24 c 128,-1,12
 206 -24 206 -24 189 -13 c 128,-1,13
 172 -2 172 -2 172 13 c 0,14,15
 172 38 172 38 187.5 60 c 128,-1,16
 203 82 203 82 220 102.5 c 128,-1,17
 237 123 237 123 250 141 c 0,18,19
 281 182 281 182 284 218 c 0,20,21
 306 498 306 498 276 992 c 0,22,23
 267 1147 267 1147 256.5 1163 c 128,-1,24
 246 1179 246 1179 234 1192 c 2,25,-1
 176 1250 l 2,26,27
 153 1273 153 1273 153 1296 c 0,28,29
 153 1325 153 1325 190 1325 c 1,30,-1
 267 1317 l 1,31,32
 333 1317 333 1317 374 1332 c 0,33,34
 473 1366 473 1366 473 1315 c 0,35,36
 473 1296 473 1296 438 1266 c 0,37,38
 352 1191 352 1191 352 1141.5 c 128,-1,39
 352 1092 352 1092 358.5 1028.5 c 128,-1,40
 365 965 365 965 369 896 c 1,41,42
 468 1110 468 1110 604 1172 c 0,43,44
 641 1189 641 1189 686.5 1189 c 128,-1,45
 732 1189 732 1189 765.5 1168.5 c 128,-1,46
 799 1148 799 1148 822 1116 c 0,47,48
 861 1063 861 1063 888 963 c 1,49,50
 915 1047 915 1047 966 1100 c 0,51,52
 1064 1200 1064 1200 1163 1200 c 0,53,54
 1267 1200 1267 1200 1334 1060 c 0,55,56
 1397 928 1397 928 1405 731 c 1,57,-1
 1420 418 l 2,58,59
 1426 295 1426 295 1439 95 c 1,60,61
 1499 5 1499 5 1526 -7 c 1,62,63
 1554 -22 1554 -22 1554 -50 c 128,-1,64
 1554 -78 1554 -78 1531.5 -87 c 128,-1,65
 1509 -96 1509 -96 1477.5 -99 c 128,-1,66
 1446 -102 1446 -102 1413.5 -104 c 128,-1,67
 1381 -106 1381 -106 1364 -114 c 0,68,69
 1325 -133 1325 -133 1305 -133 c 0,70,71
 1249 -133 1249 -133 1281 -56 c 0,72,73
 1331 67 1331 67 1343 107 c 1,74,75
 1343 1100 1343 1100 1160 1106 c 1,76,77
 1017 1106 1017 1106 937 890 c 0,78,79
 925 857 925 857 920 836 c 2,80,-1
 915 814 l 1,81,-1
 914 678 l 1,82,-1
 913 502 l 1,83,84
 913 242 913 242 925 216.5 c 128,-1,85
 937 191 937 191 954 169.5 c 128,-1,86
 971 148 971 148 987 131 c 0,87,88
 1025 91 1025 91 1025 74 c 0,89,90
 1025 37 1025 37 965 37 c 1,91,-1
 861 41 l 1,92,-1
 765 28 l 1,93,94
 713 28 713 28 713 67 c 0,95,96
 713 89 713 89 734 114 c 1,97,98
 765 148 765 148 823 233 c 1,99,-1
 828 485 l 1,100,101
 828 695 828 695 821 770.5 c 128,-1,102
 814 846 814 846 803 900 c 128,-1,103
 792 954 792 954 775 997 c 0,104,105
 737 1094 737 1094 679 1094 c 0,106,107
 619 1094 619 1094 567 1045 c 0,108,109
 511 993 511 993 474 921 c 0,110,111
 405 787 405 787 376 693 c 1,0,1
EndSplineSet
EndChar

StartChar: n
Encoding: 110 110 103
Width: 1418
GlyphClass: 2
Flags: W
LayerCount: 2
Fore
SplineSet
425 -7 m 0,0,1
 425 -35 425 -35 394 -35 c 1,2,-1
 342 -30 l 1,3,-1
 162 -23 l 2,4,5
 107 -20 107 -20 156 47 c 1,6,-1
 218 138 l 1,7,8
 235 161 235 161 238 179.5 c 128,-1,9
 241 198 241 198 244 237 c 128,-1,10
 247 276 247 276 250 334.5 c 128,-1,11
 253 393 253 393 256.5 466 c 128,-1,12
 260 539 260 539 264 617 c 128,-1,13
 268 695 268 695 271 773.5 c 128,-1,14
 274 852 274 852 276 920 c 0,15,16
 282 1070 282 1070 282 1145 c 1,17,18
 275 1175 275 1175 242 1217.5 c 128,-1,19
 209 1260 209 1260 195 1277.5 c 128,-1,20
 181 1295 181 1295 181 1304 c 0,21,22
 181 1326 181 1326 212 1326 c 128,-1,23
 243 1326 243 1326 277.5 1326.5 c 128,-1,24
 312 1327 312 1327 346 1328 c 1,25,-1
 477 1340 l 1,26,27
 534 1340 534 1340 489 1270 c 1,28,-1
 392 1160 l 1,29,30
 377 1141 377 1141 376 1132.5 c 128,-1,31
 375 1124 375 1124 373.5 1095.5 c 128,-1,32
 372 1067 372 1067 370 1028 c 1,33,34
 366 978 366 978 363 872 c 1,35,36
 416 1001 416 1001 510 1108 c 0,37,38
 629 1242 629 1242 765 1242 c 0,39,40
 962 1242 962 1242 1064 959 c 0,41,42
 1095 874 1095 874 1116.5 756 c 128,-1,43
 1138 638 1138 638 1151.5 558.5 c 128,-1,44
 1165 479 1165 479 1173 430 c 0,45,46
 1188 342 1188 342 1191 330 c 128,-1,47
 1194 318 1194 318 1206.5 300 c 128,-1,48
 1219 282 1219 282 1235 265 c 0,49,50
 1269 229 1269 229 1300 214.5 c 128,-1,51
 1331 200 1331 200 1331 177.5 c 128,-1,52
 1331 155 1331 155 1312.5 148 c 128,-1,53
 1294 141 1294 141 1262 136 c 0,54,55
 1160 122 1160 122 1125 105 c 0,56,57
 1082 84 1082 84 1063 84 c 0,58,59
 1014 84 1014 84 1032 133 c 1,60,-1
 1052 176 l 1,61,62
 1094 276 1094 276 1094 300 c 128,-1,63
 1094 324 1094 324 1090.5 356.5 c 128,-1,64
 1087 389 1087 389 1082 431 c 0,65,66
 1070 528 1070 528 1058.5 580.5 c 128,-1,67
 1047 633 1047 633 1038 689 c 128,-1,68
 1029 745 1029 745 1016 807 c 128,-1,69
 1003 869 1003 869 983 929.5 c 128,-1,70
 963 990 963 990 932 1039 c 0,71,72
 865 1148 865 1148 755 1148 c 0,73,74
 586 1148 586 1148 458 878 c 0,75,76
 364 681 364 681 355 546 c 0,77,78
 334 231 334 231 334 202 c 128,-1,79
 334 173 334 173 344 150 c 128,-1,80
 354 127 354 127 367 103 c 1,81,-1
 420 15 l 1,82,83
 425 4 425 4 425 -7 c 0,0,1
EndSplineSet
EndChar

StartChar: o
Encoding: 111 111 104
Width: 1253
GlyphClass: 2
Flags: W
LayerCount: 2
Fore
SplineSet
667 115.5 m 128,-1,1
 622 111 622 111 601 111 c 128,-1,2
 580 111 580 111 536 117 c 128,-1,3
 492 123 492 123 440 140.5 c 128,-1,4
 388 158 388 158 334 191.5 c 128,-1,5
 280 225 280 225 236 280 c 0,6,7
 136 403 136 403 136 602 c 0,8,9
 136 792 136 792 262 939 c 1,10,11
 377 1075 377 1075 516 1098 c 1,12,13
 604 1125 604 1125 723 1107 c 0,14,15
 837 1089 837 1089 934 1018 c 0,16,17
 1045 938 1045 938 1092 776 c 0,18,19
 1116 691 1116 691 1116 580 c 128,-1,20
 1116 469 1116 469 1083 392.5 c 128,-1,21
 1050 316 1050 316 999 264.5 c 128,-1,22
 948 213 948 213 887 182.5 c 128,-1,23
 826 152 826 152 769 136 c 128,-1,0
 712 120 712 120 667 115.5 c 128,-1,1
544 210.5 m 128,-1,25
 581 204 581 204 601 204 c 128,-1,26
 621 204 621 204 657.5 208 c 128,-1,27
 694 212 694 212 739.5 225 c 128,-1,28
 785 238 785 238 834.5 262.5 c 128,-1,29
 884 287 884 287 925 329 c 0,30,31
 1019 425 1019 425 1019 581 c 0,32,33
 1019 900 1019 900 790 990 c 0,34,35
 615 1058 615 1058 432 961 c 0,36,37
 407 948 407 948 388 939 c 1,38,39
 317 890 317 890 274 785 c 0,40,41
 237 695 237 695 237 606.5 c 128,-1,42
 237 518 237 518 257.5 456.5 c 128,-1,43
 278 395 278 395 310.5 351 c 128,-1,44
 343 307 343 307 384 278.5 c 128,-1,45
 425 250 425 250 466 233.5 c 128,-1,24
 507 217 507 217 544 210.5 c 128,-1,25
EndSplineSet
Substitution2: "Single Substitution lookup 5 subtable" ordmasculine
Substitution2: "'aalt' Access All Alternates in Latin lookup 0 subtable" ordmasculine
EndChar

StartChar: p
Encoding: 112 112 105
Width: 1169
GlyphClass: 2
Flags: W
LayerCount: 2
Fore
SplineSet
150 -417 m 1,0,1
 97 -417 97 -417 97 -388 c 0,2,3
 97 -369 97 -369 120.5 -347.5 c 128,-1,4
 144 -326 144 -326 172 -300 c 0,5,6
 247 -232 247 -232 247 -176 c 2,7,-1
 246 -30 l 1,8,-1
 242 304 l 1,9,-1
 237 705 l 2,10,11
 232 1175 232 1175 228 1194.5 c 128,-1,12
 224 1214 224 1214 215 1228.5 c 128,-1,13
 206 1243 206 1243 194 1256 c 2,14,-1
 148 1306 l 1,15,16
 102 1352 102 1352 102 1373 c 0,17,18
 102 1405 102 1405 143 1405 c 1,19,-1
 238 1394 l 1,20,21
 282 1394 282 1394 315.5 1401 c 128,-1,22
 349 1408 349 1408 371 1408 c 0,23,24
 442 1408 442 1408 442 1370 c 0,25,26
 442 1347 442 1347 414 1325 c 128,-1,27
 386 1303 386 1303 368.5 1287 c 128,-1,28
 351 1271 351 1271 342 1258 c 0,29,30
 324 1233 324 1233 324 1217 c 128,-1,31
 324 1201 324 1201 324.5 1180 c 128,-1,32
 325 1159 325 1159 326 1132 c 2,33,-1
 328 1015 l 1,34,35
 377 1114 377 1114 483 1170 c 0,36,37
 606 1236 606 1236 760 1214 c 0,38,39
 979 1184 979 1184 1043 976 c 0,40,41
 1062 914 1062 914 1062 834.5 c 128,-1,42
 1062 755 1062 755 1042 699.5 c 128,-1,43
 1022 644 1022 644 989.5 603.5 c 128,-1,44
 957 563 957 563 915.5 536 c 128,-1,45
 874 509 874 509 832 493 c 0,46,47
 757 464 757 464 713.5 464 c 128,-1,48
 670 464 670 464 644.5 465.5 c 128,-1,49
 619 467 619 467 587 473 c 128,-1,50
 555 479 555 479 519.5 490.5 c 128,-1,51
 484 502 484 502 450 521 c 0,52,53
 371 565 371 565 332 636 c 1,54,-1
 335 462 l 2,55,56
 340 211 340 211 341 49.5 c 128,-1,57
 342 -112 342 -112 345.5 -160.5 c 128,-1,58
 349 -209 349 -209 359.5 -231 c 128,-1,59
 370 -253 370 -253 386 -271 c 1,60,-1
 457 -344 l 1,61,62
 479 -370 479 -370 479 -389 c 0,63,64
 479 -424 479 -424 422 -424 c 0,65,66
 416 -424 416 -424 378 -417 c 128,-1,67
 340 -410 340 -410 264 -410 c 1,68,-1
 150 -417 l 1,0,1
858 604 m 0,69,70
 888 624 888 624 912 654 c 1,71,72
 964 723 964 723 964 810 c 128,-1,73
 964 897 964 897 949.5 945.5 c 128,-1,74
 935 994 935 994 910.5 1027.5 c 128,-1,75
 886 1061 886 1061 855.5 1081 c 128,-1,76
 825 1101 825 1101 794 1112 c 0,77,78
 742 1130 742 1130 675.5 1130 c 128,-1,79
 609 1130 609 1130 549.5 1102 c 128,-1,80
 490 1074 490 1074 446 1031 c 0,81,82
 353 939 353 939 353 836 c 0,83,84
 353 640 353 640 552 575 c 0,85,86
 726 519 726 519 858 604 c 0,69,70
EndSplineSet
EndChar

StartChar: q
Encoding: 113 113 106
Width: 1074
GlyphClass: 2
Flags: W
LayerCount: 2
Fore
SplineSet
636 -285 m 1,0,1
 580 -285 580 -285 580 -252 c 0,2,3
 580 -217 580 -217 631 -188 c 0,4,5
 684 -159 684 -159 698 -135 c 0,6,7
 719 -101 719 -101 721 -40 c 2,8,-1
 735 643 l 1,9,10
 667 564 667 564 524 542 c 0,11,12
 385 521 385 521 260 592 c 0,13,14
 169 644 169 644 128 754 c 0,15,16
 106 812 106 812 106 897.5 c 128,-1,17
 106 983 106 983 141.5 1050.5 c 128,-1,18
 177 1118 177 1118 231 1164 c 0,19,20
 340 1255 340 1255 474 1255 c 0,21,22
 648 1255 648 1255 746 1132 c 1,23,-1
 747 1206 l 1,24,-1
 747 1273 l 2,25,26
 747 1323 747 1323 679 1368 c 128,-1,27
 611 1413 611 1413 611 1451 c 0,28,29
 611 1477 611 1477 649 1477 c 1,30,-1
 736 1468 l 1,31,-1
 918 1478 l 1,32,33
 978 1478 978 1478 978 1447 c 0,34,35
 978 1407 978 1407 949 1394 c 0,36,37
 889 1368 889 1368 865.5 1320 c 128,-1,38
 842 1272 842 1272 842 1194 c 1,39,-1
 819 -19 l 1,40,-1
 819 -68 l 2,41,42
 819 -121 819 -121 832.5 -140 c 128,-1,43
 846 -159 846 -159 862 -169.5 c 128,-1,44
 878 -180 878 -180 895.5 -188 c 128,-1,45
 913 -196 913 -196 928 -206 c 0,46,47
 963 -228 963 -228 963 -253 c 128,-1,48
 963 -278 963 -278 947.5 -285.5 c 128,-1,49
 932 -293 932 -293 893 -293 c 1,50,-1
 798 -283 l 1,51,-1
 731 -282 l 1,52,-1
 636 -285 l 1,0,1
389 637.5 m 128,-1,54
 434 626 434 626 461 626 c 128,-1,55
 488 626 488 626 516 629 c 128,-1,56
 544 632 544 632 574 641 c 128,-1,57
 604 650 604 650 632.5 667.5 c 128,-1,58
 661 685 661 685 684 714 c 0,59,60
 734 777 734 777 734 885 c 0,61,62
 734 1089 734 1089 576 1148 c 0,63,64
 526 1167 526 1167 465.5 1167 c 128,-1,65
 405 1167 405 1167 356.5 1140.5 c 128,-1,66
 308 1114 308 1114 274 1074 c 0,67,68
 206 994 206 994 206 905.5 c 128,-1,69
 206 817 206 817 234.5 764 c 128,-1,70
 263 711 263 711 303.5 680 c 128,-1,53
 344 649 344 649 389 637.5 c 128,-1,54
EndSplineSet
EndChar

StartChar: r
Encoding: 114 114 107
Width: 983
GlyphClass: 2
Flags: W
LayerCount: 2
Fore
SplineSet
438 82 m 1,0,-1
 266 92 l 1,1,2
 210 92 210 92 197 89 c 0,3,4
 140 77 140 77 140 113 c 0,5,6
 140 134 140 134 173.5 167 c 128,-1,7
 207 200 207 200 233 230.5 c 128,-1,8
 259 261 259 261 262 280 c 0,9,10
 266 301 266 301 271 578 c 0,11,12
 280 1089 280 1089 275 1127.5 c 128,-1,13
 270 1166 270 1166 262 1183 c 0,14,15
 252 1205 252 1205 220.5 1226.5 c 128,-1,16
 189 1248 189 1248 173.5 1259.5 c 128,-1,17
 158 1271 158 1271 158 1282.5 c 128,-1,18
 158 1294 158 1294 160 1300 c 128,-1,19
 162 1306 162 1306 168 1312 c 0,20,21
 182 1326 182 1326 208 1326 c 1,22,-1
 287 1318 l 1,23,24
 344 1318 344 1318 374.5 1327.5 c 128,-1,25
 405 1337 405 1337 420 1337 c 128,-1,26
 435 1337 435 1337 449.5 1328 c 128,-1,27
 464 1319 464 1319 464 1303.5 c 128,-1,28
 464 1288 464 1288 450.5 1274.5 c 128,-1,29
 437 1261 437 1261 420 1245 c 0,30,31
 371 1199 371 1199 362 1168 c 1,32,-1
 357 951 l 1,33,34
 421 1115 421 1115 532 1195 c 0,35,36
 615 1254 615 1254 701 1257 c 0,37,38
 725 1257 725 1257 833 1347 c 1,39,-1
 834 1347 l 1,40,41
 842 1353 842 1353 851 1360.5 c 128,-1,42
 860 1368 860 1368 873 1368 c 0,43,44
 903 1368 903 1368 903 1327 c 1,45,-1
 898 1186 l 1,46,-1
 901 1123 l 2,47,48
 901 1106 901 1106 892 1092 c 0,49,50
 872 1060 872 1060 830 1093 c 1,51,-1
 830 1092 l 1,52,53
 792 1133 792 1133 748 1151 c 128,-1,54
 704 1169 704 1169 679 1169 c 128,-1,55
 654 1169 654 1169 616 1148 c 128,-1,56
 578 1127 578 1127 544.5 1092.5 c 128,-1,57
 511 1058 511 1058 482 1013.5 c 128,-1,58
 453 969 453 969 431 921 c 0,59,60
 385 821 385 821 379.5 750 c 128,-1,61
 374 679 374 679 370.5 623.5 c 128,-1,62
 367 568 367 568 364 513 c 0,63,64
 352 284 352 284 362 263 c 128,-1,65
 372 242 372 242 384 225 c 2,66,-1
 457 126 l 1,67,68
 482 82 482 82 438 82 c 1,0,-1
EndSplineSet
EndChar

StartChar: s
Encoding: 115 115 108
Width: 852
GlyphClass: 2
Flags: W
LayerCount: 2
Fore
SplineSet
663 1126 m 1,0,1
 663 1096 663 1096 646.5 1096 c 128,-1,2
 630 1096 630 1096 612.5 1110 c 128,-1,3
 595 1124 595 1124 578 1141 c 0,4,5
 531 1186 531 1186 515 1187.5 c 128,-1,6
 499 1189 499 1189 476 1186.5 c 128,-1,7
 453 1184 453 1184 427 1177 c 128,-1,8
 401 1170 401 1170 374 1158 c 128,-1,9
 347 1146 347 1146 326 1126 c 1,10,11
 276 1082 276 1082 276 1014 c 0,12,13
 276 936 276 936 412 834 c 0,14,15
 518 754 518 754 563 713 c 128,-1,16
 608 672 608 672 638 632 c 0,17,18
 705 541 705 541 705 438 c 0,19,20
 705 243 705 243 487 152 c 0,21,22
 417 122 417 122 379 122 c 128,-1,23
 341 122 341 122 313.5 102 c 128,-1,24
 286 82 286 82 263 58.5 c 128,-1,25
 240 35 240 35 222.5 15 c 128,-1,26
 205 -5 205 -5 195.5 -5 c 128,-1,27
 186 -5 186 -5 180 0 c 128,-1,28
 174 5 174 5 170 12 c 0,29,30
 162 28 162 28 162 41 c 2,31,-1
 157 218 l 1,32,33
 157 340 157 340 198 308 c 0,34,35
 208 301 208 301 224.5 280 c 128,-1,36
 241 259 241 259 251.5 248 c 128,-1,37
 262 237 262 237 277 230 c 0,38,39
 338 201 338 201 440 231 c 0,40,41
 559 266 559 266 602 358 c 0,42,43
 670 503 670 503 476 668 c 1,44,-1
 323 787 l 1,45,46
 183 898 183 898 183 1014 c 0,47,48
 183 1188 183 1188 375 1252 c 0,49,50
 436 1273 436 1273 487 1273 c 0,51,52
 499 1273 499 1273 539.5 1311 c 128,-1,53
 580 1349 580 1349 595 1362 c 0,54,55
 631 1393 631 1393 638 1393 c 0,56,57
 656 1393 656 1393 656 1330 c 2,58,-1
 655 1248 l 1,59,-1
 663 1126 l 1,0,1
EndSplineSet
EndChar

StartChar: t
Encoding: 116 116 109
Width: 1219
GlyphClass: 2
Flags: W
LayerCount: 2
Fore
SplineSet
329 392 m 1,0,-1
 330 423 l 1,1,2
 335 541 335 541 345.5 657.5 c 128,-1,3
 356 774 356 774 365 899 c 1,4,5
 308 900 308 900 286 900 c 2,6,7
 286 900 286 900 258 900 c 0,8,9
 219 900 219 900 196.5 882.5 c 128,-1,10
 174 865 174 865 159 848 c 0,11,12
 109 794 109 794 83 794 c 0,13,14
 51 794 51 794 51 827 c 0,15,16
 51 848 51 848 65.5 904.5 c 128,-1,17
 80 961 80 961 80 1009 c 1,18,-1
 74 1076 l 1,19,20
 74 1112 74 1112 97 1112 c 0,21,22
 111 1112 111 1112 149 1068.5 c 128,-1,23
 187 1025 187 1025 207 1005.5 c 128,-1,24
 227 986 227 986 242 986 c 0,25,26
 304 986 304 986 370 982 c 1,27,28
 387 1203 387 1203 387 1262 c 0,29,30
 387 1287 387 1287 311 1368 c 1,31,32
 286 1393 286 1393 286 1414 c 0,33,34
 286 1450 286 1450 343 1450 c 0,35,36
 358 1450 358 1450 383.5 1444 c 128,-1,37
 409 1438 409 1438 444 1438 c 1,38,-1
 567 1447 l 1,39,40
 611 1447 611 1447 611 1413 c 0,41,42
 611 1392 611 1392 592.5 1372 c 128,-1,43
 574 1352 574 1352 568 1349 c 0,44,45
 544 1337 544 1337 520.5 1302 c 128,-1,46
 497 1267 497 1267 493.5 1256.5 c 128,-1,47
 490 1246 490 1246 487 1219.5 c 128,-1,48
 484 1193 484 1193 480 1156 c 1,49,-1
 466 977 l 1,50,51
 768 963 768 963 813 967.5 c 128,-1,52
 858 972 858 972 884.5 992 c 128,-1,53
 911 1012 911 1012 925.5 1025 c 128,-1,54
 940 1038 940 1038 948 1046.5 c 128,-1,55
 956 1055 956 1055 966 1062 c 0,56,57
 988 1080 988 1080 1006 1080 c 0,58,59
 1040 1080 1040 1080 1040 1015 c 1,60,-1
 1033 896 l 1,61,62
 1033 871 1033 871 1039 848 c 0,63,64
 1061 767 1061 767 1007 767 c 0,65,66
 987 767 987 767 966 783 c 128,-1,67
 945 799 945 799 920 818 c 0,68,69
 846 876 846 876 825 878 c 1,70,-1
 460 895 l 1,71,-1
 440 623 l 1,72,73
 418 404 418 404 432.5 330 c 128,-1,74
 447 256 447 256 472 216 c 0,75,76
 528 125 528 125 650 125 c 0,77,78
 741 125 741 125 842 191 c 0,79,80
 865 206 865 206 876 216.5 c 128,-1,81
 887 227 887 227 901.5 260 c 128,-1,82
 916 293 916 293 921 347 c 128,-1,83
 926 401 926 401 957 401 c 0,84,85
 980 401 980 401 993 378 c 1,86,-1
 1041 281 l 1,87,88
 1066 235 1066 235 1094.5 210.5 c 128,-1,89
 1123 186 1123 186 1131.5 178 c 128,-1,90
 1140 170 1140 170 1140 158 c 0,91,92
 1140 125 1140 125 1084 125 c 1,93,-1
 977 132 l 1,94,95
 910 132 910 132 862 105 c 0,96,97
 648 -15 648 -15 494 62 c 0,98,99
 329 145 329 145 329 392 c 1,0,-1
EndSplineSet
EndChar

StartChar: u
Encoding: 117 117 110
Width: 1357
GlyphClass: 2
Flags: W
LayerCount: 2
Fore
SplineSet
935 246 m 1,0,-1
 936 269 l 1,1,-1
 909 724 l 1,2,-1
 859 582 l 1,3,4
 791 393 791 393 762.5 339.5 c 128,-1,5
 734 286 734 286 708 249.5 c 128,-1,6
 682 213 682 213 649 184 c 0,7,8
 574 120 574 120 488 120 c 0,9,10
 231 120 231 120 231 602 c 1,11,-1
 243 1090 l 2,12,13
 243 1125 243 1125 217 1152 c 128,-1,14
 191 1179 191 1179 174 1197 c 0,15,16
 143 1228 143 1228 143 1249 c 0,17,18
 143 1282 143 1282 199 1282 c 1,19,-1
 264 1279 l 1,20,21
 340 1279 340 1279 386 1291 c 128,-1,22
 432 1303 432 1303 442 1303 c 0,23,24
 467 1303 467 1303 467 1283 c 0,25,26
 467 1248 467 1248 404 1188 c 0,27,28
 380 1166 380 1166 359 1144 c 128,-1,29
 338 1122 338 1122 336 1105.5 c 128,-1,30
 334 1089 334 1089 331.5 1042 c 128,-1,31
 329 995 329 995 326 930 c 0,32,33
 314 609 314 609 322.5 519.5 c 128,-1,34
 331 430 331 430 341.5 384.5 c 128,-1,35
 352 339 352 339 370 304 c 0,36,37
 412 224 412 224 488 224 c 0,38,39
 657 224 657 224 803 668 c 0,40,41
 931 1058 931 1058 873 1152 c 0,42,43
 860 1172 860 1172 825 1195 c 0,44,45
 775 1228 775 1228 775 1254 c 0,46,47
 775 1293 775 1293 831 1293 c 1,48,-1
 880 1292 l 1,49,50
 953 1292 953 1292 992 1300 c 1,51,52
 1035 1310 1035 1310 1041 1310 c 0,53,54
 1072 1310 1072 1310 1072 1282 c 128,-1,55
 1072 1254 1072 1254 1039.5 1216 c 128,-1,56
 1007 1178 1007 1178 991.5 1154 c 128,-1,57
 976 1130 976 1130 975.5 1109 c 128,-1,58
 975 1088 975 1088 977 1048 c 128,-1,59
 979 1008 979 1008 982 950 c 128,-1,60
 985 892 985 892 989 821.5 c 128,-1,61
 993 751 993 751 997.5 678 c 128,-1,62
 1002 605 1002 605 1007 534.5 c 128,-1,63
 1012 464 1012 464 1016 406 c 0,64,65
 1027 273 1027 273 1031 253.5 c 128,-1,66
 1035 234 1035 234 1040.5 219 c 128,-1,67
 1046 204 1046 204 1054 192 c 1,68,-1
 1116 119 l 1,69,70
 1134 83 1134 83 1098 72 c 1,71,72
 1071 65 1071 65 1001.5 65 c 128,-1,73
 932 65 932 65 907 58 c 0,74,75
 837 36 837 36 837 78 c 0,76,77
 837 102 837 102 847.5 114.5 c 128,-1,78
 858 127 858 127 871 143 c 128,-1,79
 884 159 884 159 898 178 c 0,80,81
 933 226 933 226 935 246 c 1,0,-1
EndSplineSet
EndChar

StartChar: v
Encoding: 118 118 111
Width: 1228
GlyphClass: 2
Flags: W
LayerCount: 2
Fore
SplineSet
909 1365 m 0,0,1
 909 1402 909 1402 949 1402 c 0,2,3
 975 1402 975 1402 997.5 1383 c 128,-1,4
 1020 1364 1020 1364 1053.5 1350 c 128,-1,5
 1087 1336 1087 1336 1120 1322 c 0,6,7
 1204 1285 1204 1285 1204 1267 c 0,8,9
 1204 1235 1204 1235 1150 1215 c 1,10,-1
 1085 1194 l 1,11,12
 1061 1180 1061 1180 1051.5 1153 c 128,-1,13
 1042 1126 1042 1126 1019.5 1066 c 128,-1,14
 997 1006 997 1006 965.5 925.5 c 128,-1,15
 934 845 934 845 896.5 750.5 c 128,-1,16
 859 656 859 656 820 561 c 0,17,18
 725 324 725 324 689 244 c 0,19,20
 641 135 641 135 596 28 c 1,21,22
 581 7 581 7 556 7 c 0,23,24
 505 7 505 7 496 38 c 1,25,26
 329 515 329 515 136 1116 c 0,27,28
 123 1155 123 1155 98 1175 c 1,29,-1
 20 1232 l 2,30,31
 -4 1250 -4 1250 -4 1275 c 0,32,33
 -4 1308 -4 1308 49 1308 c 1,34,-1
 101 1307 l 1,35,36
 186 1307 186 1307 234.5 1313.5 c 128,-1,37
 283 1320 283 1320 288 1320 c 0,38,39
 332 1320 332 1320 332 1289 c 0,40,41
 332 1267 332 1267 303.5 1244 c 128,-1,42
 275 1221 275 1221 261 1208 c 0,43,44
 218 1168 218 1168 227 1151 c 1,45,46
 296 887 296 887 514 281 c 0,47,48
 540 207 540 207 556 165 c 1,49,50
 900 976 900 976 947 1195 c 0,51,52
 952 1220 952 1220 940 1256 c 0,53,54
 909 1347 909 1347 909 1365 c 0,0,1
EndSplineSet
EndChar

StartChar: w
Encoding: 119 119 112
Width: 1708
GlyphClass: 2
Flags: W
LayerCount: 2
Fore
SplineSet
1540 1522 m 1,0,1
 1614 1543 1614 1543 1614 1503 c 0,2,3
 1614 1479 1614 1479 1540 1348 c 0,4,5
 1514 1303 1514 1303 1514 1285 c 128,-1,6
 1514 1267 1514 1267 1516 1236.5 c 128,-1,7
 1518 1206 1518 1206 1520.5 1160 c 128,-1,8
 1523 1114 1523 1114 1526.5 1056 c 128,-1,9
 1530 998 1530 998 1532 936 c 0,10,11
 1543 671 1543 671 1534 573.5 c 128,-1,12
 1525 476 1525 476 1510 400 c 128,-1,13
 1495 324 1495 324 1470.5 252.5 c 128,-1,14
 1446 181 1446 181 1412 126 c 0,15,16
 1336 5 1336 5 1226 5 c 0,17,18
 1097 5 1097 5 1026 148 c 1,19,20
 977 249 977 249 957.5 326 c 128,-1,21
 938 403 938 403 927.5 448 c 128,-1,22
 917 493 917 493 908 530 c 1,23,-1
 889 621 l 1,24,-1
 870 516 l 1,25,26
 815 239 815 239 753 124 c 0,27,28
 702 31 702 31 669 2 c 0,29,30
 614 -47 614 -47 565 -47 c 0,31,32
 470 -47 470 -47 425 44 c 1,33,34
 366 159 366 159 299 518 c 1,35,36
 190 1036 190 1036 186 1086 c 1,37,38
 179 1133 179 1133 59 1188 c 0,39,40
 12 1209 12 1209 3.5 1219.5 c 128,-1,41
 -5 1230 -5 1230 -5 1242 c 0,42,43
 -5 1274 -5 1274 69 1283 c 0,44,45
 162 1295 162 1295 207.5 1315.5 c 128,-1,46
 253 1336 253 1336 274 1346 c 0,47,48
 380 1396 380 1396 380 1344 c 0,49,50
 380 1322 380 1322 360 1286.5 c 128,-1,51
 340 1251 340 1251 325.5 1222.5 c 128,-1,52
 311 1194 311 1194 302 1172 c 0,53,54
 286 1131 286 1131 286 1091 c 128,-1,55
 286 1051 286 1051 297 983 c 128,-1,56
 308 915 308 915 326 839 c 0,57,58
 329 823 329 823 404 520 c 1,59,-1
 443 321 l 1,60,61
 500 50 500 50 569 50 c 0,62,63
 614 50 614 50 684 196 c 1,64,65
 743 322 743 322 757 394.5 c 128,-1,66
 771 467 771 467 782 516.5 c 128,-1,67
 793 566 793 566 803 621 c 0,68,69
 847 863 847 863 816 1018 c 0,70,71
 806 1069 806 1069 730 1128 c 0,72,73
 714 1141 714 1141 700.5 1147.5 c 128,-1,74
 687 1154 687 1154 672.5 1169 c 128,-1,75
 658 1184 658 1184 658 1198 c 0,76,77
 658 1226 658 1226 716 1226 c 128,-1,78
 774 1226 774 1226 821.5 1230 c 128,-1,79
 869 1234 869 1234 906 1239 c 0,80,81
 1002 1252 1002 1252 1022 1252 c 0,82,83
 1068 1252 1068 1252 1012 1172 c 0,84,85
 986 1134 986 1134 960.5 1106 c 128,-1,86
 935 1078 935 1078 929.5 1071.5 c 128,-1,87
 924 1065 924 1065 922 1056 c 128,-1,88
 920 1047 920 1047 920 1031 c 2,89,-1
 920 985 l 2,90,91
 920 884 920 884 940 821 c 1,92,93
 979 589 979 589 997 510 c 0,94,95
 1042 320 1042 320 1108 197 c 1,96,97
 1136 142 1136 142 1192 118 c 1,98,99
 1277 84 1277 84 1333 193 c 1,100,101
 1390 308 1390 308 1406 369 c 0,102,103
 1483 658 1483 658 1434 1111 c 0,104,105
 1419 1248 1419 1248 1411 1267 c 128,-1,106
 1403 1286 1403 1286 1388 1297.5 c 128,-1,107
 1373 1309 1373 1309 1354 1319 c 128,-1,108
 1335 1329 1335 1329 1315 1338.5 c 128,-1,109
 1295 1348 1295 1348 1278 1358 c 1,110,111
 1216 1399 1216 1399 1252 1429 c 0,112,113
 1264 1439 1264 1439 1297.5 1445 c 128,-1,114
 1331 1451 1331 1451 1361 1458.5 c 128,-1,115
 1391 1466 1391 1466 1416 1474 c 1,116,-1
 1540 1522 l 1,0,1
EndSplineSet
EndChar

StartChar: x
Encoding: 120 120 113
Width: 1549
GlyphClass: 2
Flags: W
LayerCount: 2
Fore
SplineSet
324 135 m 1,0,1
 324 66 324 66 282 66 c 0,2,3
 248 66 248 66 224 110 c 1,4,5
 207 137 207 137 111 161 c 0,6,7
 54 176 54 176 54 211 c 0,8,9
 54 238 54 238 124 262 c 0,10,11
 152 271 152 271 183 280 c 128,-1,12
 214 289 214 289 236 301 c 1,13,14
 387 452 387 452 680 779 c 1,15,16
 334 1116 334 1116 269 1168 c 1,17,18
 234 1192 234 1192 170 1193 c 128,-1,19
 106 1194 106 1194 84.5 1200 c 128,-1,20
 63 1206 63 1206 63 1224 c 0,21,22
 63 1257 63 1257 111.5 1283 c 128,-1,23
 160 1309 160 1309 194 1337.5 c 128,-1,24
 228 1366 228 1366 250 1388.5 c 128,-1,25
 272 1411 272 1411 287.5 1425 c 128,-1,26
 303 1439 303 1439 324 1439 c 0,27,28
 364 1439 364 1439 364 1390 c 1,29,-1
 355 1263 l 1,30,31
 355 1226 355 1226 372 1210 c 1,32,33
 436 1132 436 1132 556 1015 c 128,-1,34
 676 898 676 898 735 841 c 1,35,-1
 972 1108 l 1,36,37
 1075 1228 1075 1228 1075 1258 c 1,38,-1
 1060 1375 l 1,39,40
 1060 1425 1060 1425 1105 1425 c 0,41,42
 1122 1425 1122 1425 1137 1411.5 c 128,-1,43
 1152 1398 1152 1398 1158.5 1388 c 128,-1,44
 1165 1378 1165 1378 1180.5 1362 c 128,-1,45
 1196 1346 1196 1346 1215 1330 c 0,46,47
 1259 1293 1259 1293 1290 1276 c 0,48,49
 1341 1247 1341 1247 1341 1223 c 0,50,51
 1341 1192 1341 1192 1287 1185 c 1,52,53
 1167 1185 1167 1185 1130 1148 c 1,54,55
 1118 1141 1118 1141 798 780 c 1,56,57
 1178 420 1178 420 1283 330 c 1,58,59
 1312 317 1312 317 1383.5 306.5 c 128,-1,60
 1455 296 1455 296 1477.5 287.5 c 128,-1,61
 1500 279 1500 279 1500 264 c 0,62,63
 1500 224 1500 224 1463.5 204.5 c 128,-1,64
 1427 185 1427 185 1402 159 c 128,-1,65
 1377 133 1377 133 1358 109 c 128,-1,66
 1339 85 1339 85 1323.5 68.5 c 128,-1,67
 1308 52 1308 52 1292 52 c 0,68,69
 1253 52 1253 52 1248 101 c 2,70,-1
 1239 194 l 2,71,72
 1235 235 1235 235 1223 253 c 1,73,-1
 1204 272 l 2,74,75
 1193 283 1193 283 743 718 c 1,76,-1
 390 319 l 2,77,78
 353 276 353 276 340 259 c 0,79,80
 322 234 322 234 322 190 c 1,81,-1
 324 135 l 1,0,1
EndSplineSet
EndChar

StartChar: y
Encoding: 121 121 114
Width: 1269
GlyphClass: 2
Flags: W
LayerCount: 2
Fore
SplineSet
459 -30 m 1,0,-1
 410 -31 l 1,1,2
 356 -31 356 -31 381 18 c 0,3,4
 393 40 393 40 419 64.5 c 128,-1,5
 445 89 445 89 458 104 c 0,6,7
 490 139 490 139 494.5 174 c 128,-1,8
 499 209 499 209 503.5 244.5 c 128,-1,9
 508 280 508 280 512 316 c 2,10,-1
 550 628 l 1,11,12
 313 705 313 705 228 985 c 0,13,14
 203 1065 203 1065 190.5 1120 c 128,-1,15
 178 1175 178 1175 164.5 1189 c 128,-1,16
 151 1203 151 1203 137.5 1215 c 128,-1,17
 124 1227 124 1227 105.5 1240 c 128,-1,18
 87 1253 87 1253 68 1270 c 0,19,20
 19 1311 19 1311 19 1344 c 0,21,22
 19 1364 19 1364 47.5 1364 c 128,-1,23
 76 1364 76 1364 111 1366.5 c 128,-1,24
 146 1369 146 1369 182 1374 c 0,25,26
 267 1384 267 1384 298.5 1396 c 128,-1,27
 330 1408 330 1408 340 1408 c 0,28,29
 357 1408 357 1408 357 1390.5 c 128,-1,30
 357 1373 357 1373 343 1351 c 128,-1,31
 329 1329 329 1329 312 1304 c 0,32,33
 266 1234 266 1234 266 1199 c 128,-1,34
 266 1164 266 1164 276 1116 c 128,-1,35
 286 1068 286 1068 306 1014.5 c 128,-1,36
 326 961 326 961 356 907.5 c 128,-1,37
 386 854 386 854 426 811 c 0,38,39
 518 714 518 714 630 714 c 0,40,41
 842 714 842 714 981 980 c 0,42,43
 1041 1094 1041 1094 1052 1170 c 1,44,45
 1052 1199 1052 1199 1004 1254 c 0,46,47
 957 1307 957 1307 957 1325 c 0,48,49
 957 1351 957 1351 987 1351 c 0,50,51
 995 1351 995 1351 1031 1346 c 128,-1,52
 1067 1341 1067 1341 1104.5 1341 c 128,-1,53
 1142 1341 1142 1341 1162.5 1343.5 c 128,-1,54
 1183 1346 1183 1346 1199 1349 c 0,55,56
 1242 1357 1242 1357 1254 1357 c 0,57,58
 1313 1357 1313 1357 1269 1283 c 0,59,60
 1250 1251 1250 1251 1216 1222 c 0,61,62
 1148 1163 1148 1163 1135 1128 c 128,-1,63
 1122 1093 1122 1093 1102.5 1042.5 c 128,-1,64
 1083 992 1083 992 1055 936 c 128,-1,65
 1027 880 1027 880 989 824.5 c 128,-1,66
 951 769 951 769 901 724 c 0,67,68
 788 624 788 624 650 620 c 1,69,70
 648 608 648 608 620 398 c 0,71,72
 589 172 589 172 589 157.5 c 128,-1,73
 589 143 589 143 604.5 117.5 c 128,-1,74
 620 92 620 92 638.5 68 c 128,-1,75
 657 44 657 44 672.5 22.5 c 128,-1,76
 688 1 688 1 688 -17 c 0,77,78
 688 -40 688 -40 652 -40 c 1,79,-1
 459 -30 l 1,0,-1
EndSplineSet
EndChar

StartChar: z
Encoding: 122 122 115
Width: 1306
GlyphClass: 2
Flags: W
LayerCount: 2
Fore
SplineSet
163.5 87 m 128,-1,1
 153 87 153 87 140.5 98.5 c 128,-1,2
 128 110 128 110 128 127 c 0,3,4
 128 161 128 161 157.5 192 c 128,-1,5
 187 223 187 223 224.5 263 c 128,-1,6
 262 303 262 303 319 369 c 0,7,8
 641 741 641 741 1043 1291 c 1,9,10
 476 1288 476 1288 381 1279 c 1,11,12
 324 1272 324 1272 248 1187 c 0,13,14
 215 1150 215 1150 204.5 1145 c 128,-1,15
 194 1140 194 1140 184 1140 c 0,16,17
 156 1140 156 1140 164 1172 c 0,18,19
 188 1276 188 1276 171 1378 c 0,20,21
 165 1415 165 1415 165 1446 c 128,-1,22
 165 1477 165 1477 193 1477 c 0,23,24
 214 1477 214 1477 235.5 1455.5 c 128,-1,25
 257 1434 257 1434 270 1419.5 c 128,-1,26
 283 1405 283 1405 296 1394 c 1,27,28
 322 1369 322 1369 347.5 1370 c 128,-1,29
 373 1371 373 1371 430 1371 c 0,30,31
 607 1371 607 1371 784 1371 c 0,32,33
 1077 1370 1077 1370 1083.5 1373.5 c 128,-1,34
 1090 1377 1090 1377 1100 1381 c 0,35,36
 1141 1398 1141 1398 1154 1390 c 128,-1,37
 1167 1382 1167 1382 1172 1374 c 0,38,39
 1192 1345 1192 1345 1179 1323.5 c 128,-1,40
 1166 1302 1166 1302 1154.5 1289.5 c 128,-1,41
 1143 1277 1143 1277 1113 1234.5 c 128,-1,42
 1083 1192 1083 1192 1031 1120 c 0,43,44
 883 917 883 917 749 748 c 2,45,-1
 402 312 l 2,46,47
 341 236 341 236 303 187 c 1,48,49
 359 189 359 189 418 189 c 2,50,-1
 819 183 l 1,51,52
 980 183 980 183 1032 197.5 c 128,-1,53
 1084 212 1084 212 1119 232 c 128,-1,54
 1154 252 1154 252 1180.5 270.5 c 128,-1,55
 1207 289 1207 289 1226 302.5 c 128,-1,56
 1245 316 1245 316 1257 316 c 0,57,58
 1294 316 1294 316 1278 257 c 0,59,60
 1254 164 1254 164 1254 91 c 1,61,-1
 1256 48 l 1,62,63
 1256 14 1256 14 1228 14 c 0,64,65
 1209 14 1209 14 1162 46 c 0,66,67
 1072 105 1072 105 1040 108 c 1,68,-1
 978 109 l 1,69,70
 421 106 421 106 341.5 107 c 128,-1,71
 262 108 262 108 218 97.5 c 128,-1,0
 174 87 174 87 163.5 87 c 128,-1,1
EndSplineSet
EndChar

StartChar: braceleft
Encoding: 123 123 116
Width: 1269
GlyphClass: 2
Flags: W
LayerCount: 2
Fore
SplineSet
1075 -376 m 0,0,1
 1037 -376 1037 -376 996 -331 c 0,2,3
 968 -301 968 -301 920 -289 c 0,4,5
 812 -260 812 -260 781 -242 c 0,6,7
 619 -151 619 -151 540 30 c 0,8,9
 479 169 479 169 438 455 c 0,10,11
 416 611 416 611 397.5 646 c 128,-1,12
 379 681 379 681 354 700 c 128,-1,13
 329 719 329 719 298 735.5 c 128,-1,14
 267 752 267 752 249 757 c 128,-1,15
 231 762 231 762 216 768 c 0,16,17
 185 779 185 779 185 809 c 0,18,19
 185 837 185 837 224 848 c 0,20,21
 360 886 360 886 418 976 c 0,22,23
 480 1072 480 1072 488 1264 c 0,24,25
 492 1356 492 1356 497.5 1461 c 128,-1,26
 503 1566 503 1566 529 1635 c 128,-1,27
 555 1704 555 1704 592 1752 c 0,28,29
 670 1853 670 1853 809 1881 c 0,30,31
 899 1899 899 1899 936.5 1921.5 c 128,-1,32
 974 1944 974 1944 987 1944 c 0,33,34
 1019 1944 1019 1944 1006 1888 c 2,35,-1
 992 1830 l 2,36,37
 990 1818 990 1818 984 1756 c 0,38,39
 974 1653 974 1653 935 1653 c 0,40,41
 909 1653 909 1653 895 1675.5 c 128,-1,42
 881 1698 881 1698 873 1713.5 c 128,-1,43
 865 1729 865 1729 854 1742 c 1,44,45
 830 1774 830 1774 801 1774 c 128,-1,46
 772 1774 772 1774 753 1761 c 128,-1,47
 734 1748 734 1748 711 1728 c 128,-1,48
 688 1708 688 1708 670 1686.5 c 128,-1,49
 652 1665 652 1665 636 1630 c 0,50,51
 601 1550 601 1550 601 1429 c 0,52,53
 601 1225 601 1225 544 1005 c 1,54,55
 521 912 521 912 444 849 c 0,56,57
 411 822 411 822 372 805 c 1,58,59
 479 743 479 743 507 670 c 0,60,61
 525 621 525 621 531 566 c 128,-1,62
 537 511 537 511 545 464.5 c 128,-1,63
 553 418 553 418 564.5 355 c 128,-1,64
 576 292 576 292 590 232 c 0,65,66
 620 98 620 98 646.5 43 c 128,-1,67
 673 -12 673 -12 703 -50 c 128,-1,68
 733 -88 733 -88 769 -118 c 0,69,70
 848 -184 848 -184 919 -184 c 0,71,72
 959 -184 959 -184 1015 -81 c 0,73,74
 1033 -48 1033 -48 1051 -48 c 128,-1,75
 1069 -48 1069 -48 1080 -64 c 0,76,77
 1096 -87 1096 -87 1090 -106 c 0,78,79
 1071 -166 1071 -166 1079 -211 c 0,80,81
 1088 -259 1088 -259 1103.5 -317.5 c 128,-1,82
 1119 -376 1119 -376 1075 -376 c 0,0,1
EndSplineSet
EndChar

StartChar: bar
Encoding: 124 124 117
Width: 809
GlyphClass: 2
Flags: W
LayerCount: 2
Fore
SplineSet
375 -319 m 1,0,-1
 283 -331 l 1,1,2
 245 -331 245 -331 245 -294 c 0,3,4
 245 -280 245 -280 259 -260 c 1,5,6
 331 -186 331 -186 339 -145 c 1,7,-1
 340 19 l 1,8,-1
 344 1138 l 1,9,-1
 345 1506 l 1,10,-1
 345 1605 l 2,11,12
 345 1666 345 1666 303 1705 c 0,13,14
 287 1720 287 1720 274 1733.5 c 128,-1,15
 261 1747 261 1747 261 1768 c 0,16,17
 261 1800 261 1800 296 1800 c 128,-1,18
 331 1800 331 1800 355.5 1792 c 128,-1,19
 380 1784 380 1784 403 1784 c 1,20,-1
 501 1790 l 1,21,22
 521 1790 521 1790 533.5 1780.5 c 128,-1,23
 546 1771 546 1771 546 1758 c 0,24,25
 546 1731 546 1731 504 1705 c 1,26,27
 468 1685 468 1685 446 1638 c 0,28,29
 441 1627 441 1627 441 1621 c 2,30,-1
 438 540 l 1,31,32
 438 120 438 120 443 -135 c 0,33,34
 443 -176 443 -176 492 -224 c 0,35,36
 510 -241 510 -241 525 -257 c 128,-1,37
 540 -273 540 -273 540 -294 c 0,38,39
 540 -327 540 -327 494 -327 c 1,40,-1
 375 -319 l 1,0,-1
EndSplineSet
EndChar

StartChar: asciitilde
Encoding: 126 126 119
Width: 1566
GlyphClass: 2
Flags: W
LayerCount: 2
Fore
SplineSet
1263 893 m 1,0,1
 1263 978 1263 978 1308 978 c 0,2,3
 1335 978 1335 978 1348 940 c 0,4,5
 1380 849 1380 849 1474 774 c 0,6,7
 1506 748 1506 748 1506 729 c 0,8,9
 1506 680 1506 680 1443 693 c 0,10,11
 1337 714 1337 714 1311 705 c 1,12,-1
 1210 642 l 1,13,14
 1109 585 1109 585 1030 585 c 128,-1,15
 951 585 951 585 900.5 606 c 128,-1,16
 850 627 850 627 811 658.5 c 128,-1,17
 772 690 772 690 740 726.5 c 128,-1,18
 708 763 708 763 674 794 c 0,19,20
 595 868 595 868 503 868 c 0,21,22
 386 868 386 868 314 788 c 0,23,24
 298 769 298 769 288.5 756.5 c 128,-1,25
 279 744 279 744 275.5 716.5 c 128,-1,26
 272 689 272 689 268 661.5 c 128,-1,27
 264 634 264 634 255 613.5 c 128,-1,28
 246 593 246 593 226 593 c 128,-1,29
 206 593 206 593 191.5 608 c 128,-1,30
 177 623 177 623 175.5 640 c 128,-1,31
 174 657 174 657 165 679 c 128,-1,32
 156 701 156 701 141 724 c 0,33,34
 110 774 110 774 75 800 c 0,35,36
 16 845 16 845 59 871 c 0,37,38
 88 889 88 889 113 878 c 0,39,40
 192 844 192 844 217 844 c 128,-1,41
 242 844 242 844 264.5 862.5 c 128,-1,42
 287 881 287 881 318 903 c 0,43,44
 403 962 403 962 490 962 c 128,-1,45
 577 962 577 962 629.5 941 c 128,-1,46
 682 920 682 920 720.5 888 c 128,-1,47
 759 856 759 856 788.5 819 c 128,-1,48
 818 782 818 782 850 750 c 0,49,50
 985 615 985 615 1170 718 c 0,51,52
 1227 750 1227 750 1250 782 c 1,53,54
 1264 794 1264 794 1264 839 c 2,55,-1
 1263 893 l 1,0,1
EndSplineSet
EndChar

StartChar: cent
Encoding: 162 162 123
Width: 1476
GlyphClass: 2
Flags: W
LayerCount: 2
Fore
SplineSet
285 -174 m 1,0,1
 285 -220 285 -220 243 -220 c 0,2,3
 220 -220 220 -220 182 -200 c 0,4,5
 110 -162 110 -162 72.5 -162 c 128,-1,6
 35 -162 35 -162 18.5 -148 c 128,-1,7
 2 -134 2 -134 2 -119 c 0,8,9
 2 -90 2 -90 53 -66 c 0,10,11
 121 -35 121 -35 164 5 c 1,12,13
 197 56 197 56 310 298 c 1,14,15
 107 447 107 447 107 670 c 0,16,17
 107 1050 107 1050 428 1176 c 0,18,19
 552 1225 552 1225 713 1229 c 1,20,21
 831 1517 831 1517 831 1545.5 c 128,-1,22
 831 1574 831 1574 822 1591 c 128,-1,23
 813 1608 813 1608 802 1626 c 0,24,25
 753 1699 753 1699 787 1726 c 0,26,27
 816 1750 816 1750 849 1734 c 128,-1,28
 882 1718 882 1718 908 1704 c 0,29,30
 977 1667 977 1667 1019 1659 c 0,31,32
 1095 1644 1095 1644 1095 1612 c 0,33,34
 1095 1596 1095 1596 1070.5 1581.5 c 128,-1,35
 1046 1567 1046 1567 1016 1552 c 0,36,37
 931 1511 931 1511 922 1485 c 0,38,39
 906 1443 906 1443 817 1226 c 1,40,-1
 902 1218 l 1,41,42
 949 1218 949 1218 1004 1270 c 0,43,44
 1025 1289 1025 1289 1044.5 1305.5 c 128,-1,45
 1064 1322 1064 1322 1087 1322 c 0,46,47
 1117 1322 1117 1322 1109 1284 c 1,48,49
 1088 1205 1088 1205 1088 1134.5 c 128,-1,50
 1088 1064 1088 1064 1092.5 1049 c 128,-1,51
 1097 1034 1097 1034 1097 1020 c 0,52,53
 1097 985 1097 985 1072 985 c 0,54,55
 1053 985 1053 985 1029 1012.5 c 128,-1,56
 1005 1040 1005 1040 988.5 1060.5 c 128,-1,57
 972 1081 972 1081 956 1096 c 0,58,59
 913 1136 913 1136 831 1142 c 0,60,61
 807 1143 807 1143 783 1145 c 1,62,63
 609 732 609 732 430 335 c 1,64,65
 677 196 677 196 875 292 c 0,66,67
 931 319 931 319 952 351 c 128,-1,68
 973 383 973 383 984.5 404.5 c 128,-1,69
 996 426 996 426 1006 440 c 0,70,71
 1040 491 1040 491 1070 458 c 0,72,73
 1081 446 1081 446 1081 422 c 1,74,-1
 1079 378 l 1,75,76
 1079 331 1079 331 1098 248.5 c 128,-1,77
 1117 166 1117 166 1117 149 c 0,78,79
 1117 88 1117 88 1038 127 c 0,80,81
 1013 139 1013 139 993 161.5 c 128,-1,82
 973 184 973 184 962 191 c 128,-1,83
 951 198 951 198 935 198 c 0,84,85
 906 198 906 198 849 182 c 128,-1,86
 792 166 792 166 711 166 c 0,87,88
 543 166 543 166 391 247 c 1,89,-1
 305 52 l 2,90,91
 289 17 289 17 280 -3 c 2,92,-1
 272 -23 l 2,93,94
 267 -34 267 -34 267 -51 c 1,95,-1
 285 -174 l 1,0,1
351 388 m 1,96,97
 552 836 552 836 677 1142 c 1,98,99
 471 1123 471 1123 342 1004 c 1,100,101
 207 878 207 878 207 677 c 0,102,103
 207 509 207 509 351 388 c 1,96,97
EndSplineSet
EndChar

StartChar: sterling
Encoding: 163 163 124
Width: 1392
GlyphClass: 2
Flags: W
LayerCount: 2
Fore
SplineSet
425 -125 m 0,0,1
 395 -125 395 -125 387 -109.5 c 128,-1,2
 379 -94 379 -94 361 -74.5 c 128,-1,3
 343 -55 343 -55 319 -34 c 0,4,5
 261 15 261 15 231.5 29 c 128,-1,6
 202 43 202 43 202 59.5 c 128,-1,7
 202 76 202 76 222 90 c 128,-1,8
 242 104 242 104 262.5 105.5 c 128,-1,9
 283 107 283 107 309 112 c 128,-1,10
 335 117 335 117 359 124 c 0,11,12
 417 139 417 139 419 155 c 1,13,-1
 424 362 l 1,14,-1
 431 789 l 1,15,16
 361 781 361 781 330 781 c 128,-1,17
 299 781 299 781 285 772 c 128,-1,18
 271 763 271 763 258.5 750 c 128,-1,19
 246 737 246 737 234 721 c 128,-1,20
 222 705 222 705 210 692 c 0,21,22
 180 661 180 661 156 661 c 0,23,24
 123 661 123 661 123 692 c 1,25,-1
 132 803 l 1,26,-1
 124 945 l 1,27,28
 124 999 124 999 174 959 c 2,29,-1
 265 884 l 2,30,31
 287 867 287 867 301 867 c 1,32,33
 399 882 399 882 433 886 c 1,34,-1
 436 1220 l 2,35,36
 437 1264 437 1264 437 1313 c 128,-1,37
 437 1362 437 1362 448.5 1427.5 c 128,-1,38
 460 1493 460 1493 482.5 1553.5 c 128,-1,39
 505 1614 505 1614 538.5 1666 c 128,-1,40
 572 1718 572 1718 617 1756 c 0,41,42
 713 1839 713 1839 827 1839 c 128,-1,43
 941 1839 941 1839 1009 1816 c 128,-1,44
 1077 1793 1077 1793 1122.5 1759.5 c 128,-1,45
 1168 1726 1168 1726 1196 1688.5 c 128,-1,46
 1224 1651 1224 1651 1240.5 1627 c 128,-1,47
 1257 1603 1257 1603 1269.5 1581.5 c 128,-1,48
 1282 1560 1282 1560 1298 1541 c 0,49,50
 1335 1495 1335 1495 1372 1493 c 0,51,52
 1425 1491 1425 1491 1402 1455 c 0,53,54
 1378 1418 1378 1418 1347.5 1415.5 c 128,-1,55
 1317 1413 1317 1413 1295 1406 c 128,-1,56
 1273 1399 1273 1399 1250 1390 c 0,57,58
 1145 1345 1145 1345 1141 1345 c 0,59,60
 1117 1345 1117 1345 1117 1375 c 0,61,62
 1117 1399 1117 1399 1131 1420.5 c 128,-1,63
 1145 1442 1145 1442 1154 1456 c 0,64,65
 1183 1505 1183 1505 1170 1534 c 1,66,67
 1131 1612 1131 1612 1097.5 1645.5 c 128,-1,68
 1064 1679 1064 1679 1030 1699 c 0,69,70
 952 1744 952 1744 845 1744 c 256,71,72
 738 1744 738 1744 664 1658 c 1,73,74
 579 1561 579 1561 550 1374 c 0,75,76
 535 1280 535 1280 529 896 c 1,77,78
 560 899 560 899 591 902 c 128,-1,79
 622 905 622 905 656 909 c 0,80,81
 735 918 735 918 788.5 927.5 c 128,-1,82
 842 937 842 937 867 959.5 c 128,-1,83
 892 982 892 982 905 996.5 c 128,-1,84
 918 1011 918 1011 926 1020 c 128,-1,85
 934 1029 934 1029 943 1038 c 0,86,87
 981 1073 981 1073 1009 1046 c 0,88,89
 1021 1035 1021 1035 1021 1009 c 1,90,-1
 1017 949 l 1,91,92
 1017 883 1017 883 1030 839 c 0,93,94
 1045 792 1045 792 1045 785 c 0,95,96
 1045 749 1045 749 1016.5 747 c 128,-1,97
 988 745 988 745 965 759.5 c 128,-1,98
 942 774 942 774 917 791 c 0,99,100
 849 837 849 837 818 840 c 1,101,-1
 527 800 l 1,102,-1
 520 358 l 2,103,104
 518 249 518 249 517 150 c 1,105,106
 1125 54 1125 54 1159 54 c 2,107,-1
 1212 54 l 2,108,109
 1278 54 1278 54 1343 100 c 0,110,111
 1366 116 1366 116 1382 116 c 0,112,113
 1410 116 1410 116 1410 79 c 0,114,115
 1410 55 1410 55 1398 42 c 1,116,117
 1377 16 1377 16 1377 -54 c 1,118,-1
 1386 -137 l 1,119,120
 1386 -174 1386 -174 1343 -174 c 0,121,122
 1328 -174 1328 -174 1325 -170 c 128,-1,123
 1322 -166 1322 -166 1310 -151.5 c 128,-1,124
 1298 -137 1298 -137 1280 -118 c 0,125,126
 1236 -71 1236 -71 1211 -57.5 c 128,-1,127
 1186 -44 1186 -44 1149 -36.5 c 128,-1,128
 1112 -29 1112 -29 1060 -21 c 0,129,130
 894 4 894 4 482 51 c 1,131,132
 466 -49 466 -49 466 -87 c 128,-1,133
 466 -125 466 -125 425 -125 c 0,0,1
EndSplineSet
EndChar

StartChar: currency
Encoding: 164 164 125
Width: 1429
GlyphClass: 2
Flags: W
LayerCount: 2
Fore
SplineSet
267 -80 m 1,0,1
 267 -120 267 -120 238 -120 c 0,2,3
 219 -120 219 -120 202 -104 c 128,-1,4
 185 -88 185 -88 174.5 -75.5 c 128,-1,5
 164 -63 164 -63 152 -51 c 0,6,7
 131 -29 131 -29 94 -6 c 0,8,9
 9 45 9 45 41 77 c 0,10,11
 56 92 56 92 74.5 92.5 c 128,-1,12
 93 93 93 93 114 94 c 0,13,14
 173 95 173 95 207 131 c 2,15,-1
 335 272 l 1,16,17
 230 398 230 398 230 589 c 128,-1,18
 230 780 230 780 344 925 c 1,19,-1
 240 1038 l 2,20,21
 198 1083 198 1083 128.5 1083 c 128,-1,22
 59 1083 59 1083 59 1120 c 0,23,24
 59 1147 59 1147 96.5 1168.5 c 128,-1,25
 134 1190 134 1190 150.5 1203 c 128,-1,26
 167 1216 167 1216 179 1228 c 2,27,-1
 229 1280 l 2,28,29
 246 1297 246 1297 265 1297 c 0,30,31
 294 1297 294 1297 294 1256 c 1,32,-1
 284 1179 l 1,33,34
 284 1127 284 1127 303 1107 c 0,35,36
 325 1084 325 1084 405 990 c 1,37,38
 544 1115 544 1115 728 1115 c 128,-1,39
 912 1115 912 1115 1042 1008 c 1,40,41
 1172 1152 1172 1152 1172 1153 c 0,42,43
 1191 1185 1191 1185 1191 1248.5 c 128,-1,44
 1191 1312 1191 1312 1203.5 1326.5 c 128,-1,45
 1216 1341 1216 1341 1228.5 1341 c 128,-1,46
 1241 1341 1241 1341 1251.5 1332 c 128,-1,47
 1262 1323 1262 1323 1272 1310 c 0,48,49
 1317 1252 1317 1252 1343.5 1232.5 c 128,-1,50
 1370 1213 1370 1213 1386 1200 c 0,51,52
 1422 1171 1422 1171 1422 1151 c 128,-1,53
 1422 1131 1422 1131 1401 1124 c 128,-1,54
 1380 1117 1380 1117 1350.5 1115 c 128,-1,55
 1321 1113 1321 1113 1288.5 1108.5 c 128,-1,56
 1256 1104 1256 1104 1228 1079 c 0,57,58
 1179 1034 1179 1034 1100 948 c 1,59,60
 1210 811 1210 811 1210 576 c 0,61,62
 1210 395 1210 395 1115 280 c 1,63,64
 1174 213 1174 213 1214 178 c 128,-1,65
 1254 143 1254 143 1286.5 137.5 c 128,-1,66
 1319 132 1319 132 1349 129 c 128,-1,67
 1379 126 1379 126 1400.5 119 c 128,-1,68
 1422 112 1422 112 1422 96 c 128,-1,69
 1422 80 1422 80 1411.5 68.5 c 128,-1,70
 1401 57 1401 57 1386 44 c 2,71,-1
 1316 -12 l 1,72,-1
 1252 -87 l 1,73,74
 1230 -106 1230 -106 1210.5 -89.5 c 128,-1,75
 1191 -73 1191 -73 1191 -36 c 0,76,77
 1191 59 1191 59 1172 92 c 1,78,-1
 1054 222 l 1,79,80
 912 111 912 111 698 111 c 0,81,82
 594 111 594 111 484 160 c 0,83,84
 440 180 440 180 398 212 c 1,85,86
 318 116 318 116 271 64 c 1,87,88
 257 47 257 47 257 -2 c 1,89,-1
 267 -80 l 1,0,1
363 760.5 m 128,-1,91
 333 685 333 685 333 603.5 c 128,-1,92
 333 522 333 522 353 460.5 c 128,-1,93
 373 399 373 399 405.5 355 c 128,-1,94
 438 311 438 311 478.5 282.5 c 128,-1,95
 519 254 519 254 560 238 c 0,96,97
 633 208 633 208 674 208 c 128,-1,98
 715 208 715 208 751.5 211.5 c 128,-1,99
 788 215 788 215 834.5 227.5 c 128,-1,100
 881 240 881 240 931 264.5 c 128,-1,101
 981 289 981 289 1022 330 c 0,102,103
 1117 427 1117 427 1117 581 c 0,104,105
 1117 910 1117 910 884 996 c 0,106,107
 814 1022 814 1022 727.5 1022 c 128,-1,108
 641 1022 641 1022 569.5 987 c 128,-1,109
 498 952 498 952 445.5 894 c 128,-1,90
 393 836 393 836 363 760.5 c 128,-1,91
EndSplineSet
EndChar

StartChar: yen
Encoding: 165 165 126
Width: 1536
GlyphClass: 2
Flags: W
LayerCount: 2
Fore
SplineSet
624 305 m 1,0,-1
 370 306 l 2,1,2
 309 306 309 306 270 264 c 0,3,4
 255 248 255 248 241.5 235 c 128,-1,5
 228 222 228 222 207 222 c 0,6,7
 175 222 175 222 175 265 c 1,8,-1
 190 379 l 1,9,10
 190 379 190 379 185 462 c 1,11,12
 185 482 185 482 194 495.5 c 128,-1,13
 203 509 203 509 216 509 c 0,14,15
 242 509 242 509 270 465 c 0,16,17
 293 428 293 428 338 404 c 0,18,19
 348 399 348 399 378 399 c 128,-1,20
 408 399 408 399 629 391 c 1,21,22
 636 490 636 490 642 655 c 1,23,-1
 399 656 l 2,24,25
 338 656 338 656 299 614 c 0,26,27
 284 598 284 598 270.5 585 c 128,-1,28
 257 572 257 572 236 572 c 0,29,30
 204 572 204 572 204 615 c 1,31,-1
 219 729 l 1,32,-1
 214 812 l 1,33,34
 214 832 214 832 223 845.5 c 128,-1,35
 232 859 232 859 244 859 c 0,36,37
 272 859 272 859 299 815 c 0,38,39
 322 778 322 778 366 754 c 0,40,41
 377 749 377 749 402 749 c 2,42,-1
 630 742 l 1,43,44
 522 945 522 945 311 1240 c 1,45,46
 294 1266 294 1266 238.5 1295 c 128,-1,47
 183 1324 183 1324 161.5 1339 c 128,-1,48
 140 1354 140 1354 140 1371 c 0,49,50
 140 1408 140 1408 194 1414 c 0,51,52
 291 1423 291 1423 381 1462 c 0,53,54
 410 1475 410 1475 439 1475 c 128,-1,55
 468 1475 468 1475 468 1451 c 0,56,57
 468 1434 468 1434 445 1402 c 0,58,59
 389 1322 389 1322 389 1311 c 128,-1,60
 389 1300 389 1300 401.5 1280.5 c 128,-1,61
 414 1261 414 1261 446 1211.5 c 128,-1,62
 478 1162 478 1162 514 1108 c 2,63,-1
 715 803 l 1,64,-1
 906 1019 l 1,65,66
 1021 1153 1021 1153 1078 1250 c 0,67,68
 1092 1275 1092 1275 1077 1321 c 0,69,70
 1052 1395 1052 1395 1052 1403 c 0,71,72
 1052 1440 1052 1440 1092 1440 c 0,73,74
 1112 1440 1112 1440 1151 1414 c 0,75,76
 1233 1361 1233 1361 1273 1350 c 0,77,78
 1385 1319 1385 1319 1302 1262 c 0,79,80
 1289 1252 1289 1252 1253 1242 c 128,-1,81
 1217 1232 1217 1232 1201 1225 c 128,-1,82
 1185 1218 1185 1218 1159 1183.5 c 128,-1,83
 1133 1149 1133 1149 1085 1090 c 128,-1,84
 1037 1031 1037 1031 986.5 971.5 c 128,-1,85
 936 912 936 912 885.5 852.5 c 128,-1,86
 835 793 835 793 789 738 c 1,87,88
 818 737 818 737 846 737 c 2,89,-1
 899 737 l 2,90,91
 1018 737 1018 737 1058.5 741.5 c 128,-1,92
 1099 746 1099 746 1120 761.5 c 128,-1,93
 1141 777 1141 777 1158.5 794.5 c 128,-1,94
 1176 812 1176 812 1192 826 c 128,-1,95
 1208 840 1208 840 1226.5 840 c 128,-1,96
 1245 840 1245 840 1252.5 829.5 c 128,-1,97
 1260 819 1260 819 1260 781 c 1,98,-1
 1253 686 l 1,99,-1
 1265 594 l 1,100,101
 1265 556 1265 556 1228 556 c 0,102,103
 1214 556 1214 556 1194 570 c 1,104,105
 1120 642 1120 642 1079 650 c 1,106,107
 1001 650 1001 650 737 654 c 1,108,109
 736 625 736 625 718 389 c 1,110,111
 965 383 965 383 1022.5 389.5 c 128,-1,112
 1080 396 1080 396 1101 411.5 c 128,-1,113
 1122 427 1122 427 1139.5 444.5 c 128,-1,114
 1157 462 1157 462 1173 476 c 128,-1,115
 1189 490 1189 490 1207.5 490 c 128,-1,116
 1226 490 1226 490 1233.5 479.5 c 128,-1,117
 1241 469 1241 469 1241 431 c 1,118,-1
 1234 336 l 1,119,-1
 1246 244 l 1,120,121
 1246 206 1246 206 1209 206 c 0,122,123
 1195 206 1195 206 1175 220 c 1,124,125
 1101 292 1101 292 1060 300 c 1,126,127
 979 300 979 300 711 304 c 1,128,129
 708 251 708 251 708 221 c 2,130,-1
 708 177 l 2,131,132
 708 163 708 163 708.5 148.5 c 128,-1,133
 709 134 709 134 710.5 114.5 c 128,-1,134
 712 95 712 95 719 78 c 0,135,136
 732 47 732 47 748 30 c 128,-1,137
 764 13 764 13 774 1 c 0,138,139
 796 -28 796 -28 796 -44 c 0,140,141
 796 -78 796 -78 736 -78 c 1,142,-1
 619 -70 l 1,143,-1
 549 -82 l 1,144,145
 500 -82 500 -82 500 -44 c 0,146,147
 500 -27 500 -27 515 -6 c 2,148,-1
 612 120 l 1,149,-1
 620 232 l 2,150,151
 622 266 622 266 624 305 c 1,0,-1
EndSplineSet
EndChar

StartChar: brokenbar
Encoding: 166 166 127
Width: 809
GlyphClass: 2
Flags: W
LayerCount: 2
Fore
SplineSet
375 985 m 1,0,-1
 283 973 l 1,1,2
 245 973 245 973 245 1010 c 0,3,4
 245 1024 245 1024 259 1044 c 1,5,6
 331 1118 331 1118 339 1159 c 1,7,8
 339 1159 339 1159 345 1605 c 0,9,10
 345 1666 345 1666 303 1705 c 0,11,12
 287 1720 287 1720 274 1733.5 c 128,-1,13
 261 1747 261 1747 261 1768 c 0,14,15
 261 1800 261 1800 296 1800 c 128,-1,16
 331 1800 331 1800 355.5 1792 c 128,-1,17
 380 1784 380 1784 403 1784 c 1,18,-1
 501 1790 l 1,19,20
 521 1790 521 1790 533.5 1780.5 c 128,-1,21
 546 1771 546 1771 546 1758 c 0,22,23
 546 1731 546 1731 504 1705 c 1,24,25
 468 1685 468 1685 446 1638 c 0,26,27
 441 1627 441 1627 441 1621 c 2,28,-1
 443 1169 l 2,29,30
 444 1127 444 1127 492 1080 c 0,31,32
 510 1063 510 1063 525 1047 c 128,-1,33
 540 1031 540 1031 540 1010 c 0,34,35
 540 977 540 977 494 977 c 1,36,-1
 375 985 l 1,0,-1
375 -332 m 1,37,-1
 283 -344 l 1,38,39
 245 -344 245 -344 245 -307 c 0,40,41
 245 -293 245 -293 259 -273 c 1,42,43
 331 -199 331 -199 339 -158 c 1,44,-1
 345 288 l 2,45,46
 345 349 345 349 303 388 c 0,47,48
 287 403 287 403 274 416.5 c 128,-1,49
 261 430 261 430 261 451 c 0,50,51
 261 483 261 483 296 483 c 128,-1,52
 331 483 331 483 355.5 475 c 128,-1,53
 380 467 380 467 403 467 c 1,54,-1
 501 473 l 1,55,56
 521 473 521 473 533.5 463.5 c 128,-1,57
 546 454 546 454 546 442 c 0,58,59
 546 414 546 414 504 388 c 1,60,61
 468 368 468 368 446 320 c 0,62,63
 441 310 441 310 441 304 c 2,64,-1
 443 -148 l 2,65,66
 444 -190 444 -190 492 -236 c 0,67,68
 510 -254 510 -254 525 -270 c 128,-1,69
 540 -286 540 -286 540 -307 c 0,70,71
 540 -340 540 -340 494 -340 c 1,72,-1
 375 -332 l 1,37,-1
EndSplineSet
EndChar

StartChar: section
Encoding: 167 167 128
Width: 886
GlyphClass: 2
Flags: W
LayerCount: 2
Fore
SplineSet
233 -219 m 0,0,1
 206 -219 206 -219 206 -184 c 0,2,3
 206 -172 206 -172 213.5 -150.5 c 128,-1,4
 221 -129 221 -129 229 -98 c 128,-1,5
 237 -67 237 -67 243 -35 c 0,6,7
 254 23 254 23 258 79.5 c 128,-1,8
 262 136 262 136 273.5 149 c 128,-1,9
 285 162 285 162 305 162 c 128,-1,10
 325 162 325 162 337 139.5 c 128,-1,11
 349 117 349 117 360 84 c 0,12,13
 393 -16 393 -16 438 -59 c 1,14,15
 527 -109 527 -109 656 -72 c 0,16,17
 760 -42 760 -42 809 36 c 0,18,19
 834 77 834 77 834 128.5 c 128,-1,20
 834 180 834 180 814 222.5 c 128,-1,21
 794 265 794 265 761 302 c 128,-1,22
 728 339 728 339 687.5 371 c 128,-1,23
 647 403 647 403 606 431.5 c 128,-1,24
 565 460 565 460 527.5 484.5 c 128,-1,25
 490 509 490 509 446.5 548 c 128,-1,26
 403 587 403 587 360 631 c 128,-1,27
 317 675 317 675 290 713 c 0,28,29
 239 785 239 785 239 846.5 c 128,-1,30
 239 908 239 908 251 950 c 128,-1,31
 263 992 263 992 282 1024 c 0,32,33
 316 1084 316 1084 364 1115 c 1,34,35
 282 1195 282 1195 254 1240 c 0,36,37
 165 1386 165 1386 224 1534 c 0,38,39
 270 1650 270 1650 396 1698 c 0,40,41
 514 1742 514 1742 680 1706 c 1,42,43
 692 1706 692 1706 754 1738 c 0,44,45
 858 1791 858 1791 874 1791 c 128,-1,46
 890 1791 890 1791 890 1775 c 128,-1,47
 890 1759 890 1759 883 1736 c 128,-1,48
 876 1713 876 1713 868 1691 c 1,49,-1
 841 1627 l 1,50,51
 832 1598 832 1598 827.5 1543.5 c 128,-1,52
 823 1489 823 1489 818.5 1472.5 c 128,-1,53
 814 1456 814 1456 800 1456 c 0,54,55
 780 1456 780 1456 746 1515 c 1,56,57
 732 1544 732 1544 676 1618 c 1,58,59
 465 1674 465 1674 362 1574 c 0,60,61
 300 1514 300 1514 300 1418 c 0,62,63
 300 1291 300 1291 473 1145 c 0,64,65
 506 1117 506 1117 595 1055.5 c 128,-1,66
 684 994 684 994 722 963.5 c 128,-1,67
 760 933 760 933 789 896 c 0,68,69
 852 814 852 814 852 706 c 0,70,71
 852 569 852 569 723 471 c 1,72,73
 821 401 821 401 861 345 c 0,74,75
 936 241 936 241 936 150.5 c 128,-1,76
 936 60 936 60 906 2 c 128,-1,77
 876 -56 876 -56 824 -96 c 0,78,79
 719 -177 719 -177 557 -177 c 0,80,81
 495 -177 495 -177 462 -170 c 0,82,83
 376 -152 376 -152 300 -186 c 0,84,85
 283 -194 283 -194 267 -206.5 c 128,-1,86
 251 -219 251 -219 233 -219 c 0,0,1
640 527 m 1,87,88
 747 591 747 591 747 710 c 0,89,90
 747 819 747 819 638 904 c 1,91,-1
 436 1050 l 1,92,93
 376 1017 376 1017 351 938 c 0,94,95
 311 814 311 814 444 685 c 0,96,97
 531 601 531 601 566.5 576.5 c 128,-1,98
 602 552 602 552 640 527 c 1,87,88
EndSplineSet
EndChar

StartChar: dieresis
Encoding: 168 168 129
Width: 1101
GlyphClass: 2
Flags: W
LayerCount: 2
Fore
SplineSet
672 1688 m 0,0,1
 680 1688 680 1688 718 1681 c 128,-1,2
 756 1674 756 1674 890 1674 c 0,3,4
 945 1674 945 1674 945 1640 c 0,5,6
 945 1615 945 1615 912 1579 c 0,7,8
 835 1497 835 1497 828 1484 c 0,9,10
 800 1437 800 1437 766 1459 c 0,11,12
 757 1465 757 1465 751.5 1476.5 c 128,-1,13
 746 1488 746 1488 734 1504 c 128,-1,14
 722 1520 722 1520 706 1540 c 0,15,16
 635 1631 635 1631 635 1658 c 0,17,18
 635 1688 635 1688 672 1688 c 0,0,1
482 1640 m 0,19,20
 482 1613 482 1613 448 1578 c 0,21,22
 373 1499 373 1499 364 1484 c 0,23,24
 322 1418 322 1418 282 1478 c 1,25,-1
 202 1594 l 1,26,27
 141 1688 141 1688 210 1688 c 1,28,-1
 265 1682 l 2,29,30
 340 1674 340 1674 411 1674 c 128,-1,31
 482 1674 482 1674 482 1640 c 0,19,20
EndSplineSet
EndChar

StartChar: copyright
Encoding: 169 169 130
Width: 1703
GlyphClass: 2
Flags: W
LayerCount: 2
Fore
SplineSet
110 828 m 0,0,1
 110 1052 110 1052 225 1232 c 0,2,3
 381 1476 381 1476 680 1550 c 1,4,5
 862 1594 862 1594 1060 1556 c 0,6,7
 1242 1521 1242 1521 1374 1405 c 0,8,9
 1593 1212 1593 1212 1593 813 c 0,10,11
 1593 377 1593 377 1388 156 c 0,12,13
 1204 -43 1204 -43 882 -43 c 0,14,15
 564 -43 564 -43 354 149 c 0,16,17
 202 287 202 287 141 526 c 0,18,19
 110 648 110 648 110 802 c 0,20,21
 110 815 110 815 110 828 c 0,0,1
244.5 1059.5 m 128,-1,23
 211 961 211 961 211 820.5 c 128,-1,24
 211 680 211 680 238 564.5 c 128,-1,25
 265 449 265 449 312.5 363 c 128,-1,26
 360 277 360 277 424 218 c 128,-1,27
 488 159 488 159 562 123 c 0,28,29
 699 56 699 56 874 52 c 1,30,31
 1034 52 1034 52 1122.5 85.5 c 128,-1,32
 1211 119 1211 119 1273.5 168.5 c 128,-1,33
 1336 218 1336 218 1384 302 c 0,34,35
 1489 487 1489 487 1489 811 c 0,36,37
 1489 1366 1489 1366 1060 1460 c 0,38,39
 953 1483 953 1483 887 1483 c 128,-1,40
 821 1483 821 1483 749 1470.5 c 128,-1,41
 677 1458 677 1458 602.5 1429 c 128,-1,42
 528 1400 528 1400 457.5 1351.5 c 128,-1,43
 387 1303 387 1303 332.5 1230.5 c 128,-1,22
 278 1158 278 1158 244.5 1059.5 c 128,-1,23
1254 322 m 0,44,45
 1254 289 1254 289 1219 289 c 0,46,47
 1202 289 1202 289 1149.5 307.5 c 128,-1,48
 1097 326 1097 326 1080.5 326 c 128,-1,49
 1064 326 1064 326 1049 320 c 128,-1,50
 1034 314 1034 314 1010.5 306 c 128,-1,51
 987 298 987 298 955 290 c 0,52,53
 807 250 807 250 711 280 c 1,54,55
 617 308 617 308 538 388 c 0,56,57
 395 533 395 533 395 771 c 0,58,59
 395 1105 395 1105 654 1238 c 0,60,61
 745 1285 745 1285 814.5 1285 c 128,-1,62
 884 1285 884 1285 917 1280.5 c 128,-1,63
 950 1276 950 1276 972 1270 c 0,64,65
 1029 1255 1029 1255 1046.5 1255 c 128,-1,66
 1064 1255 1064 1255 1085 1262 c 128,-1,67
 1106 1269 1106 1269 1124 1278 c 0,68,69
 1173 1300 1173 1300 1193 1300 c 0,70,71
 1244 1300 1244 1300 1222 1256 c 0,72,73
 1215 1241 1215 1241 1204 1219 c 2,74,-1
 1180 1170 l 1,75,76
 1128 1067 1128 1067 1128 1038 c 1,77,78
 1126 981 1126 981 1096 981 c 0,79,80
 1074 981 1074 981 1059.5 1018.5 c 128,-1,81
 1045 1056 1045 1056 1036.5 1081.5 c 128,-1,82
 1028 1107 1028 1107 1018 1128 c 0,83,84
 996 1172 996 1172 960.5 1186 c 128,-1,85
 925 1200 925 1200 895 1200 c 2,86,-1
 833 1200 l 2,87,88
 692 1200 692 1200 596 1088 c 0,89,90
 494 970 494 970 494 782 c 0,91,92
 494 574 494 574 588 456 c 0,93,94
 672 352 672 352 797 352 c 0,95,96
 948 352 948 352 1027 424 c 0,97,98
 1056 450 1056 450 1066 485 c 128,-1,99
 1076 520 1076 520 1082 543 c 0,100,101
 1096 590 1096 590 1120 590 c 128,-1,102
 1144 590 1144 590 1152.5 552.5 c 128,-1,103
 1161 515 1161 515 1169.5 492.5 c 128,-1,104
 1178 470 1178 470 1188 450 c 1,105,-1
 1236 374 l 1,106,107
 1254 342 1254 342 1254 322 c 0,44,45
EndSplineSet
EndChar

StartChar: ordfeminine
Encoding: 170 170 131
Width: 1174
GlyphClass: 2
Flags: W
LayerCount: 2
Fore
SplineSet
608 1676 m 0,0,1
 648 1676 648 1676 648 1626 c 0,2,3
 648 1608 648 1608 634 1570 c 0,4,5
 601 1484 601 1484 607 1476.5 c 128,-1,6
 613 1469 613 1469 636 1432 c 128,-1,7
 659 1395 659 1395 692.5 1342.5 c 128,-1,8
 726 1290 726 1290 764.5 1229 c 128,-1,9
 803 1168 803 1168 838 1114 c 0,10,11
 930 970 930 970 935 963 c 1,12,13
 958 947 958 947 985.5 935 c 128,-1,14
 1013 923 1013 923 1037 911 c 0,15,16
 1093 883 1093 883 1093 854.5 c 128,-1,17
 1093 826 1093 826 1072 817.5 c 128,-1,18
 1051 809 1051 809 1022 804 c 128,-1,19
 993 799 993 799 963 792 c 128,-1,20
 933 785 933 785 918 767 c 0,21,22
 886 730 886 730 860 730 c 0,23,24
 798 730 798 730 818 817 c 1,25,-1
 838 897 l 1,26,27
 845 932 845 932 840.5 943 c 128,-1,28
 836 954 836 954 826 971 c 0,29,30
 817 988 817 988 750 1093 c 1,31,-1
 718 1041 l 1,32,33
 585 822 585 822 433 744 c 0,34,35
 337 694 337 694 252 723 c 0,36,37
 190 744 190 744 163 800 c 0,38,39
 130 866 130 866 166 962 c 0,40,41
 205 1067 205 1067 350 1179 c 0,42,43
 420 1232 420 1232 558 1269 c 0,44,45
 595 1279 595 1279 626 1284 c 1,46,47
 543 1408 543 1408 526 1437 c 1,48,49
 504 1453 504 1453 451.5 1466.5 c 128,-1,50
 399 1480 399 1480 382 1489 c 128,-1,51
 365 1498 365 1498 365 1516 c 0,52,53
 365 1545 365 1545 413 1559.5 c 128,-1,54
 461 1574 461 1574 490 1597.5 c 128,-1,55
 519 1621 519 1621 549.5 1648.5 c 128,-1,56
 580 1676 580 1676 608 1676 c 0,0,1
323.5 817 m 128,-1,58
 359 817 359 817 403.5 840.5 c 128,-1,59
 448 864 448 864 488.5 900.5 c 128,-1,60
 529 937 529 937 564 981 c 128,-1,61
 599 1025 599 1025 626 1065 c 0,62,63
 676 1139 676 1139 693 1180 c 1,64,-1
 677 1204 l 1,65,66
 533 1183 533 1183 411 1095 c 0,67,68
 298 1014 298 1014 270 918 c 0,69,70
 253 862 253 862 270.5 839.5 c 128,-1,57
 288 817 288 817 323.5 817 c 128,-1,58
257 162 m 0,71,72
 222 162 222 162 222 205 c 0,73,74
 222 224 222 224 225 246 c 128,-1,75
 228 268 228 268 231 290 c 0,76,77
 240 356 240 356 240 371 c 1,78,-1
 231 442 l 1,79,80
 231 459 231 459 240 468 c 128,-1,81
 249 477 249 477 260 477 c 128,-1,82
 271 477 271 477 291.5 459 c 128,-1,83
 312 441 312 441 334 420 c 0,84,85
 394 363 394 363 403 363 c 0,86,87
 584 363 584 363 789 382 c 0,88,89
 830 386 830 386 888 444 c 2,90,-1
 928 484 l 2,91,92
 946 502 946 502 962 502 c 0,93,94
 1000 502 1000 502 1000 426 c 1,95,-1
 998 342 l 2,96,97
 998 310 998 310 1007 280 c 128,-1,98
 1016 250 1016 250 1016 240 c 0,99,100
 1016 176 1016 176 962 190 c 0,101,102
 953 193 953 193 914 220 c 0,103,104
 822 285 822 285 805.5 287.5 c 128,-1,105
 789 290 789 290 767.5 289.5 c 128,-1,106
 746 289 746 289 714 288.5 c 128,-1,107
 682 288 682 288 642.5 287 c 128,-1,108
 603 286 603 286 562 284 c 0,109,110
 481 281 481 281 436.5 278 c 128,-1,111
 392 275 392 275 369.5 256.5 c 128,-1,112
 347 238 347 238 328 217 c 0,113,114
 276 162 276 162 257 162 c 0,71,72
EndSplineSet
EndChar

StartChar: logicalnot
Encoding: 172 172 133
Width: 2033
GlyphClass: 2
Flags: W
LayerCount: 2
Fore
SplineSet
495 903 m 1,0,-1
 359 904 l 2,1,2
 327 904 327 904 291 868 c 128,-1,3
 255 832 255 832 235.5 815.5 c 128,-1,4
 216 799 216 799 194 799 c 0,5,6
 160 799 160 799 160 830 c 1,7,-1
 169 884 l 1,8,9
 171 906 171 906 171 930 c 1,10,-1
 164 1092 l 1,11,12
 164 1175 164 1175 245 1087 c 0,13,14
 285 1044 285 1044 316 1026.5 c 128,-1,15
 347 1009 347 1009 353 1009 c 2,16,-1
 564 1008 l 2,17,18
 876 1007 876 1007 1084 1007 c 2,19,-1
 1595 1009 l 1,20,21
 1606 1034 1606 1034 1606 1065 c 1,22,-1
 1598 1158 l 1,23,24
 1598 1209 1598 1209 1633 1209 c 0,25,26
 1654 1209 1654 1209 1676.5 1187.5 c 128,-1,27
 1699 1166 1699 1166 1718.5 1151.5 c 128,-1,28
 1738 1137 1738 1137 1760 1122 c 0,29,30
 1801 1095 1801 1095 1827 1078 c 0,31,32
 1866 1053 1866 1053 1866 1029 c 128,-1,33
 1866 1005 1866 1005 1846.5 994.5 c 128,-1,34
 1827 984 1827 984 1799 978.5 c 128,-1,35
 1771 973 1771 973 1740 968.5 c 128,-1,36
 1709 964 1709 964 1687 951 c 1,37,-1
 1682 516 l 1,38,-1
 1682 477 l 2,39,40
 1682 423 1682 423 1778 327 c 1,41,42
 1803 297 1803 297 1803 278 c 128,-1,43
 1803 259 1803 259 1774 259 c 1,44,-1
 1653 264 l 1,45,-1
 1525 258 l 1,46,47
 1487 258 1487 258 1487 288 c 0,48,49
 1487 306 1487 306 1502.5 326.5 c 128,-1,50
 1518 347 1518 347 1536 370 c 0,51,52
 1586 431 1586 431 1587 465 c 128,-1,53
 1588 499 1588 499 1588 522 c 2,54,-1
 1588 569 l 1,55,-1
 1587 803 l 1,56,-1
 1587 860 l 2,57,58
 1587 888 1587 888 1588 914 c 1,59,60
 884 903 884 903 495 903 c 1,0,-1
EndSplineSet
EndChar

StartChar: registered
Encoding: 174 174 135
Width: 1703
GlyphClass: 2
Flags: W
LayerCount: 2
Fore
SplineSet
110 828 m 0,0,1
 110 1052 110 1052 225 1232 c 0,2,3
 381 1476 381 1476 680 1550 c 1,4,5
 862 1594 862 1594 1060 1556 c 0,6,7
 1242 1521 1242 1521 1374 1405 c 0,8,9
 1593 1212 1593 1212 1593 813 c 0,10,11
 1593 377 1593 377 1388 156 c 0,12,13
 1204 -43 1204 -43 882 -43 c 0,14,15
 564 -43 564 -43 354 149 c 0,16,17
 202 287 202 287 141 526 c 0,18,19
 110 648 110 648 110 802 c 0,20,21
 110 815 110 815 110 828 c 0,0,1
1355 257 m 1,22,23
 1489 449 1489 449 1489 811 c 0,24,25
 1489 1366 1489 1366 1060 1460 c 0,26,27
 953 1483 953 1483 887 1483 c 128,-1,28
 821 1483 821 1483 749 1470.5 c 128,-1,29
 677 1458 677 1458 602.5 1429 c 128,-1,30
 528 1400 528 1400 457.5 1351.5 c 128,-1,31
 387 1303 387 1303 332 1230 c 0,32,33
 211 1069 211 1069 211 831 c 0,34,35
 211 382 211 382 461 187 c 1,36,37
 516 242 516 242 525 331 c 1,38,39
 542 569 542 569 542 817 c 128,-1,40
 542 1065 542 1065 538 1101 c 128,-1,41
 534 1137 534 1137 523.5 1158.5 c 128,-1,42
 513 1180 513 1180 495 1196 c 128,-1,43
 477 1212 477 1212 462 1226 c 0,44,45
 440 1247 440 1247 440 1267 c 128,-1,46
 440 1287 440 1287 464 1287 c 2,47,-1
 575 1284 l 1,48,49
 622 1284 622 1284 665.5 1289 c 128,-1,50
 709 1294 709 1294 720 1294 c 0,51,52
 790 1294 790 1294 738 1242 c 0,53,54
 647 1151 647 1151 634 1098 c 0,55,56
 625 1062 625 1062 625 918 c 1,57,58
 636 961 636 961 675.5 1014 c 128,-1,59
 715 1067 715 1067 773 1113 c 0,60,61
 909 1221 909 1221 1043 1221 c 0,62,63
 1292 1221 1292 1221 1292 946 c 0,64,65
 1292 788 1292 788 1146 684 c 0,66,67
 1074 633 1074 633 1003 602.5 c 128,-1,68
 932 572 932 572 898 556 c 1,69,70
 1185 329 1185 329 1241 273 c 1,71,72
 1263 256 1263 256 1300 256 c 2,73,-1
 1355 257 l 1,22,23
625 323 m 1,74,-1
 620 226 l 1,75,76
 620 155 620 155 659 137 c 0,77,78
 681 126 681 126 698.5 106 c 128,-1,79
 716 86 716 86 721 69 c 1,80,81
 878 35 878 35 1045 64 c 0,82,83
 1118 76 1118 76 1188 111 c 1,84,85
 1181 171 1181 171 1149 216 c 1,86,87
 1135 241 1135 241 1038 321.5 c 128,-1,88
 941 402 941 402 904 432 c 0,89,90
 816 505 816 505 800 522 c 0,91,92
 756 569 756 569 756 587 c 0,93,94
 756 620 756 620 791.5 630 c 128,-1,95
 827 640 827 640 868 654 c 128,-1,96
 909 668 909 668 952 687.5 c 128,-1,97
 995 707 995 707 1035 732.5 c 128,-1,98
 1075 758 1075 758 1107 789 c 0,99,100
 1177 857 1177 857 1177 939 c 0,101,102
 1177 1030 1177 1030 1161 1061 c 0,103,104
 1128 1124 1128 1124 1021 1124 c 0,105,106
 897 1124 897 1124 762 960 c 0,107,108
 689 871 689 871 659 805 c 128,-1,109
 629 739 629 739 625 710 c 1,110,-1
 625 323 l 1,74,-1
EndSplineSet
EndChar

StartChar: macron
Encoding: 175 175 136
Width: 964
GlyphClass: 2
Flags: W
LayerCount: 2
Fore
SplineSet
506 1689 m 1,0,-1
 344 1686 l 2,1,2
 319 1686 319 1686 285.5 1662.5 c 128,-1,3
 252 1639 252 1639 229 1624 c 0,4,5
 191 1599 191 1599 167 1616 c 0,6,7
 151 1628 151 1628 151 1652 c 128,-1,8
 151 1676 151 1676 158 1691 c 128,-1,9
 165 1706 165 1706 165 1726.5 c 128,-1,10
 165 1747 165 1747 161 1763 c 128,-1,11
 157 1779 157 1779 152 1794 c 0,12,13
 133 1856 133 1856 148 1870 c 128,-1,14
 163 1884 163 1884 178.5 1884 c 128,-1,15
 194 1884 194 1884 210 1872.5 c 128,-1,16
 226 1861 226 1861 244 1846 c 0,17,18
 296 1801 296 1801 320 1792 c 1,19,20
 420 1793 420 1793 468 1793 c 0,21,22
 529 1793 529 1793 567 1793 c 128,-1,23
 605 1793 605 1793 614 1796 c 0,24,25
 622 1799 622 1799 662 1833 c 1,26,27
 712 1883 712 1883 748 1883 c 128,-1,28
 784 1883 784 1883 784 1834 c 0,29,30
 784 1817 784 1817 774 1786 c 0,31,32
 754 1727 754 1727 754 1690 c 1,33,-1
 757 1638 l 1,34,35
 757 1591 757 1591 729 1591 c 0,36,37
 704 1591 704 1591 680 1620.5 c 128,-1,38
 656 1650 656 1650 641 1665 c 128,-1,39
 626 1680 626 1680 608 1684 c 0,40,41
 581 1689 581 1689 506 1689 c 1,0,-1
EndSplineSet
EndChar

StartChar: degree
Encoding: 176 176 137
Width: 707
GlyphClass: 2
Flags: W
LayerCount: 2
Fore
SplineSet
368.5 1163.5 m 128,-1,1
 343 1161 343 1161 331 1161 c 128,-1,2
 319 1161 319 1161 294 1164.5 c 128,-1,3
 269 1168 269 1168 239.5 1178 c 128,-1,4
 210 1188 210 1188 179.5 1206.5 c 128,-1,5
 149 1225 149 1225 124 1256 c 0,6,7
 68 1327 68 1327 68 1439 c 0,8,9
 68 1552 68 1552 150 1640 c 0,10,11
 250 1749 250 1749 400 1726 c 0,12,13
 561 1701 561 1701 609 1537 c 0,14,15
 623 1489 623 1489 623 1426 c 128,-1,16
 623 1363 623 1363 604.5 1320 c 128,-1,17
 586 1277 586 1277 557 1248 c 128,-1,18
 528 1219 528 1219 493.5 1201.5 c 128,-1,19
 459 1184 459 1184 426.5 1175 c 128,-1,0
 394 1166 394 1166 368.5 1163.5 c 128,-1,1
281 1256.5 m 128,-1,21
 311 1247 311 1247 337.5 1247 c 128,-1,22
 364 1247 364 1247 397.5 1254 c 128,-1,23
 431 1261 431 1261 460 1281 c 0,24,25
 529 1329 529 1329 529 1436 c 0,26,27
 529 1552 529 1552 462 1606 c 0,28,29
 415 1643 415 1643 362 1643 c 128,-1,30
 309 1643 309 1643 275.5 1627 c 128,-1,31
 242 1611 242 1611 218 1584 c 0,32,33
 166 1526 166 1526 166 1456.5 c 128,-1,34
 166 1387 166 1387 183 1349 c 128,-1,35
 200 1311 200 1311 225.5 1288.5 c 128,-1,20
 251 1266 251 1266 281 1256.5 c 128,-1,21
EndSplineSet
EndChar

